<?xml version="1.0" encoding="utf-8"?>
<!-- Generator: Adobe Illustrator 22.1.0, SVG Export Plug-In . SVG Version: 6.00 Build 0)  -->
<svg version="1.1" id="Layer_1" xmlns="http://www.w3.org/2000/svg" xmlns:xlink="http://www.w3.org/1999/xlink" x="0px" y="0px"
	 viewBox="0 0 484.8 320.2" style="enable-background:new 0 0 484.8 320.2;" xml:space="preserve">
<style type="text/css">
	.st0{clip-path:url(#SVGID_2_);fill-rule:evenodd;clip-rule:evenodd;fill:#0C2D69;}
	.st1{clip-path:url(#SVGID_2_);fill:#0C2D69;}
</style>
<g>
	<defs>
		<rect id="SVGID_1_" width="484.8" height="320.2"/>
	</defs>
	<clipPath id="SVGID_2_">
		<use xlink:href="#SVGID_1_"  style="overflow:visible;"/>
	</clipPath>
	<path class="st0" d="M256.9,75.2c0,2.5-2,4.5-4.5,4.5s-4.5-2-4.5-4.5c0-2.5,2-4.5,4.5-4.5S256.9,72.6,256.9,75.2"/>
	<path class="st0" d="M291.6,102.8V67.5c2-0.5,3.4-2.2,3.4-4.3c0-2.5-2-4.5-4.5-4.5c-1.2,0-2.2,0.5-3,1.2l-30.9-20.4
		c0.2-0.5,0.3-1,0.3-1.5c0-2.5-2-4.5-4.5-4.5c-2.5,0-4.5,2-4.5,4.5c0,0.5,0.1,1,0.3,1.5l-30.9,20.4c-0.8-0.7-1.9-1.2-3-1.2
		c-2.5,0-4.5,2-4.5,4.5c0,2.1,1.4,3.9,3.4,4.3v35.4c-1.9,0.5-3.4,2.2-3.4,4.3c0,2.5,2,4.5,4.5,4.5c1.1,0,2.2-0.4,2.9-1.1l7.9,5.4
		c-0.1,0.4-0.2,0.8-0.2,1.2c0,2.5,2,4.5,4.5,4.5c1,0,1.9-0.4,2.7-0.9l16.1,11.1c-0.2,0.5-0.3,1-0.3,1.6c0,2.5,2,4.5,4.5,4.5
		c2.5,0,4.5-2,4.5-4.5c0-0.6-0.1-1.1-0.3-1.6l16.1-11.1c0.8,0.6,1.7,0.9,2.7,0.9c2.5,0,4.5-2,4.5-4.5c0-0.4-0.1-0.8-0.2-1.2l7.9-5.4
		c0.8,0.7,1.8,1.1,2.9,1.1c2.5,0,4.5-2,4.5-4.5C295,105.1,293.6,103.3,291.6,102.8 M288.3,67l-6,21.4l-8.8-18.8l13.2-4.2
		C287.1,66.1,287.6,66.6,288.3,67 M289.4,71.2v31.6c-0.1,0-0.2,0.1-0.3,0.1l-5.4-11.4L289.4,71.2z M254.4,94.7l2.9-8.1l7.8,14.4
		l-8.3-1.8c0-0.1,0-0.3,0-0.4C256.9,96.9,255.9,95.4,254.4,94.7 M247.9,99.1l-8.3,1.8l7.8-14.5l2.9,8.2c-1.5,0.7-2.5,2.2-2.5,4
		C247.9,98.8,247.9,99,247.9,99.1 M236.1,61.7c0.4,0.1,0.9,0.2,1.4,0.2c0.4,0,0.8-0.1,1.2-0.2l3.2,9l-8.7-2.8L236.1,61.7z
		 M234.9,57.4c0-1.5,1.2-2.7,2.7-2.7c1.5,0,2.7,1.2,2.7,2.7c0,1.5-1.2,2.7-2.7,2.7C236.1,60.1,234.9,58.9,234.9,57.4 M242.8,73.3
		l3.7,10.4l-9.7,17.9l-10.1,2.2L222.9,90l9.4-20.1L242.8,73.3z M248.2,85.2l2.2-4.1c-0.7-0.2-1.4-0.6-1.9-1l-1.3,2.3l-3.1-8.7l2,0.6
		c0.1-0.8,0.3-1.5,0.7-2.1l-3.6-1.1l-3.5-9.8c1.2-0.7,2-1.9,2.2-3.3h9.3V69c0.4-0.1,0.7-0.1,1.1-0.1c0.4,0,0.7,0,1.1,0.1V58.1h9.3
		c0.2,1.5,1.1,2.7,2.4,3.4l-3.5,9.6l-3.9,1.2c0.3,0.6,0.6,1.3,0.7,2.1l2.2-0.7l-3.2,8.9l-1.3-2.5c-0.6,0.5-1.2,0.8-1.9,1l2.3,4.2
		l-3.2,9c-0.3-0.1-0.6-0.1-1-0.1c-0.3,0-0.6,0-1,0.1L248.2,85.2z M267.2,60.1c-1.5,0-2.7-1.2-2.7-2.7c0-1.5,1.2-2.7,2.7-2.7
		c1.5,0,2.7,1.2,2.7,2.7C269.9,58.9,268.7,60.1,267.2,60.1 M271.5,68l-8.4,2.7l3.2-8.8c0.3,0.1,0.6,0.1,1,0.1c0.5,0,0.9-0.1,1.4-0.2
		L271.5,68z M258.3,83.8l3.8-10.6l10.3-3.3l9.4,20.1l-3.8,13.8l-10.1-2.2L258.3,83.8z M286,63.4l-13.5,4.3l-3-6.4
		c0.8-0.5,1.5-1.3,1.8-2.2l14.7,3.5c0,0.2-0.1,0.3-0.1,0.5C286,63.2,286,63.3,286,63.4 M286,61.5L271.7,58c0-0.2,0.1-0.4,0.1-0.6
		c0-2.5-2-4.5-4.5-4.5c-0.8,0-1.6,0.2-2.3,0.6l-9.2-12.1L286,61.5z M264.1,54.3c-0.7,0.7-1.2,1.6-1.3,2.7h-9.3V42.3
		c0.4-0.1,0.8-0.3,1.1-0.5L264.1,54.3z M252.4,35.3c1.5,0,2.7,1.2,2.7,2.7c0,1.5-1.2,2.7-2.7,2.7c-1.5,0-2.7-1.2-2.7-2.7
		C249.7,36.5,250.9,35.3,252.4,35.3 M250.1,41.8c0.4,0.2,0.7,0.4,1.2,0.5V57H242c-0.1-1.1-0.6-2-1.3-2.7L250.1,41.8z M249,41.5
		l-9.2,12c-0.7-0.4-1.4-0.6-2.2-0.6c-2.5,0-4.5,2-4.5,4.5c0,0.2,0,0.4,0.1,0.6l-14.3,3.5L249,41.5z M233.4,59.1
		c0.3,0.9,1,1.6,1.8,2.2l-3,6.4l-13.4-4.2c0-0.1,0-0.2,0-0.3c0-0.2,0-0.3-0.1-0.5L233.4,59.1z M218.1,65.5l13.1,4.1l-8.8,18.8
		L216.5,67C217.1,66.6,217.7,66.1,218.1,65.5 M215.4,71.2l5.6,20.3l-5.4,11.5c-0.1,0-0.2-0.1-0.3-0.1V71.2z M214.3,109.8
		c-1.5,0-2.7-1.2-2.7-2.7c0-1.5,1.2-2.7,2.7-2.7c1.5,0,2.7,1.2,2.7,2.7C216.9,108.7,215.7,109.8,214.3,109.8 M216.6,103.4l4.8-10.3
		l3.1,11.2l-6.1,1.4C218.1,104.7,217.5,103.9,216.6,103.4 M226.2,114.1l-7.8-5.3c0.2-0.5,0.3-1,0.3-1.6c0-0.1,0-0.3,0-0.4l6.2-1.4
		l2.2,8C226.8,113.6,226.5,113.8,226.2,114.1 M229.4,119.9c-1.5,0-2.7-1.2-2.7-2.7c0-1.5,1.2-2.7,2.7-2.7c1.5,0,2.7,1.2,2.7,2.7
		C232.1,118.7,230.9,119.9,229.4,119.9 M230.7,112.9c-0.4-0.1-0.8-0.2-1.3-0.2c-0.1,0-0.1,0-0.2,0l-2.2-7.9l9.1-2L230.7,112.9z
		 M251.3,121.7v7.3c-0.7,0.2-1.3,0.5-1.9,1l-15.9-11c0.1-0.1,0.1-0.2,0.1-0.4h17.6V121.7z M251.3,116.5h-17.4
		c-0.2-0.9-0.6-1.8-1.2-2.5l6.4-11.8l9.2-2c0.5,1.4,1.7,2.5,3.1,2.8V116.5z M249.7,98.7c0-1.5,1.2-2.7,2.7-2.7
		c1.5,0,2.7,1.2,2.7,2.7c0,1.5-1.2,2.7-2.7,2.7C250.9,101.4,249.7,100.2,249.7,98.7 M255.3,130.1c-0.5-0.5-1.2-0.8-1.9-1v-10.4h17.6
		c0,0.1,0.1,0.3,0.1,0.4L255.3,130.1z M270.9,116.5h-17.4V103c1.5-0.4,2.6-1.4,3.1-2.8l9.2,2l6.4,11.8
		C271.5,114.7,271.1,115.6,270.9,116.5 M268.6,102.9l9.1,2l-2.2,7.9c-0.1,0-0.1,0-0.2,0c-0.4,0-0.9,0.1-1.3,0.2L268.6,102.9z
		 M275.4,119.9c-1.5,0-2.7-1.2-2.7-2.7c0-1.5,1.2-2.7,2.7-2.7c1.5,0,2.7,1.2,2.7,2.7C278,118.7,276.8,119.9,275.4,119.9
		 M278.5,114.1c-0.3-0.3-0.6-0.5-0.9-0.7l2.2-8l6.2,1.4c0,0.1,0,0.3,0,0.4c0,0.5,0.1,1.1,0.3,1.6L278.5,114.1z M286.3,105.7
		l-6.1-1.4l3.1-11.2l4.8,10.3C287.3,103.9,286.6,104.7,286.3,105.7 M290.5,109.8c-1.5,0-2.7-1.2-2.7-2.7c0-1.5,1.2-2.7,2.7-2.7
		c1.5,0,2.7,1.2,2.7,2.7C293.2,108.7,292,109.8,290.5,109.8"/>
	<rect x="69.5" y="222.8" class="st0" width="366.1" height="1"/>
	<polygon class="st1" points="69.5,206 69.5,161.9 74.4,161.9 74.4,201.4 86.8,201.4 86.8,206 	"/>
	<path class="st1" d="M111.4,162v32.2c0,3.9-0.7,7-2.2,9.1c-1.5,2.1-4,3.2-7.6,3.2c-3.5,0-6-1-7.6-3c-1.5-2-2.3-4.6-2.3-7.9V162h4.8
		v33.7c0,0.6,0.1,1.3,0.2,2c0.1,0.7,0.4,1.4,0.7,2c0.4,0.6,0.9,1.1,1.5,1.6c0.6,0.4,1.5,0.6,2.5,0.6c1,0,1.9-0.2,2.5-0.6
		c0.7-0.4,1.2-1,1.5-1.6c0.4-0.7,0.6-1.4,0.8-2.2c0.1-0.8,0.2-1.7,0.2-2.6V162H111.4z"/>
	<path class="st1" d="M134.8,206l-6.1-19.3h-4.6V206h-4.9v-44.1h9.4c3.5,0,6,1,7.7,3.1c1.6,2.1,2.4,5.2,2.4,9.4
		c0,2.5-0.4,4.8-1.1,6.7c-0.7,1.9-2.2,3.4-4.4,4.5l6.5,20.3H134.8z M133.9,174.4c0-1.2-0.1-2.3-0.2-3.2c-0.2-1-0.5-1.8-1-2.5
		c-0.5-0.7-1.1-1.2-1.9-1.6c-0.8-0.4-1.8-0.6-3-0.6h-3.7V182h4.1c1.1,0,2-0.2,2.8-0.5c0.7-0.4,1.3-0.9,1.8-1.6
		c0.4-0.7,0.7-1.5,0.9-2.4C133.8,176.6,133.9,175.6,133.9,174.4"/>
	<polygon class="st1" points="152.8,180.1 158.4,161.9 163.5,161.9 155.1,187.4 155.1,206.1 150.3,206.1 150.3,187.4 141.9,161.9 
		147,161.9 150.1,172.2 152.6,180.1 	"/>
	<polygon class="st1" points="169,206 169,161.9 187.3,161.9 187.3,166.5 173.8,166.5 173.8,181.3 185.5,181.3 185.5,185.9 
		173.8,185.9 173.8,201.4 187.3,201.4 187.3,206 	"/>
	<path class="st1" d="M229.2,161.5c3.3,0,5.7,0.9,7.2,2.8c1.5,1.9,2.2,4.3,2.2,7.3l-4.9,0.9c0-1.9-0.3-3.5-1-4.6
		c-0.7-1.1-1.9-1.7-3.7-1.7c-1,0-1.8,0.2-2.4,0.7c-0.6,0.5-1.1,1-1.4,1.7c-0.3,0.7-0.6,1.5-0.7,2.3c-0.1,0.8-0.2,1.6-0.2,2.4v22.2
		c0,0.6,0.1,1.3,0.2,2.1c0.1,0.7,0.4,1.4,0.7,2c0.3,0.6,0.8,1.1,1.4,1.6c0.6,0.4,1.4,0.6,2.4,0.6c1.6,0,2.8-0.5,3.5-1.5
		c0.8-1,1.2-2.6,1.2-4.8l5,0.9c-0.1,3.2-0.9,5.6-2.5,7.4c-1.6,1.8-3.9,2.7-7.1,2.7c-3.2,0-5.6-0.9-7.2-2.8c-1.6-1.9-2.4-4.5-2.4-7.9
		V174c0-1.6,0.1-3.1,0.4-4.6c0.3-1.5,0.7-2.8,1.4-4c0.7-1.2,1.7-2.1,2.9-2.8C225.6,161.9,227.2,161.5,229.2,161.5"/>
	<polygon class="st1" points="259.8,206 259.8,185.7 249.9,185.7 249.9,206 245,206 245,161.9 249.9,161.9 249.9,181.3 259.8,181.3 
		259.8,161.9 264.7,161.9 264.7,206 	"/>
	<path class="st1" d="M292.2,162v32.2c0,3.9-0.7,7-2.2,9.1c-1.5,2.1-4,3.2-7.6,3.2c-3.5,0-6-1-7.6-3c-1.5-2-2.3-4.6-2.3-7.9V162h4.9
		v33.7c0,0.6,0.1,1.3,0.2,2c0.1,0.7,0.4,1.4,0.7,2c0.4,0.6,0.9,1.1,1.5,1.6c0.6,0.4,1.5,0.6,2.5,0.6c1,0,1.9-0.2,2.5-0.6
		c0.7-0.4,1.2-1,1.5-1.6c0.4-0.7,0.6-1.4,0.8-2.2c0.1-0.8,0.2-1.7,0.2-2.6V162H292.2z"/>
	<polygon class="st1" points="323,175.5 319.7,184.6 315.3,195.3 313,195.3 308.6,184.6 305.2,175.5 304.9,175.5 304.9,206 
		300.1,206 300.1,161.9 305,161.9 310.1,175.6 314,186.4 314.2,186.4 318.3,175.3 323.2,161.9 328.2,161.9 328.2,206 323.4,206 
		323.4,175.5 	"/>
	<path class="st1" d="M351.8,206l-2-9.8h-9.5l-1.9,9.8h-4.7l9.1-44.1h4.5l9.2,44.1H351.8z M345,171l-1.8,10.3l-2,10.3h7.9l-2.1-10.5
		l-1.7-10.1H345z"/>
	<polygon class="st1" points="378.8,206 371.1,184.8 366.9,193.2 366.9,206 362,206 362,161.9 366.9,161.9 366.9,183.9 367,183.9 
		377.3,161.9 382.2,161.9 373.9,179.3 383.7,206 	"/>
	<path class="st1" d="M408.3,194.2c0,3.9-0.7,7-2.2,9.1c-1.5,2.1-4,3.2-7.6,3.2c-3.5,0-6-1-7.5-3c-1.5-2-2.2-4.6-2.2-7.9v-21.7
		c0-1.6,0.1-3.1,0.4-4.6c0.3-1.5,0.8-2.8,1.5-4c0.7-1.2,1.7-2.1,3-2.8c1.3-0.7,2.9-1,5-1c2.1,0,3.8,0.3,5.1,0.9
		c1.3,0.6,2.3,1.5,3,2.6c0.7,1.1,1.2,2.4,1.4,3.9c0.2,1.5,0.3,3.1,0.3,4.9V194.2z M403.4,173c0-0.8-0.1-1.5-0.2-2.3
		c-0.1-0.8-0.3-1.5-0.6-2.2c-0.3-0.7-0.8-1.2-1.5-1.6c-0.7-0.4-1.6-0.7-2.7-0.7c-1.2,0-2.2,0.3-2.8,0.9c-0.7,0.6-1.1,1.3-1.5,2.2
		c-0.3,0.8-0.5,1.7-0.6,2.7c-0.1,0.9-0.1,1.7-0.1,2.4v21.3c0,0.6,0.1,1.3,0.2,2c0.1,0.7,0.4,1.4,0.7,2c0.4,0.6,0.9,1.1,1.5,1.5
		c0.6,0.4,1.5,0.6,2.5,0.6c1,0,1.9-0.2,2.5-0.6c0.7-0.4,1.2-1,1.5-1.6c0.4-0.7,0.6-1.4,0.8-2.2c0.1-0.8,0.2-1.7,0.2-2.6V173z"/>
	<polygon class="st1" points="427.4,206.1 422.1,206.1 414.1,161.9 419.1,161.9 422.3,180.5 424.7,195.9 424.9,195.9 427.3,180.4 
		430.6,161.9 435.5,161.9 	"/>
	<path class="st1" d="M149.2,237.6c1.7,0,3,0.2,4,0.6c1,0.4,1.9,1.1,2.7,2.1l-1.4,1c-0.6-0.9-1.3-1.5-2.3-1.8
		c-1-0.3-1.9-0.5-2.9-0.5s-1.8,0.2-2.5,0.6c-0.7,0.4-1.3,1-1.8,1.6c-0.5,0.7-0.8,1.4-1.1,2.3c-0.2,0.8-0.3,1.7-0.3,2.5
		c0,1.2,0.1,2.5,0.4,3.7c0.3,1.3,0.9,2.7,1.7,4.2l11.4,20.2c0.7-1.6,1.3-3.2,1.6-4.7c0.3-1.5,0.6-3,0.7-4.4h1.4
		c-0.1,1.7-0.4,3.5-0.9,5.4c-0.5,1.9-1.1,3.6-1.9,5.1l3.7,6.4h-2l-2.8-4.9c-0.9,1.1-1.7,2.1-2.5,2.8c-0.8,0.7-1.6,1.3-2.4,1.6
		c-0.8,0.4-1.5,0.6-2.2,0.8c-0.7,0.1-1.4,0.2-2.1,0.2c-1.2,0-2.4-0.2-3.5-0.6c-1.1-0.4-2-1-2.8-1.8c-0.8-0.8-1.4-1.9-1.9-3.3
		c-0.5-1.3-0.7-2.9-0.7-4.8c0-2.5,0.6-5,1.7-7.4c1.1-2.4,2.9-4.6,5.4-6.7c-0.3-0.5-0.6-1-0.9-1.6c-0.3-0.6-0.6-1.1-0.9-1.6
		c-0.9-1.7-1.6-3.3-1.8-4.7c-0.3-1.4-0.4-2.7-0.4-4c0-1.2,0.2-2.3,0.5-3.3c0.3-1,0.8-1.9,1.4-2.7c0.6-0.8,1.4-1.4,2.3-1.8
		C147.1,237.9,148.1,237.6,149.2,237.6 M146.9,259.2c-2.6,2.4-4.3,4.6-5.1,6.8c-0.8,2.2-1.3,4.2-1.3,6c0,2.6,0.6,4.8,1.9,6.5
		c1.2,1.7,3.2,2.6,5.9,2.6c1.1,0,2.4-0.4,3.9-1.2c1.4-0.8,2.8-2.1,4.1-4L146.9,259.2z"/>
	<path class="st1" d="M188,238c2.1,0,3.9,0.3,5.3,0.9c1.4,0.6,2.5,1.5,3.3,2.5c0.8,1.1,1.4,2.3,1.7,3.8s0.5,3.1,0.5,4.8
		c0,1.9-0.2,3.7-0.6,5.3c-0.4,1.6-1,2.9-1.8,4c-0.8,1.1-2,2-3.4,2.6c-1.4,0.6-3.1,0.9-5.2,0.9h-6.5V282h-1.5V238H188z M181.4,239.4
		v21.9h6.3c3.4,0,5.8-0.9,7.3-2.7c1.5-1.8,2.2-4.6,2.2-8.5c0-1.6-0.2-3-0.5-4.3c-0.3-1.3-0.8-2.4-1.6-3.4c-0.7-0.9-1.7-1.6-2.9-2.2
		c-1.2-0.5-2.7-0.8-4.5-0.8H181.4z"/>
	<path class="st1" d="M216.3,269.6h-13.1l-2.7,12.4h-1.5l9.6-44.1h2.3l9.7,44.1h-1.5L216.3,269.6z M207.3,250.8l-3.7,17.4H216
		l-3.8-17.5l-2.4-11.3h-0.1L207.3,250.8z"/>
	<path class="st1" d="M233.6,238c2.1,0,3.9,0.3,5.4,0.8c1.4,0.5,2.6,1.3,3.4,2.3c0.8,1,1.4,2.2,1.8,3.6c0.3,1.4,0.5,3,0.5,4.7
		c0,3.2-0.6,5.7-1.7,7.7c-1.1,2-2.9,3.3-5.5,3.9c0.5,1.6,1,3.3,1.6,5.1c0.6,1.8,1.2,3.6,1.8,5.5c0.6,1.8,1.2,3.7,1.8,5.5
		c0.6,1.8,1.2,3.5,1.7,5.1h-1.8l-6.7-20.8c-0.4,0-0.8,0.1-1.2,0.1c-0.4,0-0.8,0-1.3,0h-6.1v20.7h-1.5V238H233.6z M227.4,239.4v20.5
		h5.9c3.4,0,5.8-0.8,7.5-2.4c1.6-1.6,2.4-4.3,2.4-8.2c0-3.1-0.7-5.6-2.2-7.3c-1.5-1.7-4-2.6-7.6-2.6H227.4z"/>
	<polygon class="st1" points="258.5,282.1 257,282.1 257,239.4 248.4,239.4 248.4,238 267,238 267,239.4 258.5,239.4 	"/>
	<polygon class="st1" points="273.7,242.3 273.7,282.1 272.2,282.1 272.2,238 273.7,238 290.3,277.7 290.5,277.7 290.5,238 292,238 
		292,282.1 290.5,282.1 273.8,242.3 	"/>
	<polygon class="st1" points="299.7,238 316.7,238 316.7,239.4 301.3,239.4 301.3,258.6 315,258.6 315,260 301.3,260 301.3,280.6 
		316.7,280.6 316.7,282.1 299.7,282.1 	"/>
	<path class="st1" d="M330.6,238c2.1,0,3.9,0.3,5.4,0.8c1.4,0.5,2.6,1.3,3.4,2.3c0.8,1,1.4,2.2,1.8,3.6c0.3,1.4,0.5,3,0.5,4.7
		c0,3.2-0.6,5.7-1.7,7.7c-1.1,2-2.9,3.3-5.5,3.9c0.5,1.6,1,3.3,1.6,5.1c0.6,1.8,1.2,3.6,1.8,5.5c0.6,1.8,1.2,3.7,1.8,5.5
		c0.6,1.8,1.2,3.5,1.7,5.1h-1.8l-6.7-20.8c-0.4,0-0.8,0.1-1.2,0.1s-0.8,0-1.3,0h-6.1v20.7h-1.5V238H330.6z M324.3,239.4v20.5h5.9
		c3.4,0,5.8-0.8,7.5-2.4c1.6-1.6,2.4-4.3,2.4-8.2c0-3.1-0.7-5.6-2.2-7.3c-1.5-1.7-4-2.6-7.6-2.6H324.3z"/>
	<path class="st1" d="M365.8,270.8c0,1.8-0.2,3.4-0.5,4.8c-0.3,1.4-0.8,2.7-1.5,3.7c-0.7,1-1.7,1.8-2.9,2.4
		c-1.2,0.5-2.7,0.8-4.5,0.8c-1.7,0-3.2-0.2-4.3-0.7c-1.2-0.4-2.1-1.1-2.9-1.9c-0.8-0.8-1.3-1.8-1.7-2.9c-0.3-1.1-0.5-2.3-0.6-3.6
		l1.7-0.3c0,1.1,0.1,2.1,0.4,3c0.3,1,0.7,1.8,1.4,2.5c0.6,0.7,1.4,1.3,2.4,1.7c1,0.4,2.2,0.6,3.6,0.6c1.7,0,3-0.3,4-0.8
		c1-0.6,1.8-1.3,2.3-2.2c0.6-0.9,0.9-2,1.1-3.2c0.2-1.2,0.3-2.5,0.3-3.9c0-1.6-0.1-2.9-0.2-3.9c-0.1-1.1-0.5-2-1-2.8
		c-0.5-0.8-1.3-1.6-2.3-2.3c-1-0.7-2.4-1.4-4.1-2.3c-2.1-1-3.7-1.9-4.9-2.7c-1.2-0.8-2.1-1.7-2.8-2.6c-0.6-0.9-1-1.8-1.2-2.8
		c-0.2-1-0.3-2-0.3-3.1c0-1.6,0.2-3,0.5-4.3c0.3-1.3,0.9-2.5,1.7-3.4c0.8-1,1.7-1.7,2.9-2.2c1.2-0.5,2.6-0.8,4.2-0.8
		c1.8,0,3.3,0.3,4.5,0.8c1.2,0.5,2.1,1.2,2.8,2c0.7,0.8,1.2,1.8,1.5,2.9c0.3,1.1,0.4,2.1,0.4,3.2l-1.6,0.4c0-1-0.1-2-0.4-2.9
		c-0.3-0.9-0.7-1.8-1.3-2.5c-0.6-0.7-1.4-1.3-2.4-1.7s-2.2-0.6-3.6-0.6c-1.6,0-2.9,0.3-3.9,0.9c-1,0.6-1.8,1.3-2.3,2.2
		c-0.6,0.9-0.9,1.9-1.1,3c-0.2,1.1-0.3,2.1-0.3,3.1c0,1.1,0.1,2.2,0.4,3c0.2,0.9,0.7,1.7,1.4,2.5c0.7,0.8,1.6,1.5,2.7,2.3
		c1.2,0.7,2.7,1.6,4.6,2.4c1.9,0.8,3.3,1.7,4.4,2.5c1,0.8,1.8,1.7,2.3,2.6c0.5,1,0.8,2,0.9,3.2C365.8,267.9,365.8,269.2,365.8,270.8
		"/>
	<polygon class="st0" points="195.4,213.5 192.8,213.5 195.8,200.4 200.7,200.4 	"/>
</g>
</svg>
