<?xml version="1.0" encoding="utf-8"?>
<!-- Generator: Adobe Illustrator 22.1.0, SVG Export Plug-In . SVG Version: 6.00 Build 0)  -->
<svg version="1.1" id="Layer_1" xmlns="http://www.w3.org/2000/svg" xmlns:xlink="http://www.w3.org/1999/xlink" x="0px" y="0px"
	 viewBox="0 0 619 354" style="enable-background:new 0 0 619 354;" xml:space="preserve">
<style type="text/css">
	.st0{fill:#010101;}
	.st1{fill:#4192CF;}
</style>
<g id="Layer_2_1_">
</g>
<g id="Layer_1_1_">
	<g>
		<g>
			<polygon class="st0" points="97.8,276.9 117.6,276.9 117.6,274.4 97.8,274.4 97.8,258.5 121.9,258.5 121.9,255.8 97.8,255.8 
				97.8,255.8 94.9,255.8 94.9,298.7 97.4,298.7 97.4,298.7 123.1,298.7 123.1,296.1 97.8,296.1 			"/>
			<polygon class="st0" points="49.6,255 46.7,255 46.7,293 41.6,286.5 23.7,263 20.8,259.5 17.3,255 14.9,255 14.9,256 14.9,256 
				14.9,297.9 17.8,297.9 17.8,259.9 17.8,259.9 20.8,263.8 23.7,267.5 34.7,281.8 47.2,297.9 49.6,297.9 49.6,296.7 49.6,296.7 			
				"/>
			<polygon class="st0" points="202.9,294.2 193.9,265.2 192.7,260.7 190.8,255 188.6,255 177.4,293 164.3,254.8 161,254.8 
				176.2,297.9 178.6,297.9 178.8,297.1 178.8,297.1 189.8,260.1 191.3,265 192.7,269.5 201.3,298.1 203.9,298.1 203.9,297.9 
				203.3,296.1 203.9,298.1 217.4,254.8 214.3,254.8 			"/>
			<path class="st0" d="M279.6,277.3c-0.8-0.4-1.6-0.8-2.4-1l-8.2-2.7l-1.4-0.4c-0.6-0.2-1.6-0.4-2.7-0.8c-1-0.4-1.8-0.8-2.4-1.2
				c-1.6-1.2-3.7-3.3-3.5-5.9c0-2,1-4.1,2.7-5.5c1-0.8,2.2-1.4,3.9-1.8c1.4-0.4,3.1-0.6,4.9-0.6c8.4,0.4,12.9,3.9,12.9,3.9v-3.1
				c-3.7-2.4-8-3.7-13.1-3.7H270c-2.4,0-4.7,0.4-6.5,1c-1.4,0.4-2.7,1.2-3.7,2c-2.4,2-3.7,4.5-3.7,7.6c0.2,4.5,1.8,6.9,5.7,8.8
				c1.4,0.6,2.7,1.2,3.7,1.6l1,0.2l8.4,2.4l0,0c0.8,0.2,1.6,0.6,2.7,1c1.2,0.6,2.2,1.2,2.9,1.8c1.2,1.2,2.4,3.3,2.4,5.7
				c0,1.8-0.6,3.5-1.6,4.7c-0.6,0.8-1.2,1.4-2,2c-1,0.6-2,1.2-3.5,1.6c-1.6,0.6-3.7,0.8-5.7,0.8c-3.1,0-6.1-0.4-9-1.6
				c-2.7-1-4.9-2.2-6.5-3.7v3.3c3.3,2.4,9.4,4.5,15.7,4.5c4.3,0,8-1,10.8-3.1c0.8-0.6,1.4-1.2,2-1.8c1.2-1.2,1.8-2.9,2.2-4.5
				c0.2-0.8,0.2-1.6,0.2-2.4c0-3.3-1.4-5.9-2.9-7.3C282.3,278.5,281.1,277.9,279.6,277.3z"/>
			<path class="st0" d="M357,270.9c0.8-2,1-3.5,1-4.5c0-6.7-4.9-11.2-13.1-11.2h-19v15.9v7.3v19.2h2.9v-19.2v-7.3v-13.3h15.9
				c6.5,0,10.4,3.3,10.4,8.8c0,1-0.2,2.7-1.2,4.7c-1,1.8-8.2,7.8-8.2,7.8l13.5,19.2h3.3l-12.9-18.8
				C349.4,279.1,355.8,273.6,357,270.9z"/>
			<path class="st0" d="M435.8,260.7c-4.1-4.3-9.2-6.3-15.1-6.3c-0.2,0-0.4,0-0.4,0c-3.1,0-5.9,0.6-8.4,1.8c-2.2,1-4.5,2.4-6.3,4.5
				c-2.9,2.9-4.9,8-5.5,10.4c-0.6,2.4-0.4,7.8-0.4,7.8c0.4,5.3,2.4,10,5.9,13.7c4.1,4.3,9.2,6.3,15.3,6.3c5.5,0,10.2-1.8,14.3-5.3
				c0.4-0.2,0.6-0.6,1-0.8c2-2,3.5-4.3,4.5-6.9c0.8-2,1.4-4.3,1.6-6.7c0,0,0-5.7-0.4-7.8C440.5,267.1,438.6,263.6,435.8,260.7z
				 M438.8,278.7c-0.4,4.5-2.2,8.4-5.3,11.6c-0.2,0.2-0.4,0.4-0.6,0.6c-2,1.8-4.1,3.3-6.5,4.1c-1.8,0.6-3.7,0.8-5.9,0.8
				c-5.1,0-9.6-1.8-13.1-5.5c-3.1-3.3-4.9-7.1-5.3-11.6c0,0-0.2-3.9,0.6-7.8c0.8-2.4,1.8-4.9,3.5-6.9c0.4-0.6,0.8-1,1.2-1.4
				c1.8-1.8,3.9-3.3,6.1-4.3c2.2-0.8,4.5-1.4,7.1-1.4c5.3,0,9.6,1.8,13.1,5.5c2.2,2.4,3.9,5.3,4.7,8.4
				C439.1,274.2,438.8,278.7,438.8,278.7z"/>
			<path class="st0" d="M517.8,260.7c-4.1-4.3-9.2-6.3-15.1-6.3c-0.2,0-0.4,0-0.4,0c-3.1,0-5.9,0.6-8.4,1.8c-2.2,1-4.5,2.4-6.3,4.5
				c-2.9,2.9-4.9,8-5.5,10.4c-0.6,2.4-0.4,7.8-0.4,7.8c0.4,5.3,2.4,10,5.9,13.7c4.1,4.3,9.2,6.3,15.3,6.3c5.5,0,10.2-1.8,14.3-5.3
				c0.4-0.2,0.6-0.6,1-0.8c2-2,3.5-4.3,4.5-6.9c0.8-2,1.4-4.3,1.6-6.7c0,0,0-5.7-0.4-7.8C522.5,267.1,520.7,263.6,517.8,260.7z
				 M521.1,278.7c-0.4,4.5-2.2,8.4-5.3,11.6c-0.2,0.2-0.4,0.4-0.6,0.6c-2,1.8-4.1,3.3-6.5,4.1c-1.8,0.6-3.7,0.8-5.9,0.8
				c-5.1,0-9.6-1.8-13.1-5.5c-3.1-3.3-4.9-7.1-5.3-11.6c0,0-0.2-3.9,0.6-7.8c0.8-2.4,1.8-4.9,3.5-6.9c0.4-0.6,0.8-1,1.2-1.4
				c1.8-1.8,3.9-3.3,6.1-4.3c2.2-0.8,4.5-1.4,7.1-1.4c5.3,0,9.6,1.8,13.1,5.5c2.2,2.4,3.9,5.3,4.7,8.4
				C521.3,274.2,521.1,278.7,521.1,278.7z"/>
			<polygon class="st0" points="602.1,254.6 585.8,276.7 569.3,255 568.9,255 566.2,255 566.4,255.2 566.4,297.9 569.1,297.9 
				569.1,258.9 569.7,259.5 585.4,279.9 586.6,279.9 587,279.5 587,279.5 602.1,258.9 602.1,260.7 602.1,265 602.1,297.5 605,297.5 
				605,261.4 605,257.1 605,254.6 			"/>
		</g>
		<polygon class="st0" points="206.2,68.3 206.2,68.3 206.2,167.7 198.6,167.7 198.6,57.8 		"/>
		<path class="st1" d="M344.1,118.5c0,0,15.9-12.5,19.6-21.2c1.6-4.1,2.4-9,2.4-12.5c0.2-17.1-12.9-29.6-34.1-29.6h-50.2v99.4
			l-13.3-17.3L221.5,76l-7.3-9.6L204.7,55h-6.1v2.2l0,0l7.3,10.4l0,0l8,10.4l7.3,9.6l29,37.6l32,41.4v0.8h7.3V116V96.8V61.9h41.6
			c17.3,0,27.6,8.6,27.4,22.9c0,4.5-0.8,8.4-3.3,12.2c-3.3,5.3-21.4,20-21.4,20l35.1,50.4h8.6L344.1,118.5z"/>
	</g>
</g>
<g id="Слой_3">
</g>
</svg>
