<?xml version="1.0" encoding="utf-8"?>
<!-- Generator: Adobe Illustrator 22.1.0, SVG Export Plug-In . SVG Version: 6.00 Build 0)  -->
<svg version="1.1" id="Layer_1" xmlns="http://www.w3.org/2000/svg" xmlns:xlink="http://www.w3.org/1999/xlink" x="0px" y="0px"
	 viewBox="0 0 841.9 595.3" style="enable-background:new 0 0 841.9 595.3;" xml:space="preserve">
<style type="text/css">
	.st0{fill:#495965;}
</style>
<g>
	<path class="st0" d="M338.6,299c-1.4,2.2-4,3-6,3c-3,0-4.9-1-5.8-3.6l-0.4-0.1c-1.8,2.4-4.5,3.6-8.3,3.7c-6.1,0.1-9.4-2.7-9.4-7.9
		c0-5.3,3.7-8.4,9.6-9.1c3.4-0.4,6.5-0.3,8-0.4l0-3.7c0-4.1-1.1-7.2-6-7.2c-1.6,0-3.4,0.5-4.6,2c1.6,0.3,2.6,1.6,2.6,3
		c0,2-1.5,3.4-3.4,3.4c-2.2,0-3.8-1.5-3.8-3.8c0-4.7,5.1-7.2,10.3-7.2c7.8,0,11.6,4,11.6,9.7l0,14.5c0,2.1,0.9,3.1,2.6,3.1
		c0.9,0,1.8-0.5,2.4-1.2L338.6,299z M326.3,294.1l0-7.2c-1.2,0.1-3.2,0.1-5.2,0.2c-3.1,0.3-5.8,2.1-5.8,6.5c0,3.2,1.8,5.2,4.6,5.2
		C324.5,298.8,326.3,295.7,326.3,294.1"/>
	<path class="st0" d="M375.6,273.8c-4.3,0.5-5.4,4.9-7.1,8.8l-8,18.8l-4.8,0l-8.7-21.2c-1.8-4.4-3.6-6.2-6.4-6.4l0-2l15.2,0l0,2
		c-2.5,0-3.5,1.8-1.7,6.9l5.6,15.1h0.2l6.1-15.1c2.1-5,0.9-6.9-2.3-6.9l0-2l11.9,0L375.6,273.8z"/>
	<path class="st0" d="M407.7,294.4c-1.1,2.7-4.7,7.7-12.7,7.7c-8.7,0-14.8-5.6-14.8-15.3c0-8.4,4.8-15.7,14.5-15.7
		c6.8,0,12.5,4.6,12.6,13.8l-20.2,0l0,1.5c0,6.2,3.2,11.4,10,11.4c4.4,0,7.5-2,9.3-4.8L407.7,294.4z M387.2,282l13.4,0
		c0.2-4.2-1.7-8.7-6.4-8.7C390.2,273.3,387.7,277,387.2,282"/>
	<path class="st0" d="M425.5,295.1c0,3.7,1.7,4,4.1,4.2l0,2l-14.9,0l0-2c2.4-0.2,4.1-0.5,4.1-4.2l0-32.6c0-4.6-1.5-5.5-5-5.8v-2
		c4.6,0,5.4-0.1,11.8-0.2c-0.1,3.4-0.2,6.8-0.2,8.9L425.5,295.1z"/>
	<path class="st0" d="M450,293.3c0,4.3,1.4,5.8,5,6l0,2l-16.5,0l0-2c3.5-0.2,5-1.7,5-6l0-13c0-6.1-2.2-6.5-5.2-6.6v-2
		c5.2,0,5.6-0.1,12-0.2c-0.1,3.4-0.2,6.8-0.2,10.1L450,293.3z M442.2,262.3c0-2.3,1.7-4.1,4.1-4.1s4.1,1.8,4.1,4.1
		c0,2.3-1.7,4.1-4.1,4.1C443.9,266.4,442.2,264.6,442.2,262.3"/>
	<path class="st0" d="M489.8,294.3c-1.1,2.7-4.7,7.7-12.7,7.7c-8.7,0-14.8-5.6-14.8-15.3c0-8.4,4.8-15.7,14.5-15.7
		c6.8,0,12.5,4.6,12.6,13.8l-20.2,0l0,1.5c0,6.2,3.2,11.4,10,11.4c4.4,0,7.5-2,9.3-4.8L489.8,294.3z M469.3,281.9l13.4,0
		c0.2-4.2-1.7-8.7-6.4-8.7C472.3,273.2,469.8,276.9,469.3,281.9"/>
	<path class="st0" d="M528.5,273.7c-4.3,0.5-5.4,4.9-7.1,8.8l-8,18.8l-4.8,0l-8.7-21.2c-1.8-4.4-3.6-6.2-6.4-6.4l0-2l15.2,0v2
		c-2.5,0-3.5,1.8-1.7,6.9l5.6,15.1h0.2l6.1-15.1c2.1-5,0.9-6.9-2.3-6.9l0-2l11.9,0L528.5,273.7z"/>
	<path class="st0" d="M637.4,298.9c-1.4,2.2-4,3-6,3c-3,0-4.9-1-5.8-3.6l-0.4-0.1c-1.8,2.4-4.5,3.6-8.3,3.7
		c-6.1,0.1-9.4-2.7-9.4-7.9c0-5.3,3.7-8.4,9.6-9.1c3.4-0.4,6.5-0.3,8-0.4l0-3.7c0-4.1-1.1-7.2-6-7.2c-1.6,0-3.4,0.5-4.6,2
		c1.6,0.3,2.6,1.6,2.6,3c0,2-1.5,3.4-3.4,3.4c-2.2,0-3.8-1.5-3.8-3.8c0-4.7,5.1-7.2,10.3-7.2c7.8,0,11.6,4,11.6,9.7l0,14.5
		c0,2.1,0.9,3.1,2.6,3.1c0.9,0,1.8-0.5,2.4-1.2L637.4,298.9z M625.2,293.9l0-7.2c-1.2,0.1-3.2,0.1-5.2,0.2c-3.1,0.3-5.8,2.1-5.8,6.5
		c0,3.2,1.8,5.2,4.6,5.2C623.3,298.6,625.2,295.5,625.2,293.9"/>
	<path class="st0" d="M664.9,295.5c-1.4,3.6-4.2,6.2-8.7,6.2c-5.8,0-9.3-3.2-9.3-10.4l0-16.6l-5.2,0l0-2.7l0.6-0.1
		c6.3-0.6,7.9-5.1,9-9.7h2.4l-0.1,9.1l11,0l0,3.5l-11.1,0l0,17c0,3.6,1.1,5.9,4.6,5.9c2.7,0,4-1.5,5.3-3.3L664.9,295.5z"/>
	<path class="st0" d="M699.4,298.8c-1.4,2.2-4,3-6,3c-3,0-4.9-1-5.8-3.6l-0.4-0.1c-1.8,2.4-4.5,3.6-8.3,3.7
		c-6.1,0.1-9.4-2.7-9.4-7.9c0-5.3,3.7-8.4,9.6-9.1c3.4-0.4,6.5-0.3,8-0.4v-3.7c0-4.1-1.1-7.2-6-7.2c-1.6,0-3.4,0.5-4.6,2
		c1.6,0.3,2.6,1.6,2.6,3c0,2-1.5,3.4-3.4,3.4c-2.2,0-3.8-1.5-3.8-3.8c0-4.7,5.1-7.2,10.3-7.2c7.8,0,11.6,4,11.6,9.7l0,14.5
		c0,2.1,0.9,3.1,2.6,3.1c0.9,0,1.8-0.5,2.4-1.2L699.4,298.8z M687.2,293.9l0-7.2c-1.2,0.1-3.2,0.1-5.2,0.2c-3.1,0.3-5.8,2.1-5.8,6.5
		c0,3.2,1.8,5.2,4.6,5.2C685.3,298.6,687.2,295.5,687.2,293.9"/>
	<path class="st0" d="M735.8,294.2c0,3.7,0.8,4.7,4.1,5l0,2l-14.4,0l0-2c2.3-0.2,3.7-0.7,3.7-5l0-12.8c0-1.2-0.1-2.4-0.5-3.4
		c-0.8-1.8-2.6-2.8-5-2.8c-3.6,0-7,2.9-7.7,7.7l0,12.2c0,3.7,1.7,4,4.1,4.2l0,2l-14.9,0l0-2c2.4-0.2,4.1-0.5,4.1-4.2l0-15.6
		c0-4.6-1.5-5.5-5-5.8v-2c4.6,0,5.4-0.1,11.8-0.2l-0.1,5l0.3,0.1c2.3-3.5,5.8-5.6,9.9-5.6c6.1,0,9.6,3.7,9.6,9.7L735.8,294.2z"/>
	<path class="st0" d="M746.3,286.2c0-9.4,8.1-15.3,16.5-15.3c8.4,0,16.5,5.9,16.5,15.3c0,9.7-8.1,15.5-16.5,15.5
		C754.4,301.7,746.3,296,746.3,286.2 M754.4,286.3c0,9.6,4.2,13.2,8.5,13.2c4.3,0,8.5-3.6,8.5-13.2c0-9.5-4.2-13.2-8.5-13.2
		C758.5,273.2,754.4,276.9,754.4,286.3"/>
	<path class="st0" d="M817.9,273.5c-4.3,0.5-5.4,4.9-7.1,8.8l-8,18.8l-4.8,0l-8.7-21.2c-1.8-4.4-3.6-6.2-6.4-6.4l0-2l15.2,0l0,2
		c-2.5,0-3.5,1.8-1.7,6.9l5.6,15.1h0.2l6.1-15.1c2.1-5,0.9-6.9-2.3-6.9v-2l11.9,0L817.9,273.5z"/>
	<path class="st0" d="M298.7,348.8c8,4,3.8,18.9-13.6,18.9c-8.9,0-15.7-4.2-15.7-12.8c0-7.9,5.8-11.6,12.3-13
		c-4.3-1-8.4-3.9-8.4-9.1c0-5.3,5.1-9.6,12.6-9.6c7.4,0,10.8,4,10.8,7.9c0,6.8-7.4,6.1-7.4,1.7c0-2.6,1.9-3.6,3.2-3.6
		c-0.4-2.3-2.7-4.2-6.1-4.2c-4.2,0-6.7,3.1-6.7,7.4c0,3.5,1.1,6,5.3,8.5c1.7-0.3,3.2-0.7,4.4-0.7c3,0,2.8,3,0,3
		c-1.8,0-3.5-0.6-5-0.1c-4.4,1.5-7.3,5.5-7.3,11.3c0,6.5,3.7,11,10,11c10,0,11.3-11.5,7.1-16.7h-1.2v-2.9l15.8,0l0,2.9L298.7,348.8z
		"/>
	<path class="st0" d="M400.8,364.4c-1.4,2.2-4,3-6,3c-3,0-4.9-1-5.8-3.6l-0.4-0.1c-1.8,2.4-4.5,3.6-8.3,3.7
		c-6.1,0.1-9.4-2.7-9.4-7.9c0-5.3,3.7-8.4,9.6-9.1c3.4-0.4,6.5-0.3,8-0.4l0-3.7c0-4.1-1.1-7.2-6-7.2c-1.6,0-3.4,0.5-4.6,2
		c1.6,0.3,2.6,1.6,2.6,3c0,2-1.5,3.4-3.4,3.4c-2.2,0-3.8-1.5-3.8-3.8c0-4.7,5.1-7.2,10.3-7.2c7.8,0,11.6,4,11.6,9.7l0,14.5
		c0,2.1,0.9,3.1,2.6,3.1c0.9,0,1.8-0.5,2.4-1.2L400.8,364.4z M388.6,359.5l0-7.2c-1.2,0.1-3.2,0.1-5.2,0.2c-3.1,0.3-5.8,2.1-5.8,6.5
		c0,3.2,1.8,5.2,4.6,5.2C386.7,364.2,388.6,361,388.6,359.5"/>
	<path class="st0" d="M426.4,345.8c-2.4,0-4.3-2.2-2.4-5.4c-3.8-0.3-6.7,6.1-6.7,13.1l0,5.6c0,3.9,1.4,5,5.6,5.5v2.2l-17.3,0v-2
		c4-0.2,5.2-1.4,5.2-5.6l0-14.2c0-4.6-1.3-5.5-5.8-5.8v-2l12.5-0.1l-0.5,6.8h0.4c1.7-5.2,4.8-7.1,7.9-7.1
		C431.6,336.8,431.6,345.8,426.4,345.8"/>
	<path class="st0" d="M457.6,361c-1.4,3.6-4.2,6.2-8.7,6.2c-5.8,0-9.3-3.2-9.3-10.4l0-16.6l-5.2,0l0-2.7l0.6-0.1
		c6.3-0.6,7.9-5.1,9-9.7h2.4l-0.1,9.1l11,0l0,3.5l-11.1,0l0,17c0,3.6,1.1,5.9,4.6,5.9c2.7,0,3.9-1.5,5.3-3.3L457.6,361z"/>
	<path class="st0" d="M493.1,359.7c0,3.7,0.8,4.7,4.1,5l0,2l-14.4,0l0-2c2.3-0.2,3.7-0.7,3.7-5l0-12.8c0-1.2-0.1-2.4-0.5-3.4
		c-0.8-1.8-2.6-2.8-5-2.8c-3.6,0-7,2.9-7.7,7.7l0,12.2c0,3.7,1.7,4,4.1,4.2l0,2l-14.9,0l0-2c2.4-0.2,4.1-0.5,4.1-4.2l0-15.6
		c0-4.6-1.5-5.5-5-5.8v-2c4.6,0,5.4-0.1,11.8-0.2l-0.1,5l0.3,0.1c2.3-3.5,5.8-5.6,9.9-5.6c6.1,0,9.6,3.7,9.6,9.7L493.1,359.7z"/>
	<path class="st0" d="M531.7,359.7c-1.1,2.7-4.7,7.7-12.7,7.7c-8.7,0-14.8-5.6-14.8-15.3c0-8.4,4.8-15.7,14.5-15.7
		c6.8,0,12.5,4.6,12.6,13.8l-20.2,0v1.5c0,6.2,3.2,11.4,10,11.4c4.4,0,7.5-2,9.3-4.8L531.7,359.7z M511.2,347.3l13.4,0
		c0.2-4.2-1.7-8.7-6.4-8.7C514.1,338.6,511.7,342.3,511.2,347.3"/>
	<path class="st0" d="M559.7,345.7c-2.4,0-4.3-2.2-2.4-5.4c-3.8-0.3-6.7,6.1-6.7,13.1l0,5.6c0,3.9,1.4,5,5.5,5.5v2.2l-17.3,0v-2
		c4-0.2,5.2-1.4,5.2-5.6l0-14.2c0-4.6-1.3-5.5-5.8-5.8v-2l12.5-0.1l-0.5,6.8h0.4c1.7-5.2,4.8-7.1,7.9-7.1
		C564.9,336.7,564.9,345.7,559.7,345.7"/>
	<path class="st0" d="M587.5,337.5c0.8,0,1.7-0.1,1.9-1.4l2.1,0l-0.1,9.5l-2.5,0c-0.9-4.7-4.9-6.5-8.9-6.5c-3.4,0-5.4,1.8-5.4,4.6
		c0,3.1,3,4.1,7.8,5c5.6,1.1,10.7,2.8,10.7,9.2c0,6.9-5.2,9.1-10.1,9.1c-5,0-8.1-1.7-9.9-1.7c-0.7,0-1.4,0.2-1.7,1.6l-2.1,0l0.1-9.7
		h2.2c2.3,6.6,7.9,7.2,11.4,7.2c3.4,0,5.2-1.5,5.2-4.1c0-3.5-3.4-4.6-8.4-5.6c-6.5-1.3-10.2-3.3-10.2-9.1c0-5.6,4.3-9,10.2-9
		C583.7,336.7,585.6,337.5,587.5,337.5"/>
	<path class="st0" d="M540.3,296.4c-0.2-2.8-2.4-5.1-5.2-5.1c-2.8,0-5.2,2.2-5.2,5.2c0,3,2.3,5.2,5.2,5.2h0.6
		c-0.3,2.8-1.8,5.9-5.2,7.1l0.7,2.2C536.2,309.4,540.8,303.8,540.3,296.4"/>
	<path class="st0" d="M293.9,260.2c0.6,0,1.4-0.1,1.6-1.5h2l0,12.1h-2.7c-1-4.7-3.8-9.8-11.5-9.8c-5.8,0-8.1,3.4-8.1,6.8
		c0,4.3,3,6.1,9.2,8.1c7.2,2.3,15.8,3.8,15.8,14.2c0,9-7.3,12.2-14.1,12.2c-7.4,0-10-2.4-12.6-2.4c-0.8,0-1.8,0.4-2.2,1.8h-1.9
		l-0.1-12.2l2.7,0c2.1,7,7.1,9.7,14.5,9.7c4.3,0,8-1.8,8-6.8c0-5.6-5.5-6.9-11.3-8.7c-6.8-2.1-13.6-4.2-13.5-13.6
		c0.1-8.5,7.1-12.2,13.5-12.2C288.7,258.1,291.2,260.3,293.9,260.2"/>
	<path class="st0" d="M340.8,356.8c0,6.9,2,7.8,6.2,7.8l0,2.3l-20.1,0l0-2.3c4.1,0,6.4-0.9,6.4-7.8l0-22.7c0-6.9-2.4-7.7-6.4-7.7
		l0-2.3l20.2,0c11.2,0,16.9,4.9,16.9,12.1c0,7.4-5.7,12.3-18,12.3l-5.2,0L340.8,356.8z M345.8,345.8c7.4,0,10.7-3.4,10.7-9.3
		c0-5.9-3.3-9.1-10.2-9.1l-5.5,0l0,18.4L345.8,345.8z"/>
	<path class="st0" d="M588.2,279.2c6.1,1.3,9.8,4.6,9.8,10.6c0,4.2-2,9.1-8.9,10.7c-3.2,0.7-6.7,0.8-10.6,0.8l-17.9,0l0-2.3
		c4.1,0,6-0.9,6-7.2l0-23.3c0-6.3-2-7.7-6-7.7l0-2.3l18.9,0c4.6,0,7.3,0.1,9.9,0.9c3.7,1.2,6.7,4.4,6.7,9.2c0,5.3-3.7,8.5-7.9,9.7
		L588.2,279.2z M580.9,298.3c1.8-0.1,3.4-0.2,4.6-0.6c3.4-1.3,4.7-4.2,4.7-8c0-4.9-2.2-7.6-5.7-8.5c-1-0.3-2.3-0.4-4.2-0.4l-6.2,0
		l0,17.4L580.9,298.3z M579.7,277.8c2,0,3.4-0.2,4.2-0.5c3.5-1.2,4.5-4.6,4.5-7.6c0-3.6-1.4-6.1-3.8-7.3c-1.4-0.7-3.2-0.9-5.3-0.9
		l-5.3,0l0,16.3L579.7,277.8z"/>
	<path class="st0" d="M95.7,270.3c0.4,0,0.8-0.1,1-0.9h1.2v7.3h-1.6c-0.6-2.8-2.3-5.9-6.8-5.9c-3.5,0-4.9,2-4.9,4.1
		c0,2.6,1.8,3.7,5.5,4.9c4.3,1.4,9.4,2.3,9.4,8.5c0,5.4-4.4,7.3-8.4,7.3c-4.4,0-6-1.4-7.6-1.4c-0.5,0-1.1,0.2-1.3,1.1H81l-0.1-7.3
		h1.6c1.3,4.2,4.3,5.8,8.6,5.8c2.6,0,4.8-1.1,4.8-4.1c0-3.4-3.3-4.1-6.8-5.2c-4.1-1.2-8.2-2.5-8.1-8.1c0.1-5.1,4.2-7.3,8.1-7.3
		C92.6,269,94.1,270.3,95.7,270.3"/>
	<path class="st0" d="M155.2,280.9c1.2,0,2-0.1,2.5-0.3c2.1-0.7,2.7-2.8,2.7-4.6c0-2.2-0.8-3.7-2.3-4.4c-0.8-0.4-1.9-0.5-3.2-0.5
		h-3.2v9.8H155.2z M155.8,293.2c1.1,0,2-0.1,2.8-0.4c2-0.8,2.8-2.5,2.8-4.8c0-3-1.3-4.6-3.4-5.1c-0.6-0.2-1.4-0.2-2.5-0.2h-3.7
		l0,10.5H155.8z M160.2,281.7c3.6,0.8,5.9,2.8,5.9,6.4c0,2.5-1.2,5.5-5.3,6.4c-1.9,0.4-4,0.5-6.4,0.5h-10.7v-1.4
		c2.4,0,3.6-0.5,3.6-4.3v-14c0-3.8-1.2-4.6-3.6-4.6v-1.4h11.3c2.8,0,4.4,0.1,5.9,0.6c2.2,0.7,4,2.6,4,5.5c0,3.2-2.2,5.1-4.7,5.8
		V281.7z"/>
	<path class="st0" d="M97.7,348.2c4.8,2.4,2.3,11.3-8.1,11.3c-5.3,0-9.4-2.5-9.4-7.7c0-4.7,3.5-6.9,7.3-7.8c-2.6-0.6-5-2.3-5-5.5
		c0-3.2,3-5.8,7.5-5.8c4.4,0,6.5,2.4,6.5,4.8c0,4.1-4.4,3.6-4.4,1c0-1.5,1.2-2.2,1.9-2.2c-0.2-1.4-1.6-2.5-3.7-2.5
		c-2.5,0-4,1.9-4,4.4c0,2.1,0.6,3.6,3.1,5.1c1-0.2,1.9-0.4,2.6-0.4c1.8,0,1.7,1.8,0,1.8c-1.1,0-2.1-0.4-3-0.1
		c-2.6,0.9-4.3,3.3-4.3,6.8c0,3.9,2.2,6.6,6,6.6c6,0,6.8-6.9,4.3-10h-0.7v-1.7h9.5v1.7H97.7z"/>
	<path class="st0" d="M154.7,346.4c4.4,0,6.4-2,6.4-5.6c0-3.6-2-5.4-6.1-5.4h-3.3v11H154.7z M151.8,353c0,4.1,1.2,4.7,3.7,4.7v1.3
		h-12v-1.3c2.4,0,3.8-0.5,3.8-4.7v-13.6c0-4.1-1.4-4.6-3.8-4.6v-1.4h12.1c6.7,0,10.1,2.9,10.1,7.3c0,4.4-3.4,7.4-10.8,7.4h-3.1V353z
		"/>
	<polygon class="st0" points="212.1,256.6 212.1,258.2 216,258.2 216,370.1 212.1,370.1 212.1,371.8 220.4,371.8 220.4,256.6 	"/>
	<polygon class="st0" points="32.3,256.6 32.3,258.2 28.4,258.2 28.4,370.1 32.3,370.1 32.3,371.8 24,371.8 24,256.6 	"/>
</g>
</svg>
