<?xml version="1.0" encoding="utf-8"?>
<!-- Generator: Adobe Illustrator 22.1.0, SVG Export Plug-In . SVG Version: 6.00 Build 0)  -->
<svg version="1.1" id="Capa_1" xmlns="http://www.w3.org/2000/svg" xmlns:xlink="http://www.w3.org/1999/xlink" x="0px" y="0px"
	 viewBox="0 0 490.7 490.7" style="enable-background:new 0 0 490.7 490.7;" xml:space="preserve">
<style type="text/css">
	.st0{fill:#E94F35;}
</style>
<g>
	<g>
		<path class="st0" d="M479.9,74.7c0-2.8-1.1-5.5-3-7.5l-64-64c-2-2-4.7-3.1-7.5-3V0H138.7C132.8,0,128,4.8,128,10.7v181.4
			l-12.3,0.1c-2.8,0-5.5,1.2-7.5,3.2l-94.5,95.8c-2,2-3.1,4.7-3.1,7.5v127.9c0,2.9,1.2,5.6,3.2,7.6l41.8,40.9c2,2,4.7,3,7.5,3h0.1
			c2.8,0,5.5-1.2,7.5-3.2l8.2-8.4c8.6,5.6,18.7,8.6,28.9,8.5h0.6c6.7-0.1,13.4-1.4,19.6-4v8.9c0,5.9,4.8,10.7,10.7,10.7h330.7
			c5.9,0,10.7-4.8,10.7-10.7L479.9,74.7L479.9,74.7z M416,36.4L443.6,64H416V36.4z M118,330.7c-2.8,0-5.5,1.1-7.6,3.1l-22.6,22.6
			c-8.3,8.3-20.5,11.4-31.8,8.1L50,384.9c18.8,5.6,39.1,0.4,52.9-13.4l19.5-19.5h5.6v94.5c-5.6,4.6-12.5,7.2-19.8,7.3
			c-8.5,0.2-16.7-3.1-22.7-9.1c-1.9-2.1-4.7-3.2-7.6-3.1c-2.8,0-5.5,1.2-7.5,3.2l-7.5,7.6l-31-30.3V303l88.3-89.6l7.7,0V256
			c0,2.5,0.9,5,2.5,6.9l21.6,22c2,2,4.7,3.1,7.5,3.1l64.4,0v10.5c-0.1,10.5-5.2,20.4-13.8,26.5c-5.4,3.7-11.7,5.7-18.2,5.7
			L118,330.7L118,330.7z M458.7,469.3H149.3V352H192c29.4,0,53.3-23.8,53.3-53.2c0,0,0-0.1,0-0.1V288c0-11.8-9.6-21.3-21.3-21.3
			h-59.9L149.3,252V21.3h245.3V64c0,11.8,9.6,21.3,21.3,21.3h42.7L458.7,469.3L458.7,469.3z"/>
	</g>
</g>
<g>
	<g>
		<rect x="170.7" y="64" class="st0" width="21.3" height="21.3"/>
	</g>
</g>
<g>
	<g>
		<rect x="213.3" y="64" class="st0" width="21.3" height="21.3"/>
	</g>
</g>
<g>
	<g>
		<rect x="170.7" y="128" class="st0" width="245.3" height="21.3"/>
	</g>
</g>
<g>
	<g>
		<rect x="170.7" y="192" class="st0" width="245.3" height="21.3"/>
	</g>
</g>
<g>
	<g>
		<rect x="256" y="64" class="st0" width="106.7" height="21.3"/>
	</g>
</g>
<g>
	<g>
		<rect x="288" y="256" class="st0" width="85.3" height="21.3"/>
	</g>
</g>
<g>
	<g>
		<rect x="394.7" y="256" class="st0" width="21.3" height="21.3"/>
	</g>
</g>
<g>
	<g>
		<rect x="288" y="320" class="st0" width="85.3" height="21.3"/>
	</g>
</g>
<g>
	<g>
		<rect x="394.7" y="320" class="st0" width="21.3" height="21.3"/>
	</g>
</g>
<g>
	<g>
		<rect x="170.7" y="373.3" class="st0" width="245.3" height="21.3"/>
	</g>
</g>
</svg>
