<?xml version="1.0" encoding="utf-8"?><svg viewBox="0 0 153 33.06" xmlns="http://www.w3.org/2000/svg" xmlns:xlink="http://www.w3.org/1999/xlink"><style>:root>svg{display:none}:root>svg:target{display:block}</style><svg viewBox="0 0 32.01 25" id="arrow" xmlns="http://www.w3.org/2000/svg"><defs><style>.acls-1{fill:#fff}</style></defs><g id="aСлой_2" data-name="Слой 2"><path class="acls-1" d="M16.67 2.84l7.64 7.65H0v4.02h24.31l-7.64 7.65L19.51 25l12.5-12.5L19.51 0l-2.84 2.84z" id="aLayer_1" data-name="Layer 1"/></g></svg><svg viewBox="0 0 30 25.9" id="download" xmlns="http://www.w3.org/2000/svg"><defs><style>.bcls-1{fill:#fff}</style></defs><g id="bСлой_2" data-name="Слой 2"><g id="bLayer_1" data-name="Layer 1"><path class="bcls-1" d="M27.66 14.24v8.14a1.17 1.17 0 0 1-1.18 1.17h-23a1.17 1.17 0 0 1-1.18-1.17v-8.14H0v8.14a3.53 3.53 0 0 0 3.52 3.52h23A3.53 3.53 0 0 0 30 22.38v-8.14z"/><path class="bcls-1" d="M20.63 9.71l-4.46 4.45V0h-2.34v14.16L9.38 9.71l-1.66 1.66L15 18.65l7.28-7.28-1.65-1.66z"/></g></g></svg><svg viewBox="0 0 153 33.06" id="universarium" xmlns="http://www.w3.org/2000/svg"><defs><style>.ccls-1{fill:#fff}</style></defs><g id="cСлой_2" data-name="Слой 2"><g id="clogo_1_color"><path class="ccls-1" d="M44.81.32v9.26L51.2.32h1.36l-9 12.9h-1.32l1.5-2.16V.32zM53.45.32h1.07v4.73h5.62V.32h1.07v10.74h-1.07V6h-5.62v5h-1.07zM64.43.32v9.22L70.82.32H72v10.74h-1.12V1.85l-6.39 9.21h-1.13V.32zM74.1.32h2.69c1.11 0 3.55.13 3.55 2.83a2.46 2.46 0 0 1-1.29 2.15A2.69 2.69 0 0 1 80.92 8c0 .84-.36 3-3.87 3h-3zm2.69 4.6c.9 0 2.48-.16 2.48-1.81s-1.7-1.81-2.48-1.81h-1.61v3.62zm.26 5.17c1 0 2.78-.17 2.78-2.05S78.11 5.9 77.05 5.9h-1.87v4.19zM82.43.32h5.89v1h-4.81v3.85h4.65v1h-4.65v4h4.81v1h-5.89zM90.21.32h3.4c3.15 0 3.7 2 3.7 3.23 0 1.59-1 3.2-3.7 3.2h-2.32v4.31h-1.08zm1.08 5.46h2.33c1.92 0 2.61-1.12 2.61-2.23s-.69-2.25-2.61-2.25h-2.33zM111.38.32v10.74h-1.08V6.9h-3.55l-2.34 3.34a4.52 4.52 0 0 0 3.42-2.59h1.22a5.67 5.67 0 0 1-5.13 3.6 5.52 5.52 0 0 1-5.66-5.59 5.67 5.67 0 0 1 9.62-3.91l-.65.87a4.53 4.53 0 0 0-7.9 3 4.55 4.55 0 0 0 3.82 4.58L110 .32zm-1.08 5.61V1.72l-2.86 4.21zM113.61.32H117c3.15 0 3.7 2 3.7 3.23 0 1.59-1 3.2-3.7 3.2h-2.32v4.31h-1.07zm1.07 5.46H117c1.91 0 2.61-1.12 2.61-2.23S118.93 1.3 117 1.3h-2.34zM123.27.32v9.22l6.39-9.22h1.13v10.74h-1.07V1.85l-6.39 9.21h-1.13V.32zM133.93.32v9.26l6.39-9.26h1.36l-9 12.9h-1.37l1.5-2.16V.32zM144.12.32h1.36v8.86l6.16-8.86H153v10.74h-1.07V1.72l-6.42 9.34h-1.07V1.72L138 11.06h-1.28zM0 27.84v5.22h11.22V22.14h10.92V11.23h10.92V0H0zM32.75.53V10.7l-5.08-5.09zm-.22 10.39H22.36l5.09-5.09zM22.24.73l.89.89-.89.88zm0 2.13l1.07-1.07L24.48 3l-2.24 2.21zm0 2.7l2.42-2.42 1.18 1.18-3.6 3.59zm0 2.7L26 4.5l1.17 1.16-4.93 4.94zm-10.8 13.57l5.09-5.08 5.09 5.08zm10.39-.21l-5.08-5.09 5.08-5.09zm.11-10.82l-1.12-1.11 1.12-1.12zm0-2.58l-1.29 1.29-1.18-1.18.43-.43 2-2zm0-2.7l-2 2-.61.61L18.12 7l1.78-1.8 2-2zm0-2.71l-2 2-2 2-1.17-1.18 3.13-3.14 2-2zm-.32-2.5l-5.09 5.08L11.44.31zM11.23 11.44l1 1-1 1zm0 2.43l1.21-1.21 1.18 1.18-2.39 2.39zm0 2.71L13.79 14 15 15.19l-3.74 3.74zm0 2.7l3.91-3.92 1.17 1.17-5.08 5.09zM.53 32.75l5.08-5.08 5.09 5.08zM3 22.14h2.31l-2.39 2.39-1.18-1.17zm-1.39 1l-1-1h2zm4.09-1H8l-3.73 3.75-1.18-1.18zm4.07-1.71l-1.22-1.18 2.37-2.36v2.35zm1.19-.84v2l-1-1zm-2.54-.51L7.2 17.9l3.72-3.72v2.35zM7 17.72l-1.17-1.19 5.09-5.09v2.39zm2.78-8.16L8.6 8.39l2.32-2.32v2.35zm1.14-.78v1.92l-1-1zm-2.49-.57L7.25 7l3.67-3.66v2.38zm2.27 2.71H.53l5.08-5.09zm0 .31l-5.09 5.08-5.08-5.08zM8.36 22.14h2.34l-5.09 5.09-1.16-1.17zm2.56 10.39l-5.09-5.08 5.09-5.09zm0-29.53L7.08 6.86 5.81 5.59l5.11-5.1zM10.66.31L5.58 5.39l-1-1 4-4zm-2.44 0L4.35 4.17 3.18 3 5.87.31zm-2.71 0L3 2.82 1.83 1.64 3.16.31zm-2.7 0L1.65 1.47.49.31zM.31.56l5.07 5.07L.31 10.7zm0 10.88l5.08 5.09-5.08 5.09zm5.08 16L.31 32.53V22.36z"/></g></g></svg></svg>