<svg xmlns="http://www.w3.org/2000/svg" viewBox="0 0 396 512"><defs><style>.cls-1{fill:#fff;}</style></defs><g id="Слой_2" data-name="Слой 2"><g id="Layer_1" data-name="Layer 1"><path class="cls-1" d="M396,83.51,312.49,0H64V272.27A69.94,69.94,0,0,0,24,394.7V512H40.49L70,482.48,99.51,512H116V460H396Zm-80-63L375.52,80H316ZM12,342a58,58,0,1,1,58,58A58.07,58.07,0,0,1,12,342ZM70,465.52l-34,34V403.16a69.8,69.8,0,0,0,68,0v96.36ZM116,448V394.7A69.94,69.94,0,0,0,76,272.27V12H304V92h80V448Z"/><path class="cls-1" d="M118,64h96V76H118Z"/><path class="cls-1" d="M118,96h64v12H118Z"/><path class="cls-1" d="M118,144H342v12H118Z"/><path class="cls-1" d="M118,176H342v12H118Z"/><path class="cls-1" d="M118,240H342v12H118Z"/><path class="cls-1" d="M150,272H310v12H150Z"/><path class="cls-1" d="M118,208H342v12H118Z"/><path class="cls-1" d="M246,320h96v12H246Z"/><path class="cls-1" d="M278,352h64v12H278Z"/><path class="cls-1" d="M70,380a38,38,0,1,0-38-38A38,38,0,0,0,70,380Zm0-64a26,26,0,1,1-26,26A26,26,0,0,1,70,316Z"/></g></g></svg>