<?xml version="1.0" encoding="iso-8859-1"?>
<!-- Generator: Adobe Illustrator 22.1.0, SVG Export Plug-In . SVG Version: 6.00 Build 0)  -->
<svg version="1.1" id="Layer_1" xmlns="http://www.w3.org/2000/svg" xmlns:xlink="http://www.w3.org/1999/xlink" x="0px" y="0px"
	 viewBox="0 0 600 600" style="enable-background:new 0 0 600 600;" xml:space="preserve">
<g>
	<path style="fill:#E94F35;" d="M502.002,409.511c16.91,0,30.667-13.758,30.667-30.667V238.65c0-16.91-13.758-30.667-30.667-30.667
		H309.917v-3.602c0-4.73-1.674-9.073-4.454-12.478c2.063-2.524,3.502-5.548,4.118-8.825c7.816-4.608,12.798-13.048,12.798-22.312
		c0-4.375-1.126-8.652-3.238-12.462c2.111-3.81,3.238-8.085,3.238-12.462c0-9.227-4.943-17.591-12.608-22.202
		c0.097-0.903,0.146-1.811,0.146-2.721c0-13.124-9.777-24.008-22.43-25.751c-4.62-7.763-13.029-12.705-22.258-12.705
		c-1.185,0-2.381,0.092-3.581,0.274c-5.154-4.174-11.593-6.504-18.227-6.504c-0.886,0-1.774,0.045-2.674,0.134
		C235.206,62.238,228.536,60,221.615,60c-6.921,0-13.591,2.238-19.134,6.365c-0.901-0.09-1.788-0.134-2.674-0.134
		c-6.651,0-12.987,2.238-18.133,6.358c-8.207,0.819-15.512,5.538-19.701,12.579c-12.653,1.742-22.43,12.626-22.43,25.75
		c0,0.91,0.049,1.818,0.146,2.721c-7.664,4.611-12.608,12.976-12.608,22.202c0,4.376,1.126,8.652,3.238,12.462
		c-2.112,3.81-3.238,8.086-3.238,12.462c0,9.264,4.982,17.704,12.799,22.312c0.344,1.829,0.951,3.576,1.773,5.205
		c-5.038,3.586-8.341,9.458-8.341,16.099v12.462c0,10.897,8.865,19.763,19.763,19.763h3.245l0.531,3.317
		c1.231,7.693,5.205,14.677,11.19,19.665l2.656,2.213v20.608c0,2.279-1.464,4.261-3.643,4.931l-54.61,16.804
		c-13.606,4.187-22.747,16.564-22.747,30.8v90.632c0,9.005,3.12,17.292,8.325,23.852h-16.6c-8.321,0-15.09,6.769-15.09,15.09v59.989
		c0,8.321,6.769,15.09,15.09,15.09h436.159c8.321,0,15.09-6.769,15.09-15.09v-59.989c0-8.321-6.769-15.09-15.09-15.09h-79.282
		l-5.323-39.916H502.002z M518.066,238.65v140.194c0,8.858-7.206,16.064-16.064,16.064h-70.097c-0.295,0-0.583,0.022-0.869,0.056
		l-5.668-42.51c-1.509-11.319-11.258-19.855-22.677-19.855h-35.032c-11.419,0-21.169,8.536-22.678,19.855l-5.668,42.51
		c-0.285-0.034-0.574-0.056-0.869-0.056h-70.097c-8.858,0-16.064-7.206-16.064-16.064V238.65c0-8.858,7.206-16.064,16.064-16.064
		h233.656C510.86,222.586,518.066,229.792,518.066,238.65z M314.566,449.427c0.011-0.162,0.024-0.322,0.024-0.487v-39.43h22.781
		l-5.323,39.916H314.566z M291.488,207.982l1.284-8.023c1.514,0.901,2.541,2.535,2.541,4.421v3.602H291.488z M144.659,143.415
		c-1.357-1.506-2.974-4.043-2.974-7.574c0-5.088,3.469-9.58,8.436-10.924c2.013-0.545,3.698-1.925,4.627-3.792
		c0.931-1.866,1.018-4.042,0.241-5.978c-0.56-1.391-0.843-2.815-0.843-4.229c0-6.192,4.966-11.246,11.125-11.388
		c0.311,0.042,0.623,0.077,0.94,0.095c3.27,0.188,6.255-1.801,7.33-4.886c1.573-4.515,5.754-7.572,10.451-7.672
		c0.141,0.01,0.283,0.017,0.426,0.019c1.973,0.023,3.845-0.718,5.242-2.088c2.738-2.685,6.341-4.164,10.145-4.164
		c0.984,0,2.028,0.128,3.19,0.388c2.36,0.531,4.835-0.142,6.601-1.8c3.311-3.107,7.578-4.818,12.018-4.818s8.707,1.712,12.017,4.819
		c1.765,1.658,4.239,2.332,6.601,1.8c1.162-0.262,2.206-0.388,3.19-0.388c4.077,0,7.875,1.711,10.692,4.815
		c1.951,2.151,4.991,2.94,7.741,2.013c1.194-0.402,2.298-0.598,3.375-0.598c4.793,0,9.088,3.084,10.688,7.674
		c1.075,3.085,4.063,5.081,7.33,4.886c0.298-0.018,0.591-0.05,0.939-0.095c6.159,0.141,11.126,5.196,11.126,11.388
		c0,1.415-0.283,2.838-0.842,4.228c-0.778,1.935-0.69,4.111,0.24,5.979s2.615,3.247,4.628,3.792
		c4.966,1.344,8.435,5.837,8.435,10.924c0,3.531-1.618,6.068-2.974,7.574c-2.502,2.778-2.502,6.997,0,9.775
		c1.357,1.506,2.974,4.043,2.974,7.574c0,4.793-3.084,9.088-7.675,10.687c-3.164,1.103-5.173,4.218-4.869,7.556
		c0.02,0.224,0.048,0.446,0.078,0.668c-0.096,2.217-1.648,4.14-3.841,4.723c-0.234,0.062-7.217,0.219-7.217,0.219l-4.199-25.193
		c-0.621-3.726-3.99-6.363-7.748-6.081c-0.339,0.025-0.671,0.066-1.004,0.112l-0.043,0.006c-3.741-0.066-7.202-1.968-9.29-5.115
		c-1.353-2.04-3.637-3.266-6.085-3.266l0,0c-2.448,0-4.733,1.227-6.085,3.265c-2.125,3.204-5.673,5.117-9.492,5.117
		c-3.819,0-7.367-1.913-9.492-5.117c-1.353-2.04-3.637-3.266-6.085-3.266l0,0c-2.448,0-4.732,1.227-6.085,3.265
		c-2.125,3.204-5.673,5.117-9.492,5.117c-3.819,0-7.367-1.913-9.492-5.117c-1.353-2.04-3.637-3.266-6.085-3.266l0,0
		c-2.448,0-4.733,1.227-6.085,3.265c-2.087,3.148-5.548,5.049-9.29,5.115l-0.043-0.006c-0.332-0.046-0.666-0.087-1.005-0.112
		c-3.757-0.287-7.126,2.355-7.747,6.081l-4.198,25.196c0,0-6.982-0.157-7.216-0.219c-2.193-0.583-3.746-2.508-3.841-4.725
		c0.029-0.221,0.056-0.442,0.077-0.666c0.304-3.337-1.705-6.453-4.869-7.556c-4.59-1.6-7.675-5.894-7.675-10.687
		c0-3.531,1.618-6.068,2.974-7.574C147.161,150.412,147.161,146.193,144.659,143.415z M153.075,222.002
		c-2.845,0-5.16-2.314-5.16-5.16V204.38c0-1.886,1.027-3.52,2.541-4.421l3.527,22.043H153.075z M165.127,199.22h0.988
		c6.642,0,12.255-4.756,13.349-11.308l3.383-20.301c3.909-0.74,7.572-2.367,10.729-4.736c4.433,3.329,9.87,5.191,15.577,5.191
		c5.706,0,11.143-1.862,15.577-5.191c4.433,3.329,9.87,5.191,15.577,5.191c5.706,0,11.143-1.862,15.577-5.191
		c3.155,2.37,6.819,3.996,10.729,4.736l3.383,20.302c0.797,4.782,4.008,8.597,8.265,10.314l-1.561,9.755h-8.354
		c-16.91,0-30.667,13.757-30.667,30.667v32.407c-1.314,0.513-2.719,0.792-4.139,0.792H209.69c-2.66,0-5.249-0.938-7.292-2.64
		l-25.008-20.84c-3.273-2.728-5.446-6.546-6.119-10.753L165.127,199.22z M171.349,301.298c8.345-2.567,13.952-10.159,13.952-18.889
		v-8.438l7.748,6.457c4.662,3.886,10.572,6.025,16.641,6.025h23.849c1.389,0,2.774-0.119,4.139-0.341v46.983
		c-4.285,0.7-8.64,1.062-13.012,1.062c-24.358,0-47.329-11.144-62.453-30.048L171.349,301.298z M104.3,425.575v-90.632
		c0-7.785,4.999-14.553,12.439-16.843l30.646-9.429c17.72,25.11,46.568,40.089,77.282,40.089c4.362,0,8.711-0.307,13.012-0.9v30.984
		c0,16.91,13.757,30.667,30.667,30.667h31.641v39.43c0,0.165,0.014,0.325,0.024,0.487H260.07v-8.275
		c0-16.91-13.757-30.667-30.667-30.667h-77.885c-0.269,0-0.487-0.218-0.487-0.487v-46.731c0-4.033-3.269-7.302-7.302-7.302
		s-7.302,3.269-7.302,7.302v46.731c0,8.321,6.769,15.09,15.09,15.09h47.218v24.339h-70.584C115,449.427,104.3,438.727,104.3,425.575
		z M213.339,449.427v-24.339h16.064c8.858,0,16.064,7.206,16.064,16.064v8.275H213.339z M518.066,464.518v59.989
		c0,0.269-0.218,0.487-0.487,0.487H81.421c-0.269,0-0.487-0.218-0.487-0.487v-59.989c0-0.269,0.218-0.487,0.487-0.487h436.159
		C517.848,464.031,518.066,464.249,518.066,464.518z M346.782,449.427l12.672-95.043c0.546-4.095,4.072-7.182,8.203-7.182h35.032
		c4.131,0,7.657,3.087,8.203,7.182l12.673,95.043H346.782z"/>
	<path style="fill:#E94F35;" d="M385.174,316.048c12.616,0,22.879-10.263,22.879-22.879s-10.263-22.879-22.879-22.879
		s-22.879,10.263-22.879,22.879C362.295,305.785,372.559,316.048,385.174,316.048z M385.174,284.894
		c4.563,0,8.275,3.712,8.275,8.275c0,4.563-3.712,8.275-8.275,8.275c-4.563,0-8.275-3.712-8.275-8.275
		C376.899,288.607,380.611,284.894,385.174,284.894z"/>
</g>
<g>
</g>
<g>
</g>
<g>
</g>
<g>
</g>
<g>
</g>
<g>
</g>
<g>
</g>
<g>
</g>
<g>
</g>
<g>
</g>
<g>
</g>
<g>
</g>
<g>
</g>
<g>
</g>
<g>
</g>
</svg>
