<?xml version="1.0" encoding="iso-8859-1"?>
<!-- Generator: Adobe Illustrator 22.1.0, SVG Export Plug-In . SVG Version: 6.00 Build 0)  -->
<svg version="1.1" id="Layer_1" xmlns="http://www.w3.org/2000/svg" xmlns:xlink="http://www.w3.org/1999/xlink" x="0px" y="0px"
	 viewBox="0 0 600 600" style="enable-background:new 0 0 600 600;" xml:space="preserve">
<g>
	<g>
		<g>
			<path style="fill:#E94F35;" d="M501.21,172.865l-10.312-3.2c-2.578-0.64-5.156-1.28-8.378-1.28
				c-11.601,0-21.913,7.678-25.781,18.557l-5.8,17.277V191.42v-0.639c0-1.92-1.289-3.84-2.578-5.12L342.661,83.92
				c-1.289-1.28-3.223-1.92-4.512-1.92H131.263c-3.867,0-6.445,2.56-6.445,6.399v19.836H86.817c-3.867,0-6.445,2.56-6.445,6.399
				v397.449c0,3.84,2.578,6.399,6.445,6.399h327.384c3.867,0,6.445-2.56,6.445-6.399v-33.991h23.847c3.867,0,6.445-2.56,6.445-6.399
				v-86.385l18.046-24.316l0.645-1.92l48.338-152.934C523.123,192.061,515.389,177.343,501.21,172.865z M344.594,103.756
				l84.43,80.627h-84.43V103.756z M407.757,505.684H93.262V121.033h31.556v350.66c0,3.84,2.578,6.399,6.445,6.399h276.494
				L407.757,505.684L407.757,505.684z M438.693,465.294h-0.645H137.708V94.798h193.996v95.983c0,3.84,2.578,6.399,6.445,6.399
				h100.543v47.992L408.4,339.876v1.92l1.289,81.266c0,2.56,1.934,5.12,4.512,5.759c2.578,0.64,5.8,0,7.089-2.56l17.401-23.036
				L438.693,465.294L438.693,465.294z M421.935,403.225l-1.289-53.111l32.225,10.238L421.935,403.225z M506.366,202.299
				l-46.405,146.535l-37.382-12.158l46.405-145.895c2.578-7.038,10.312-11.518,17.401-8.958l10.312,3.2
				C504.433,186.942,508.944,195.261,506.366,202.299z"/>
			<path style="fill:#E94F35;" d="M181.534,197.18h92.809c3.867,0,6.445-2.56,6.445-6.399v-65.269c0-3.84-2.578-6.399-6.445-6.399
				h-92.809c-3.867,0-6.445,2.56-6.445,6.399v65.269C175.089,193.981,178.312,197.18,181.534,197.18z M187.98,131.911h79.919v52.471
				H187.98V131.911z"/>
			<path style="fill:#E94F35;" d="M168.645,257.33h195.93c3.867,0,6.445-2.56,6.445-6.399c0-3.84-2.578-6.399-6.445-6.399h-195.93
				c-3.867,0-6.445,2.56-6.445,6.399C162.199,254.77,164.777,257.33,168.645,257.33z"/>
			<path style="fill:#E94F35;" d="M168.645,304.042h195.93c3.867,0,6.445-2.56,6.445-6.399c0-3.839-2.578-6.399-6.445-6.399h-195.93
				c-3.867,0-6.445,2.56-6.445,6.399C162.2,301.483,164.777,304.042,168.645,304.042z"/>
			<path style="fill:#E94F35;" d="M168.645,350.754h195.93c3.867,0,6.445-2.56,6.445-6.399c0-3.839-2.578-6.399-6.445-6.399h-195.93
				c-3.867,0-6.445,2.56-6.445,6.399C162.2,348.194,164.777,350.754,168.645,350.754z"/>
			<path style="fill:#E94F35;" d="M370.375,391.067c0-3.84-2.578-6.399-6.445-6.399H168.645c-3.867,0-6.445,2.56-6.445,6.399
				c0,3.839,2.578,6.399,6.445,6.399h195.93C367.797,397.466,370.375,394.266,370.375,391.067z"/>
			<path style="fill:#E94F35;" d="M391.644,431.38h-97.32c-3.867,0-6.445,2.56-6.445,6.399c0,3.839,2.578,6.399,6.445,6.399h96.676
				c3.867,0,6.445-2.56,6.445-6.399C397.444,433.94,394.866,431.38,391.644,431.38z"/>
		</g>
	</g>
</g>
<g>
</g>
<g>
</g>
<g>
</g>
<g>
</g>
<g>
</g>
<g>
</g>
<g>
</g>
<g>
</g>
<g>
</g>
<g>
</g>
<g>
</g>
<g>
</g>
<g>
</g>
<g>
</g>
<g>
</g>
</svg>
