<?xml version="1.0" encoding="utf-8"?>
<!-- Generator: Adobe Illustrator 22.1.0, SVG Export Plug-In . SVG Version: 6.00 Build 0)  -->
<svg version="1.1" id="Layer_1" xmlns="http://www.w3.org/2000/svg" xmlns:xlink="http://www.w3.org/1999/xlink" x="0px" y="0px"
	 viewBox="0 0 841.9 595.3" style="enable-background:new 0 0 841.9 595.3;" xml:space="preserve">
<style type="text/css">
	.st0{fill-rule:evenodd;clip-rule:evenodd;fill:#E73137;}
	.st1{fill-rule:evenodd;clip-rule:evenodd;fill:#0072BB;}
	.st2{fill-rule:evenodd;clip-rule:evenodd;fill:#FFFFFF;}
</style>
<g>
	<polygon class="st0" points="354.4,227.4 301.1,227.4 233.4,428 286.7,428 354.4,227.4 	"/>
	<path class="st1" d="M265.2,172.3l-49.1,0l-66.4,196.6l49.1,0L265.2,172.3L265.2,172.3z M311.7,198.9l-51.2-0.1l9.4-27.9l0.9-2.6
		l-2.8,0l-53.3-0.1l-1.4,0l-0.5,1.4L145,370.2l-0.9,2.6l2.8,0l52.7,0.1l-8.9,26.5l53.3,0.1L311.7,198.9L311.7,198.9z"/>
	<polygon class="st2" points="139.4,267.1 385.2,267.1 363.9,330.9 118.1,330.9 139.4,267.1 	"/>
	<polygon class="st1" points="262.2,270.9 319.4,270.9 300.5,327.1 243.4,327.1 262.2,270.9 	"/>
	<polygon class="st1" points="201.9,270.9 259,270.9 240.2,327.1 183.1,327.1 201.9,270.9 	"/>
	<polygon class="st1" points="142.1,270.9 199.3,270.9 180.5,327.1 123.3,327.1 142.1,270.9 	"/>
	<path class="st2" d="M251.4,275.8l-2.9,8.1c-21.6-0.7-33.1,0.9-37,14.6c-4.4,14.5,9.1,15.8,27.3,15.5l-3.1,8.5
		c-29.9,0.9-46.3-1.4-38.7-24.2C205.5,273.4,221.9,275.8,251.4,275.8L251.4,275.8z"/>
	<polygon class="st1" points="322.8,270.9 380,270.9 361.2,327.1 304,327.1 322.8,270.9 	"/>
	<polygon class="st2" points="265.9,275.8 249.4,322.6 265.2,322.6 278.1,284 294.1,284.1 280.8,322.6 296.7,322.6 312.6,275.8 
		265.9,275.8 	"/>
	<polygon class="st2" points="326.5,275.8 309.9,322.6 325.8,322.6 338.6,283.9 354.7,284 341.4,322.6 357.2,322.6 373.1,275.8 
		326.5,275.8 	"/>
	<path class="st2" d="M146.5,275.8l-16.2,46.8l15.4,0l5-14.7c23.3,0,33.4-0.4,35.5-16c1.6-12-4.7-16.5-24.4-16.2L146.5,275.8
		L146.5,275.8z M153.9,298.7l5.2-15.1c7.9-0.3,12,1.3,12.5,6.3C171.4,297.6,165.1,299.1,153.9,298.7L153.9,298.7z"/>
</g>
<g>
	<path d="M437,247.3c-1.5-1.5-2.4-3.7-2.4-6.7c0-0.7,0-1.6,0-2.8s0-2.1,0-2.7c0.1-3,0.9-5.2,2.5-6.7c1.6-1.5,3.7-2.3,6.5-2.3
		s4.9,0.8,6.4,2.3c1.6,1.5,2.4,3.8,2.5,6.7c0,1.3,0.1,2.2,0.1,2.7c0,0.5,0,1.5-0.1,2.8c-0.1,3-0.9,5.2-2.4,6.7
		c-1.5,1.5-3.7,2.2-6.5,2.2S438.5,248.8,437,247.3z M447.7,245.3c1-1.1,1.6-2.7,1.7-4.8c0-1.3,0.1-2.2,0.1-2.6c0-0.5,0-1.3-0.1-2.6
		c-0.1-2.2-0.7-3.8-1.7-4.8c-1-1.1-2.4-1.6-4.2-1.6s-3.1,0.5-4.2,1.6c-1.1,1.1-1.6,2.7-1.7,4.8c0,0.6,0,1.5,0,2.6c0,1.1,0,2,0,2.6
		c0.1,2.2,0.6,3.8,1.7,4.8c1,1.1,2.4,1.6,4.2,1.6C445.2,246.9,446.6,246.3,447.7,245.3z"/>
	<path d="M457.5,249c-0.1-0.1-0.2-0.3-0.2-0.5v-21.3c0-0.2,0.1-0.4,0.2-0.6c0.1-0.1,0.3-0.2,0.5-0.2h14.1c0.2,0,0.4,0.1,0.6,0.2
		c0.1,0.1,0.2,0.3,0.2,0.6v1.2c0,0.2-0.1,0.4-0.2,0.6c-0.1,0.1-0.3,0.2-0.6,0.2h-11.7v6.7h6.5c2.3,0,4,0.6,5.3,1.8
		c1.3,1.2,1.9,2.8,1.9,4.8c0,1.1-0.3,2.2-0.8,3.2c-0.5,1-1.4,1.9-2.4,2.5c-1.1,0.7-2.4,1-4,1H458C457.8,249.2,457.6,249.2,457.5,249
		z M466.5,246.7c1.4,0,2.5-0.4,3.3-1.2c0.8-0.8,1.2-1.8,1.2-3c0-1.2-0.4-2.2-1.1-2.9s-1.9-1.1-3.3-1.1h-6.1v8.3H466.5z"/>
	<path d="M482.2,249c-0.1-0.1-0.2-0.3-0.2-0.5v-19.4h-5.2c-0.2,0-0.4-0.1-0.5-0.2c-0.1-0.1-0.2-0.3-0.2-0.5v-1.2
		c0-0.2,0.1-0.4,0.2-0.6c0.1-0.1,0.3-0.2,0.5-0.2h7.5c0.2,0,0.4,0.1,0.6,0.2c0.1,0.1,0.2,0.3,0.2,0.6v7.9h4.8c2.4,0,4.2,0.6,5.4,1.8
		c1.3,1.2,1.9,2.9,1.9,5.2c0,1.3-0.3,2.4-0.8,3.5s-1.4,2-2.5,2.6c-1.1,0.7-2.5,1-4.1,1h-7.1C482.5,249.2,482.3,249.2,482.2,249z
		 M489.5,246.6c1.4,0,2.5-0.4,3.3-1.2c0.8-0.8,1.2-1.9,1.2-3.3c0-2.8-1.5-4.3-4.5-4.3H485v8.8H489.5z"/>
	<path d="M501.4,249c-0.1-0.1-0.2-0.3-0.2-0.5v-21.3c0-0.2,0.1-0.4,0.2-0.6c0.1-0.1,0.3-0.2,0.5-0.2h13.4c0.2,0,0.4,0.1,0.6,0.2
		s0.2,0.3,0.2,0.6v1.2c0,0.2-0.1,0.4-0.2,0.5s-0.3,0.2-0.6,0.2h-11.1v7.3h10.4c0.2,0,0.4,0.1,0.6,0.2c0.1,0.1,0.2,0.3,0.2,0.6v1.1
		c0,0.2-0.1,0.4-0.2,0.5c-0.1,0.1-0.3,0.2-0.6,0.2h-10.4v7.5h11.4c0.2,0,0.4,0.1,0.6,0.2c0.1,0.1,0.2,0.3,0.2,0.6v1.2
		c0,0.2-0.1,0.4-0.2,0.5c-0.2,0.1-0.3,0.2-0.6,0.2H502C501.7,249.2,501.6,249.2,501.4,249z"/>
	<path d="M519,253.6c-0.1-0.1-0.2-0.3-0.2-0.5v-5.9c0-0.2,0.1-0.4,0.2-0.5c0.1-0.1,0.3-0.2,0.5-0.2h0.7c1,0,1.8-1,2.4-3
		c0.5-2,0.8-5,0.8-9.2v-7c0-0.2,0.1-0.4,0.2-0.5c0.1-0.1,0.3-0.2,0.5-0.2h12.6c0.2,0,0.4,0.1,0.6,0.2c0.1,0.1,0.2,0.3,0.2,0.6v19.2
		h1.6c0.2,0,0.4,0.1,0.6,0.2c0.1,0.1,0.2,0.3,0.2,0.5v5.9c0,0.2-0.1,0.4-0.2,0.6c-0.1,0.1-0.3,0.2-0.6,0.2h-1.5
		c-0.2,0-0.4-0.1-0.5-0.2c-0.1-0.1-0.2-0.3-0.2-0.6v-3.8h-14.9v3.8c0,0.2-0.1,0.4-0.2,0.5c-0.1,0.1-0.3,0.2-0.6,0.2h-1.6
		C519.3,253.8,519.1,253.7,519,253.6z M534.4,246.4v-17.1h-8v5.3c0,3.1-0.2,5.5-0.5,7.5c-0.4,1.9-0.9,3.4-1.6,4.3H534.4z"/>
	<path d="M544,249c-0.1-0.1-0.2-0.3-0.2-0.6v-21.2c0-0.2,0.1-0.4,0.2-0.6c0.1-0.1,0.3-0.2,0.6-0.2h1.6c0.2,0,0.4,0.1,0.5,0.2
		c0.1,0.1,0.2,0.3,0.2,0.6v17l12.3-17.3c0.2-0.3,0.4-0.5,0.8-0.5h1.5c0.2,0,0.4,0.1,0.5,0.2c0.1,0.1,0.2,0.3,0.2,0.6v21.3
		c0,0.2-0.1,0.4-0.2,0.5c-0.1,0.1-0.3,0.2-0.5,0.2h-1.6c-0.2,0-0.4-0.1-0.6-0.2c-0.2-0.1-0.2-0.3-0.2-0.5v-16.9l-12.2,17.2
		c-0.2,0.3-0.4,0.5-0.8,0.5h-1.6C544.3,249.2,544.1,249.2,544,249z"/>
	<path d="M568.1,249c-0.1-0.1-0.2-0.3-0.2-0.5v-21.3c0-0.2,0.1-0.4,0.2-0.6c0.1-0.1,0.3-0.2,0.5-0.2h1.6c0.2,0,0.4,0.1,0.6,0.2
		c0.1,0.1,0.2,0.3,0.2,0.6v9h11.3v-9c0-0.2,0.1-0.4,0.2-0.6c0.1-0.1,0.3-0.2,0.5-0.2h1.6c0.2,0,0.4,0.1,0.6,0.2
		c0.1,0.1,0.2,0.3,0.2,0.6v21.3c0,0.2-0.1,0.4-0.2,0.5c-0.2,0.1-0.3,0.2-0.6,0.2H583c-0.2,0-0.4-0.1-0.5-0.2
		c-0.1-0.1-0.2-0.3-0.2-0.5v-9.4h-11.3v9.4c0,0.2-0.1,0.4-0.2,0.5c-0.2,0.1-0.3,0.2-0.6,0.2h-1.6C568.4,249.2,568.2,249.2,568.1,249
		z"/>
	<path d="M591.2,249c-0.1-0.1-0.2-0.3-0.2-0.5v-21.3c0-0.2,0.1-0.4,0.2-0.6c0.1-0.1,0.3-0.2,0.5-0.2h13.4c0.2,0,0.4,0.1,0.6,0.2
		s0.2,0.3,0.2,0.6v1.2c0,0.2-0.1,0.4-0.2,0.5s-0.3,0.2-0.6,0.2H594v7.3h10.4c0.2,0,0.4,0.1,0.6,0.2c0.1,0.1,0.2,0.3,0.2,0.6v1.1
		c0,0.2-0.1,0.4-0.2,0.5c-0.1,0.1-0.3,0.2-0.6,0.2H594v7.5h11.4c0.2,0,0.4,0.1,0.6,0.2c0.1,0.1,0.2,0.3,0.2,0.6v1.2
		c0,0.2-0.1,0.4-0.2,0.5c-0.2,0.1-0.3,0.2-0.6,0.2h-13.6C591.5,249.2,591.4,249.2,591.2,249z"/>
	<path d="M610.9,249c-0.1-0.1-0.2-0.3-0.2-0.5v-21.3c0-0.2,0.1-0.4,0.2-0.6c0.1-0.1,0.3-0.2,0.5-0.2h1.6c0.2,0,0.4,0.1,0.6,0.2
		c0.1,0.1,0.2,0.3,0.2,0.6v9h11.3v-9c0-0.2,0.1-0.4,0.2-0.6c0.1-0.1,0.3-0.2,0.5-0.2h1.6c0.2,0,0.4,0.1,0.6,0.2
		c0.1,0.1,0.2,0.3,0.2,0.6v21.3c0,0.2-0.1,0.4-0.2,0.5c-0.2,0.1-0.3,0.2-0.6,0.2h-1.6c-0.2,0-0.4-0.1-0.5-0.2
		c-0.1-0.1-0.2-0.3-0.2-0.5v-9.4h-11.3v9.4c0,0.2-0.1,0.4-0.2,0.5c-0.2,0.1-0.3,0.2-0.6,0.2h-1.6C611.2,249.2,611,249.2,610.9,249z"
		/>
	<path d="M634.1,249c-0.1-0.1-0.2-0.3-0.2-0.5v-21.3c0-0.2,0.1-0.4,0.2-0.6c0.1-0.1,0.3-0.2,0.5-0.2h1.6c0.2,0,0.4,0.1,0.6,0.2
		c0.1,0.1,0.2,0.3,0.2,0.6v9h11.3v-9c0-0.2,0.1-0.4,0.2-0.6c0.1-0.1,0.3-0.2,0.5-0.2h1.6c0.2,0,0.4,0.1,0.6,0.2
		c0.1,0.1,0.2,0.3,0.2,0.6v21.3c0,0.2-0.1,0.4-0.2,0.5c-0.2,0.1-0.3,0.2-0.6,0.2H649c-0.2,0-0.4-0.1-0.5-0.2
		c-0.1-0.1-0.2-0.3-0.2-0.5v-9.4h-11.3v9.4c0,0.2-0.1,0.4-0.2,0.5c-0.2,0.1-0.3,0.2-0.6,0.2h-1.6C634.4,249.2,634.2,249.2,634.1,249
		z"/>
	<path d="M655,249c-0.1-0.1-0.2-0.3-0.2-0.5l0.1-0.4l8.1-21.1c0.2-0.5,0.5-0.7,1-0.7h2.1c0.5,0,0.9,0.2,1,0.7l8.1,21.1l0.1,0.4
		c0,0.2-0.1,0.3-0.2,0.5c-0.1,0.1-0.3,0.2-0.5,0.2H673c-0.2,0-0.4-0.1-0.5-0.2c-0.1-0.1-0.2-0.2-0.3-0.4l-1.8-4.7h-10.8l-1.8,4.7
		c-0.2,0.4-0.4,0.6-0.8,0.6h-1.6C655.3,249.2,655.1,249.2,655,249z M660.6,241.3h8.9l-4.5-11.7L660.6,241.3z"/>
	<path d="M694.2,226.7c0.1,0.1,0.2,0.3,0.2,0.5v21.3c0,0.2-0.1,0.4-0.2,0.5c-0.1,0.1-0.3,0.2-0.5,0.2h-1.6c-0.2,0-0.4-0.1-0.6-0.2
		c-0.2-0.1-0.2-0.3-0.2-0.5v-7.9h-4.5l-5,7.8c-0.2,0.3-0.3,0.5-0.5,0.7c-0.2,0.1-0.4,0.2-0.7,0.2h-1.4c-0.2,0-0.3-0.1-0.5-0.2
		c-0.1-0.1-0.2-0.3-0.2-0.5c0-0.1,0-0.2,0.1-0.4l5.1-8c-1.5-0.4-2.7-1.1-3.5-2.3c-0.8-1.1-1.2-2.6-1.2-4.4c0-1.3,0.3-2.4,0.8-3.5
		s1.4-2,2.5-2.6c1.1-0.7,2.5-1,4.1-1h7.4C693.9,226.5,694.1,226.5,694.2,226.7z M691.4,229.1h-4.8c-1.4,0-2.5,0.4-3.3,1.2
		c-0.8,0.8-1.2,1.9-1.2,3.3c0,2.8,1.5,4.2,4.5,4.2h4.8V229.1z"/>
	<path d="M436.9,286.3c-1.5-1.6-2.3-3.7-2.4-6.5c0-0.6,0-1.5,0-2.9c0-1.3,0-2.3,0-2.9c0.1-2.7,0.9-4.9,2.4-6.5
		c1.5-1.6,3.7-2.4,6.6-2.4c1.9,0,3.6,0.3,4.9,1c1.3,0.7,2.4,1.6,3,2.7c0.7,1.1,1.1,2.3,1.1,3.5c0,0.2-0.1,0.4-0.2,0.5
		c-0.1,0.1-0.3,0.2-0.5,0.2h-1.6c-0.2,0-0.4-0.1-0.5-0.2c-0.1-0.1-0.2-0.3-0.3-0.6c-0.4-1.7-1-2.8-2-3.5s-2.3-1-3.9-1
		c-3.8,0-5.7,2.1-5.9,6.3c0,0.6,0,1.5,0,2.7c0,1.2,0,2.1,0,2.8c0.2,4.2,2.1,6.3,5.9,6.3c1.6,0,2.9-0.3,3.9-1c1-0.7,1.6-1.8,2-3.5
		c0.1-0.3,0.2-0.4,0.3-0.6c0.1-0.1,0.3-0.2,0.5-0.2h1.6c0.2,0,0.4,0.1,0.5,0.2c0.1,0.1,0.2,0.3,0.2,0.5c-0.1,1.3-0.4,2.4-1.1,3.5
		c-0.7,1.1-1.7,2-3,2.7c-1.3,0.7-3,1-4.9,1C440.6,288.6,438.4,287.8,436.9,286.3z"/>
	<path d="M471.3,288.1c-0.1-0.1-0.2-0.3-0.2-0.5v-19.2h-8.2v5.3c0,3.5-0.2,6.3-0.7,8.4s-1.3,3.6-2.3,4.6c-1.1,1-2.4,1.5-4.2,1.6
		c-0.2,0-0.4,0-0.5-0.2c-0.1-0.2-0.2-0.3-0.2-0.6v-1.3c0-0.2,0.1-0.4,0.2-0.5s0.3-0.2,0.5-0.2c1.4-0.2,2.5-1.2,3.2-3.1
		c0.7-1.9,1.1-4.9,1.1-9v-7c0-0.2,0.1-0.4,0.2-0.6c0.1-0.1,0.3-0.2,0.5-0.2h12.7c0.2,0,0.4,0.1,0.6,0.2c0.1,0.1,0.2,0.3,0.2,0.6
		v21.3c0,0.2-0.1,0.4-0.2,0.5c-0.2,0.1-0.3,0.2-0.6,0.2h-1.6C471.6,288.3,471.4,288.2,471.3,288.1z"/>
	<path d="M495.8,265.7c0.1,0.1,0.2,0.3,0.2,0.5c0,0.1,0,0.3-0.1,0.5l-6.6,15c-0.8,1.7-1.4,3-2,3.9s-1.3,1.6-2.1,2
		c-0.8,0.5-1.8,0.7-3.1,0.7h-1.3c-0.2,0-0.4-0.1-0.5-0.2s-0.2-0.3-0.2-0.5v-1.3c0-0.2,0.1-0.4,0.2-0.6c0.1-0.1,0.3-0.2,0.5-0.2h1.2
		c0.8,0,1.6-0.3,2.1-0.8c0.6-0.5,1.2-1.5,1.8-2.7l-8.5-15.4c-0.1-0.1-0.1-0.2-0.1-0.4c0-0.2,0.1-0.4,0.2-0.5
		c0.1-0.1,0.3-0.2,0.5-0.2h1.7c0.3,0,0.6,0.2,0.8,0.5l6.9,12.5l5.5-12.5c0.1-0.3,0.4-0.5,0.8-0.5h1.6
		C495.5,265.5,495.7,265.6,495.8,265.7z"/>
	<path d="M526.8,287.5c0,0.2-0.1,0.4-0.2,0.6c-0.1,0.2-0.3,0.2-0.5,0.2h-1.7c-0.2,0-0.4,0-0.5-0.1c-0.1-0.1-0.2-0.2-0.3-0.4
		l-6.3-9.6h-3.7v9.4c0,0.2-0.1,0.4-0.2,0.5c-0.1,0.1-0.3,0.2-0.5,0.2h-1.5c-0.2,0-0.4-0.1-0.5-0.2c-0.1-0.1-0.2-0.3-0.2-0.5v-9.4
		h-3.7l-6.2,9.6c-0.1,0.2-0.2,0.3-0.3,0.4c-0.1,0.1-0.3,0.1-0.5,0.1H498c-0.2,0-0.4-0.1-0.5-0.2c-0.1-0.2-0.2-0.3-0.2-0.6
		c0-0.2,0-0.3,0.1-0.4l6.9-10.6l-6.2-10c-0.1-0.2-0.2-0.3-0.2-0.4c0-0.4,0.2-0.7,0.7-0.7h1.6c0.5,0,0.9,0.2,1.1,0.5l5.8,9.3l3.5,0
		v-9.1c0-0.2,0.1-0.4,0.2-0.5c0.1-0.1,0.3-0.2,0.5-0.2h1.5c0.2,0,0.4,0.1,0.5,0.2c0.1,0.1,0.2,0.3,0.2,0.5v9.1l3.5,0l5.8-9.3
		c0.2-0.3,0.6-0.5,1.1-0.5h1.6c0.5,0,0.7,0.2,0.7,0.7c0,0.1-0.1,0.2-0.2,0.4l-6.2,10l6.9,10.6C526.8,287.2,526.8,287.3,526.8,287.5z
		"/>
	<path d="M531.2,288.1c-0.1-0.1-0.2-0.3-0.2-0.5v-21.3c0-0.2,0.1-0.4,0.2-0.6c0.1-0.1,0.3-0.2,0.5-0.2h14.1c0.2,0,0.4,0.1,0.6,0.2
		c0.1,0.1,0.2,0.3,0.2,0.6v1.2c0,0.2-0.1,0.4-0.2,0.6c-0.1,0.1-0.3,0.2-0.6,0.2H534v6.7h6.5c2.3,0,4,0.6,5.3,1.8
		c1.3,1.2,1.9,2.8,1.9,4.8c0,1.1-0.3,2.2-0.8,3.2c-0.5,1-1.4,1.9-2.4,2.5c-1.1,0.7-2.4,1-4,1h-8.9
		C531.5,288.3,531.3,288.2,531.2,288.1z M540.2,285.7c1.4,0,2.5-0.4,3.3-1.2c0.8-0.8,1.2-1.8,1.2-3c0-1.2-0.4-2.2-1.1-2.9
		s-1.9-1.1-3.3-1.1H534v8.3H540.2z"/>
	<path d="M549.7,288.1c-0.1-0.1-0.2-0.3-0.2-0.5l0.1-0.4l8.1-21.1c0.2-0.5,0.5-0.7,1-0.7h2.1c0.5,0,0.9,0.2,1,0.7l8.1,21.1l0.1,0.4
		c0,0.2-0.1,0.3-0.2,0.5c-0.1,0.1-0.3,0.2-0.5,0.2h-1.5c-0.2,0-0.4-0.1-0.5-0.2c-0.1-0.1-0.2-0.2-0.3-0.4l-1.8-4.7h-10.8l-1.8,4.7
		c-0.2,0.4-0.4,0.6-0.8,0.6h-1.6C550,288.3,549.9,288.2,549.7,288.1z M555.3,280.4h8.9l-4.5-11.7L555.3,280.4z"/>
	<path d="M435.6,327.1c-0.1-0.1-0.2-0.3-0.2-0.5v-21.3c0-0.2,0.1-0.4,0.2-0.6c0.1-0.1,0.3-0.2,0.6-0.2h1.5c0.4,0,0.7,0.2,0.8,0.5
		l6.9,13.3l7-13.3c0.2-0.3,0.4-0.5,0.8-0.5h1.5c0.2,0,0.4,0.1,0.6,0.2c0.1,0.1,0.2,0.3,0.2,0.6v21.3c0,0.2-0.1,0.4-0.2,0.5
		c-0.1,0.1-0.3,0.2-0.5,0.2h-1.5c-0.2,0-0.4-0.1-0.5-0.2c-0.1-0.1-0.2-0.3-0.2-0.5v-16.2l-5.6,10.8c-0.2,0.5-0.6,0.7-1,0.7h-1
		c-0.5,0-0.8-0.2-1-0.7l-5.5-10.8v16.2c0,0.2-0.1,0.4-0.2,0.5c-0.1,0.1-0.3,0.2-0.5,0.2h-1.5C435.9,327.3,435.7,327.3,435.6,327.1z"
		/>
	<path d="M461.3,327.1c-0.1-0.1-0.2-0.3-0.2-0.5v-21.3c0-0.2,0.1-0.4,0.2-0.6c0.1-0.1,0.3-0.2,0.5-0.2h13.4c0.2,0,0.4,0.1,0.6,0.2
		c0.1,0.1,0.2,0.3,0.2,0.6v1.2c0,0.2-0.1,0.4-0.2,0.5c-0.1,0.1-0.3,0.2-0.6,0.2h-11.1v7.3h10.4c0.2,0,0.4,0.1,0.6,0.2
		c0.1,0.1,0.2,0.3,0.2,0.6v1.1c0,0.2-0.1,0.4-0.2,0.5c-0.1,0.1-0.3,0.2-0.6,0.2h-10.4v7.5h11.4c0.2,0,0.4,0.1,0.6,0.2
		c0.1,0.1,0.2,0.3,0.2,0.6v1.2c0,0.2-0.1,0.4-0.2,0.5c-0.2,0.1-0.3,0.2-0.6,0.2h-13.6C461.7,327.3,461.5,327.3,461.3,327.1z"/>
	<path d="M478.9,331.7c-0.1-0.1-0.2-0.3-0.2-0.5v-5.9c0-0.2,0.1-0.4,0.2-0.5c0.1-0.1,0.3-0.2,0.5-0.2h0.7c1,0,1.8-1,2.4-3
		c0.5-2,0.8-5,0.8-9.2v-7c0-0.2,0.1-0.4,0.2-0.5c0.1-0.1,0.3-0.2,0.5-0.2h12.6c0.2,0,0.4,0.1,0.6,0.2c0.1,0.1,0.2,0.3,0.2,0.6v19.2
		h1.6c0.2,0,0.4,0.1,0.6,0.2c0.1,0.1,0.2,0.3,0.2,0.5v5.9c0,0.2-0.1,0.4-0.2,0.6c-0.1,0.1-0.3,0.2-0.6,0.2h-1.5
		c-0.2,0-0.4-0.1-0.5-0.2c-0.1-0.1-0.2-0.3-0.2-0.6v-3.8h-14.9v3.8c0,0.2-0.1,0.4-0.2,0.5c-0.1,0.1-0.3,0.2-0.6,0.2h-1.6
		C479.2,331.9,479,331.8,478.9,331.7z M494.3,324.5v-17.1h-8v5.3c0,3.1-0.2,5.5-0.5,7.5c-0.4,1.9-0.9,3.4-1.6,4.3H494.3z"/>
	<path d="M503.9,327.1c-0.1-0.1-0.2-0.3-0.2-0.6v-21.2c0-0.2,0.1-0.4,0.2-0.6c0.1-0.1,0.3-0.2,0.6-0.2h1.6c0.2,0,0.4,0.1,0.5,0.2
		c0.1,0.1,0.2,0.3,0.2,0.6v17L519,305c0.2-0.3,0.4-0.5,0.8-0.5h1.5c0.2,0,0.4,0.1,0.5,0.2c0.1,0.1,0.2,0.3,0.2,0.6v21.3
		c0,0.2-0.1,0.4-0.2,0.5c-0.1,0.1-0.3,0.2-0.5,0.2h-1.6c-0.2,0-0.4-0.1-0.6-0.2c-0.2-0.1-0.2-0.3-0.2-0.5v-16.9l-12.2,17.2
		c-0.2,0.3-0.4,0.5-0.8,0.5h-1.6C504.2,327.3,504,327.3,503.9,327.1z"/>
	<path d="M525.8,327.2c-0.1-0.1-0.2-0.3-0.2-0.5l0.1-0.4l8.1-21.1c0.2-0.5,0.5-0.7,1-0.7h2.1c0.5,0,0.9,0.2,1,0.7l8.1,21.1l0.1,0.4
		c0,0.2-0.1,0.3-0.2,0.5c-0.1,0.1-0.3,0.2-0.5,0.2h-1.5c-0.2,0-0.4-0.1-0.5-0.2c-0.1-0.1-0.2-0.2-0.3-0.4l-1.8-4.7h-10.8l-1.8,4.7
		c-0.2,0.4-0.4,0.6-0.8,0.6h-1.6C526.1,327.3,525.9,327.3,525.8,327.2z M531.3,319.4h8.9l-4.5-11.7L531.3,319.4z"/>
	<path d="M566.5,331.7c-0.1-0.1-0.2-0.3-0.2-0.5v-3.8h-16c-0.2,0-0.4-0.1-0.5-0.2c-0.1-0.1-0.2-0.3-0.2-0.6v-21.3
		c0-0.2,0.1-0.4,0.2-0.5c0.1-0.1,0.3-0.2,0.5-0.2h1.6c0.2,0,0.4,0.1,0.6,0.2c0.1,0.1,0.2,0.3,0.2,0.5v19.2h11.3v-19.2
		c0-0.2,0.1-0.4,0.2-0.5c0.1-0.1,0.3-0.2,0.5-0.2h1.6c0.2,0,0.4,0.1,0.6,0.2c0.1,0.1,0.2,0.3,0.2,0.5v19.2h1.6
		c0.2,0,0.4,0.1,0.5,0.2c0.1,0.1,0.2,0.3,0.2,0.5v5.9c0,0.2-0.1,0.4-0.2,0.6c-0.1,0.1-0.3,0.2-0.6,0.2H567
		C566.8,331.9,566.6,331.8,566.5,331.7z"/>
	<path d="M573.5,327.1c-0.1-0.1-0.2-0.3-0.2-0.6v-21.2c0-0.2,0.1-0.4,0.2-0.6c0.1-0.1,0.3-0.2,0.6-0.2h1.6c0.2,0,0.4,0.1,0.5,0.2
		c0.1,0.1,0.2,0.3,0.2,0.6v17l12.3-17.3c0.2-0.3,0.4-0.5,0.8-0.5h1.5c0.2,0,0.4,0.1,0.5,0.2c0.1,0.1,0.2,0.3,0.2,0.6v21.3
		c0,0.2-0.1,0.4-0.2,0.5c-0.1,0.1-0.3,0.2-0.5,0.2h-1.6c-0.2,0-0.4-0.1-0.6-0.2c-0.2-0.1-0.2-0.3-0.2-0.5v-16.9l-12.2,17.2
		c-0.2,0.3-0.4,0.5-0.8,0.5H574C573.8,327.3,573.6,327.3,573.5,327.1z"/>
	<path d="M597.6,327.1c-0.1-0.1-0.2-0.3-0.2-0.6v-21.2c0-0.2,0.1-0.4,0.2-0.6c0.1-0.1,0.3-0.2,0.6-0.2h1.6c0.2,0,0.4,0.1,0.5,0.2
		c0.1,0.1,0.2,0.3,0.2,0.6v17l12.3-17.3c0.2-0.3,0.4-0.5,0.8-0.5h1.5c0.2,0,0.4,0.1,0.5,0.2c0.1,0.1,0.2,0.3,0.2,0.6v21.3
		c0,0.2-0.1,0.4-0.2,0.5c-0.1,0.1-0.3,0.2-0.5,0.2h-1.6c-0.2,0-0.4-0.1-0.6-0.2c-0.2-0.1-0.2-0.3-0.2-0.5v-16.9l-12.2,17.2
		c-0.2,0.3-0.4,0.5-0.8,0.5h-1.6C597.9,327.3,597.7,327.3,597.6,327.1z"/>
	<path d="M437.6,368.6c-1.1-1.1-1.9-2.7-2.4-4.9c-0.5-2.2-0.7-5.1-0.7-8.8c0-3.6,0.2-6.5,0.7-8.7c0.5-2.2,1.3-3.8,2.4-4.9
		c1.1-1.1,2.6-1.6,4.4-1.6c0.2,0,0.4,0.1,0.5,0.2c0.2,0.1,0.2,0.3,0.2,0.5v1.1c0,0.2-0.1,0.4-0.2,0.5c-0.1,0.1-0.3,0.2-0.5,0.2
		c-1.2,0-2.2,0.4-2.9,1.3c-0.7,0.8-1.2,2.1-1.5,3.9c-0.3,1.8-0.5,4.3-0.5,7.5s0.2,5.7,0.5,7.5c0.3,1.8,0.8,3.1,1.5,4
		c0.7,0.8,1.7,1.2,2.9,1.3c0.2,0,0.3,0.1,0.5,0.2c0.1,0.1,0.2,0.3,0.2,0.5v1.1c0,0.2-0.1,0.4-0.2,0.5c-0.2,0.1-0.3,0.2-0.5,0.2
		C440.2,370.2,438.7,369.7,437.6,368.6z"/>
	<path d="M446.7,366.2c-0.1-0.1-0.2-0.3-0.2-0.5v-21.3c0-0.2,0.1-0.4,0.2-0.6c0.1-0.1,0.3-0.2,0.5-0.2h16c0.2,0,0.4,0.1,0.6,0.2
		c0.1,0.1,0.2,0.3,0.2,0.6v21.3c0,0.2-0.1,0.4-0.2,0.5c-0.2,0.1-0.3,0.2-0.6,0.2h-1.6c-0.2,0-0.4-0.1-0.5-0.2
		c-0.1-0.1-0.2-0.3-0.2-0.5v-19.2h-11.3v19.2c0,0.2-0.1,0.4-0.2,0.5c-0.2,0.1-0.3,0.2-0.6,0.2h-1.6
		C447,366.4,446.8,366.3,446.7,366.2z"/>
	<path d="M471.2,364.5c-1.5-1.5-2.4-3.7-2.4-6.7c0-0.7,0-1.6,0-2.8s0-2.1,0-2.7c0.1-3,0.9-5.2,2.5-6.7c1.6-1.5,3.7-2.3,6.5-2.3
		s4.9,0.8,6.4,2.3c1.6,1.5,2.4,3.8,2.5,6.7c0,1.3,0.1,2.2,0.1,2.7c0,0.5,0,1.5-0.1,2.8c-0.1,3-0.9,5.2-2.4,6.7
		c-1.5,1.5-3.7,2.2-6.5,2.2S472.8,366,471.2,364.5z M481.9,362.4c1-1.1,1.6-2.7,1.7-4.8c0-1.3,0.1-2.2,0.1-2.6c0-0.5,0-1.3-0.1-2.6
		c-0.1-2.2-0.7-3.8-1.7-4.8c-1-1.1-2.4-1.6-4.2-1.6s-3.1,0.5-4.2,1.6c-1.1,1.1-1.6,2.7-1.7,4.8c0,0.6,0,1.5,0,2.6c0,1.1,0,2,0,2.6
		c0.1,2.2,0.6,3.8,1.7,4.8c1,1.1,2.4,1.6,4.2,1.6C479.5,364,480.9,363.5,481.9,362.4z"/>
	<path d="M493.1,364.4c-1.5-1.6-2.3-3.7-2.4-6.5c0-0.6,0-1.5,0-2.9c0-1.3,0-2.3,0-2.9c0.1-2.7,0.9-4.9,2.4-6.5s3.7-2.4,6.6-2.4
		c1.9,0,3.6,0.3,4.9,1c1.3,0.7,2.4,1.6,3,2.7c0.7,1.1,1.1,2.3,1.1,3.5c0,0.2-0.1,0.4-0.2,0.5c-0.1,0.1-0.3,0.2-0.5,0.2h-1.6
		c-0.2,0-0.4-0.1-0.5-0.2s-0.2-0.3-0.3-0.6c-0.4-1.7-1-2.8-2-3.5c-1-0.7-2.3-1-3.9-1c-3.8,0-5.7,2.1-5.9,6.3c0,0.6,0,1.5,0,2.7
		s0,2.1,0,2.8c0.2,4.2,2.1,6.3,5.9,6.3c1.6,0,2.9-0.3,3.9-1c1-0.7,1.6-1.8,2-3.5c0.1-0.3,0.2-0.4,0.3-0.6s0.3-0.2,0.5-0.2h1.6
		c0.2,0,0.4,0.1,0.5,0.2c0.1,0.1,0.2,0.3,0.2,0.5c-0.1,1.3-0.4,2.4-1.1,3.5c-0.7,1.1-1.7,2-3,2.7c-1.3,0.7-3,1-4.9,1
		C496.8,366.7,494.6,365.9,493.1,364.4z"/>
	<path d="M513.4,366.2c-0.1-0.1-0.2-0.3-0.2-0.5v-21.3c0-0.2,0.1-0.4,0.2-0.6c0.1-0.1,0.3-0.2,0.5-0.2h8.2c2.4,0,4.4,0.6,5.8,1.8
		s2.1,2.9,2.1,5.2c0,2.3-0.7,4-2.1,5.1c-1.4,1.2-3.3,1.8-5.8,1.8h-5.9v8.2c0,0.2-0.1,0.4-0.2,0.5c-0.1,0.1-0.3,0.2-0.5,0.2h-1.6
		C513.7,366.4,513.5,366.3,513.4,366.2z M522,354.8c3.3,0,4.9-1.4,4.9-4.3c0-1.4-0.4-2.5-1.2-3.2c-0.8-0.7-2-1.1-3.7-1.1h-5.7v8.6
		H522z"/>
	<path d="M534.3,366.2c-0.1-0.1-0.2-0.3-0.2-0.5v-21.3c0-0.2,0.1-0.4,0.2-0.6c0.1-0.1,0.3-0.2,0.5-0.2h13.4c0.2,0,0.4,0.1,0.6,0.2
		c0.1,0.1,0.2,0.3,0.2,0.6v1.2c0,0.2-0.1,0.4-0.2,0.5c-0.1,0.1-0.3,0.2-0.6,0.2h-11.1v7.3h10.4c0.2,0,0.4,0.1,0.6,0.2
		c0.1,0.1,0.2,0.3,0.2,0.6v1.1c0,0.2-0.1,0.4-0.2,0.5c-0.1,0.1-0.3,0.2-0.6,0.2h-10.4v7.5h11.4c0.2,0,0.4,0.1,0.6,0.2
		c0.1,0.1,0.2,0.3,0.2,0.6v1.2c0,0.2-0.1,0.4-0.2,0.5c-0.2,0.1-0.3,0.2-0.6,0.2h-13.6C534.6,366.4,534.4,366.3,534.3,366.2z"/>
	<path d="M551.8,370.7c-0.1-0.1-0.2-0.3-0.2-0.5v-5.9c0-0.2,0.1-0.4,0.2-0.5c0.1-0.1,0.3-0.2,0.5-0.2h0.7c1,0,1.8-1,2.4-3
		c0.5-2,0.8-5,0.8-9.2v-7c0-0.2,0.1-0.4,0.2-0.5c0.1-0.1,0.3-0.2,0.5-0.2h12.6c0.2,0,0.4,0.1,0.6,0.2c0.1,0.1,0.2,0.3,0.2,0.6v19.2
		h1.6c0.2,0,0.4,0.1,0.6,0.2c0.1,0.1,0.2,0.3,0.2,0.5v5.9c0,0.2-0.1,0.4-0.2,0.6c-0.1,0.1-0.3,0.2-0.6,0.2h-1.5
		c-0.2,0-0.4-0.1-0.5-0.2c-0.1-0.1-0.2-0.3-0.2-0.6v-3.8h-14.9v3.8c0,0.2-0.1,0.4-0.2,0.5c-0.1,0.1-0.3,0.2-0.6,0.2h-1.6
		C552.1,370.9,552,370.9,551.8,370.7z M567.2,363.6v-17.1h-8v5.3c0,3.1-0.2,5.5-0.5,7.5c-0.4,1.9-0.9,3.4-1.6,4.3H567.2z"/>
	<path d="M576.8,366.2c-0.1-0.1-0.2-0.3-0.2-0.5v-21.3c0-0.2,0.1-0.4,0.2-0.6c0.1-0.1,0.3-0.2,0.5-0.2h1.6c0.2,0,0.4,0.1,0.6,0.2
		c0.1,0.1,0.2,0.3,0.2,0.6v9H591v-9c0-0.2,0.1-0.4,0.2-0.6c0.1-0.1,0.3-0.2,0.5-0.2h1.6c0.2,0,0.4,0.1,0.6,0.2
		c0.1,0.1,0.2,0.3,0.2,0.6v21.3c0,0.2-0.1,0.4-0.2,0.5c-0.2,0.1-0.3,0.2-0.6,0.2h-1.6c-0.2,0-0.4-0.1-0.5-0.2
		c-0.1-0.1-0.2-0.3-0.2-0.5v-9.4h-11.3v9.4c0,0.2-0.1,0.4-0.2,0.5c-0.2,0.1-0.3,0.2-0.6,0.2h-1.6C577.1,366.4,577,366.3,576.8,366.2
		z"/>
	<path d="M600,366.2c-0.1-0.1-0.2-0.3-0.2-0.6v-21.2c0-0.2,0.1-0.4,0.2-0.6c0.1-0.1,0.3-0.2,0.6-0.2h1.6c0.2,0,0.4,0.1,0.5,0.2
		c0.1,0.1,0.2,0.3,0.2,0.6v17l12.3-17.3c0.2-0.3,0.4-0.5,0.8-0.5h1.5c0.2,0,0.4,0.1,0.5,0.2c0.1,0.1,0.2,0.3,0.2,0.6v21.3
		c0,0.2-0.1,0.4-0.2,0.5c-0.1,0.1-0.3,0.2-0.5,0.2h-1.6c-0.2,0-0.4-0.1-0.6-0.2c-0.2-0.1-0.2-0.3-0.2-0.5v-16.9l-12.2,17.2
		c-0.2,0.3-0.4,0.5-0.8,0.5h-1.6C600.3,366.4,600.1,366.3,600,366.2z"/>
	<path d="M636.5,366.2c-0.1-0.1-0.2-0.3-0.2-0.5v-8.4c-0.5,0.5-1.2,1-2.4,1.2c-1.1,0.3-2.2,0.4-3.4,0.4c-5.1,0-7.7-2.3-7.7-7v-7.5
		c0-0.2,0.1-0.4,0.2-0.5c0.1-0.1,0.3-0.2,0.5-0.2h1.6c0.2,0,0.4,0.1,0.6,0.2c0.1,0.1,0.2,0.3,0.2,0.5v7.3c0,1.5,0.4,2.6,1.2,3.3
		c0.8,0.7,2.1,1,3.9,1c1.3,0,2.5-0.3,3.6-0.8c1.1-0.5,1.6-1.4,1.6-2.6v-8.3c0-0.2,0.1-0.4,0.2-0.6c0.1-0.1,0.3-0.2,0.5-0.2h1.5
		c0.2,0,0.4,0.1,0.6,0.2c0.1,0.1,0.2,0.3,0.2,0.6v21.3c0,0.2-0.1,0.4-0.2,0.5c-0.1,0.1-0.3,0.2-0.6,0.2H637
		C636.8,366.4,636.6,366.3,636.5,366.2z"/>
	<path d="M645.3,366.2c-0.1-0.1-0.2-0.3-0.2-0.5v-21.3c0-0.2,0.1-0.4,0.2-0.6c0.1-0.1,0.3-0.2,0.5-0.2h13.4c0.2,0,0.4,0.1,0.6,0.2
		c0.1,0.1,0.2,0.3,0.2,0.6v1.2c0,0.2-0.1,0.4-0.2,0.5c-0.1,0.1-0.3,0.2-0.6,0.2h-11.1v7.3h10.4c0.2,0,0.4,0.1,0.6,0.2
		c0.1,0.1,0.2,0.3,0.2,0.6v1.1c0,0.2-0.1,0.4-0.2,0.5c-0.1,0.1-0.3,0.2-0.6,0.2h-10.4v7.5h11.4c0.2,0,0.4,0.1,0.6,0.2
		c0.1,0.1,0.2,0.3,0.2,0.6v1.2c0,0.2-0.1,0.4-0.2,0.5c-0.2,0.1-0.3,0.2-0.6,0.2h-13.6C645.6,366.4,645.4,366.3,645.3,366.2z"/>
	<path d="M666.1,364.4c-1.5-1.6-2.3-3.7-2.4-6.5c0-0.6,0-1.5,0-2.9c0-1.3,0-2.3,0-2.9c0.1-2.7,0.9-4.9,2.4-6.5s3.7-2.4,6.6-2.4
		c1.9,0,3.6,0.3,4.9,1c1.3,0.7,2.4,1.6,3,2.7c0.7,1.1,1.1,2.3,1.1,3.5c0,0.2-0.1,0.4-0.2,0.5c-0.1,0.1-0.3,0.2-0.5,0.2h-1.6
		c-0.2,0-0.4-0.1-0.5-0.2s-0.2-0.3-0.3-0.6c-0.4-1.7-1-2.8-2-3.5c-1-0.7-2.3-1-3.9-1c-3.8,0-5.7,2.1-5.9,6.3c0,0.6,0,1.5,0,2.7
		s0,2.1,0,2.8c0.2,4.2,2.1,6.3,5.9,6.3c1.6,0,2.9-0.3,3.9-1c1-0.7,1.6-1.8,2-3.5c0.1-0.3,0.2-0.4,0.3-0.6s0.3-0.2,0.5-0.2h1.6
		c0.2,0,0.4,0.1,0.5,0.2c0.1,0.1,0.2,0.3,0.2,0.5c-0.1,1.3-0.4,2.4-1.1,3.5c-0.7,1.1-1.7,2-3,2.7c-1.3,0.7-3,1-4.9,1
		C669.8,366.7,667.6,365.9,666.1,364.4z"/>
	<path d="M691.3,366.2c-0.1-0.1-0.2-0.3-0.2-0.5v-19.2h-6.3c-0.2,0-0.4-0.1-0.5-0.2c-0.1-0.1-0.2-0.3-0.2-0.5v-1.3
		c0-0.2,0.1-0.4,0.2-0.6c0.1-0.1,0.3-0.2,0.5-0.2h15.6c0.2,0,0.4,0.1,0.6,0.2c0.1,0.1,0.2,0.3,0.2,0.6v1.3c0,0.2-0.1,0.4-0.2,0.5
		c-0.1,0.1-0.3,0.2-0.5,0.2h-6.2v19.2c0,0.2-0.1,0.4-0.2,0.5c-0.2,0.1-0.3,0.2-0.6,0.2h-1.6C691.6,366.4,691.5,366.3,691.3,366.2z"
		/>
	<path d="M705.1,366.2c-0.1-0.1-0.2-0.3-0.2-0.5v-21.3c0-0.2,0.1-0.4,0.2-0.6c0.1-0.1,0.3-0.2,0.5-0.2h8.9c2.3,0,4,0.6,5.2,1.7
		s1.8,2.5,1.8,4.3c0,1.2-0.3,2.2-0.8,3c-0.6,0.8-1.2,1.4-2,1.8c0.9,0.5,1.7,1.2,2.3,2.1c0.6,1,0.9,2.1,0.9,3.3
		c0,1.2-0.3,2.3-0.8,3.3c-0.6,1-1.4,1.8-2.5,2.4s-2.4,0.9-3.9,0.9h-9.1C705.4,366.4,705.2,366.3,705.1,366.2z M714,353.3
		c1.4,0,2.5-0.3,3.2-1c0.7-0.6,1.1-1.5,1.1-2.7c0-1.1-0.4-2-1.1-2.6c-0.7-0.6-1.8-0.9-3.2-0.9h-6v7.1H714z M714.3,363.8
		c1.4,0,2.5-0.4,3.3-1.1c0.8-0.7,1.2-1.7,1.2-2.9c0-1.2-0.4-2.2-1.2-2.9c-0.8-0.7-1.9-1.1-3.3-1.1H708v8H714.3z"/>
	<path d="M724.6,366.2c-0.1-0.1-0.2-0.3-0.2-0.5l0.1-0.4l8.1-21.1c0.2-0.5,0.5-0.7,1-0.7h2.1c0.5,0,0.9,0.2,1,0.7l8.1,21.1l0.1,0.4
		c0,0.2-0.1,0.3-0.2,0.5c-0.1,0.1-0.3,0.2-0.5,0.2h-1.5c-0.2,0-0.4-0.1-0.5-0.2c-0.1-0.1-0.2-0.2-0.3-0.4l-1.8-4.7h-10.8l-1.8,4.7
		c-0.2,0.4-0.4,0.6-0.8,0.6H725C724.9,366.4,724.7,366.3,724.6,366.2z M730.1,358.5h8.9l-4.5-11.7L730.1,358.5z"/>
	<path d="M746.9,370c-0.1-0.1-0.2-0.3-0.2-0.5v-1.1c0-0.2,0.1-0.4,0.2-0.5c0.1-0.1,0.3-0.2,0.5-0.2c1.2,0,2.2-0.4,2.9-1.3
		c0.7-0.8,1.2-2.1,1.5-4c0.3-1.8,0.5-4.3,0.5-7.5s-0.2-5.7-0.5-7.5c-0.3-1.8-0.8-3.1-1.5-3.9c-0.7-0.8-1.7-1.2-2.9-1.3
		c-0.2,0-0.3-0.1-0.5-0.2c-0.1-0.1-0.2-0.3-0.2-0.5v-1.1c0-0.2,0.1-0.4,0.2-0.5c0.1-0.1,0.3-0.2,0.5-0.2c1.9,0,3.3,0.5,4.4,1.6
		c1.1,1.1,1.9,2.7,2.4,4.9c0.5,2.2,0.7,5.1,0.7,8.7c0,3.6-0.2,6.5-0.7,8.8c-0.5,2.2-1.3,3.8-2.4,4.9c-1.1,1.1-2.6,1.6-4.4,1.6
		C747.2,370.2,747.1,370.1,746.9,370z"/>
	<path d="M435.6,405.2c-0.1-0.1-0.2-0.3-0.2-0.5v-21.3c0-0.2,0.1-0.4,0.2-0.6c0.1-0.1,0.3-0.2,0.5-0.2h16c0.2,0,0.4,0.1,0.6,0.2
		c0.1,0.1,0.2,0.3,0.2,0.6v21.3c0,0.2-0.1,0.4-0.2,0.5c-0.2,0.1-0.3,0.2-0.6,0.2h-1.6c-0.2,0-0.4-0.1-0.5-0.2
		c-0.1-0.1-0.2-0.3-0.2-0.5v-19.2h-11.3v19.2c0,0.2-0.1,0.4-0.2,0.5c-0.2,0.1-0.3,0.2-0.6,0.2h-1.6
		C435.9,405.5,435.7,405.4,435.6,405.2z"/>
	<path d="M458.7,405.2c-0.1-0.1-0.2-0.3-0.2-0.5v-21.3c0-0.2,0.1-0.4,0.2-0.6c0.1-0.1,0.3-0.2,0.5-0.2h8.2c2.4,0,4.4,0.6,5.8,1.8
		s2.1,2.9,2.1,5.2c0,2.3-0.7,4-2.1,5.1c-1.4,1.2-3.3,1.8-5.8,1.8h-5.9v8.2c0,0.2-0.1,0.4-0.2,0.5c-0.1,0.1-0.3,0.2-0.5,0.2h-1.6
		C459,405.5,458.8,405.4,458.7,405.2z M467.3,393.9c3.3,0,4.9-1.4,4.9-4.3c0-1.4-0.4-2.5-1.2-3.2c-0.8-0.7-2-1.1-3.7-1.1h-5.7v8.6
		H467.3z"/>
	<path d="M479.6,405.2c-0.1-0.1-0.2-0.3-0.2-0.6v-21.2c0-0.2,0.1-0.4,0.2-0.6c0.1-0.1,0.3-0.2,0.6-0.2h1.6c0.2,0,0.4,0.1,0.5,0.2
		c0.1,0.1,0.2,0.3,0.2,0.6v17l12.3-17.3c0.2-0.3,0.4-0.5,0.8-0.5h1.5c0.2,0,0.4,0.1,0.5,0.2c0.1,0.1,0.2,0.3,0.2,0.6v21.3
		c0,0.2-0.1,0.4-0.2,0.5c-0.1,0.1-0.3,0.2-0.5,0.2h-1.6c-0.2,0-0.4-0.1-0.6-0.2c-0.2-0.1-0.2-0.3-0.2-0.5v-16.9L482.4,405
		c-0.2,0.3-0.4,0.5-0.8,0.5h-1.6C479.9,405.5,479.7,405.4,479.6,405.2z"/>
	<path d="M511.6,405.2c-0.1-0.1-0.2-0.3-0.2-0.5v-21.3c0-0.2,0.1-0.4,0.2-0.6c0.1-0.1,0.3-0.2,0.5-0.2h8.2c2.4,0,4.4,0.6,5.8,1.8
		s2.1,2.9,2.1,5.2c0,2.3-0.7,4-2.1,5.1c-1.4,1.2-3.3,1.8-5.8,1.8h-5.9v8.2c0,0.2-0.1,0.4-0.2,0.5c-0.1,0.1-0.3,0.2-0.5,0.2h-1.6
		C511.9,405.5,511.8,405.4,511.6,405.2z M520.2,393.9c3.3,0,4.9-1.4,4.9-4.3c0-1.4-0.4-2.5-1.2-3.2c-0.8-0.7-2-1.1-3.7-1.1h-5.7v8.6
		H520.2z"/>
	<path d="M533.8,403.4c-1.5-1.6-2.3-3.7-2.4-6.5c0-0.6,0-1.5,0-2.9c0-1.3,0-2.3,0-2.9c0.1-2.7,0.9-4.9,2.4-6.5s3.7-2.4,6.6-2.4
		c1.9,0,3.6,0.3,4.9,1c1.3,0.7,2.4,1.6,3,2.7c0.7,1.1,1.1,2.3,1.1,3.5c0,0.2-0.1,0.4-0.2,0.5c-0.1,0.1-0.3,0.2-0.5,0.2h-1.6
		c-0.2,0-0.4-0.1-0.5-0.2s-0.2-0.3-0.3-0.6c-0.4-1.7-1-2.8-2-3.5c-1-0.7-2.3-1-3.9-1c-3.8,0-5.7,2.1-5.9,6.3c0,0.6,0,1.5,0,2.7
		s0,2.1,0,2.8c0.2,4.2,2.1,6.3,5.9,6.3c1.6,0,2.9-0.3,3.9-1c1-0.7,1.6-1.8,2-3.5c0.1-0.3,0.2-0.4,0.3-0.6s0.3-0.2,0.5-0.2h1.6
		c0.2,0,0.4,0.1,0.5,0.2c0.1,0.1,0.2,0.3,0.2,0.5c-0.1,1.3-0.4,2.4-1.1,3.5c-0.7,1.1-1.7,2-3,2.7c-1.3,0.7-3,1-4.9,1
		C537.5,405.8,535.3,405,533.8,403.4z"/>
	<path d="M554.1,405.2c-0.1-0.1-0.2-0.3-0.2-0.5v-21.3c0-0.2,0.1-0.4,0.2-0.6c0.1-0.1,0.3-0.2,0.5-0.2h16c0.2,0,0.4,0.1,0.6,0.2
		c0.1,0.1,0.2,0.3,0.2,0.6v21.3c0,0.2-0.1,0.4-0.2,0.5c-0.2,0.1-0.3,0.2-0.6,0.2H569c-0.2,0-0.4-0.1-0.5-0.2
		c-0.1-0.1-0.2-0.3-0.2-0.5v-19.2H557v19.2c0,0.2-0.1,0.4-0.2,0.5c-0.2,0.1-0.3,0.2-0.6,0.2h-1.6
		C554.4,405.5,554.2,405.4,554.1,405.2z"/>
	<path d="M577.3,405.2c-0.1-0.1-0.2-0.3-0.2-0.5v-21.3c0-0.2,0.1-0.4,0.2-0.6c0.1-0.1,0.3-0.2,0.5-0.2h16c0.2,0,0.4,0.1,0.6,0.2
		c0.1,0.1,0.2,0.3,0.2,0.6v21.3c0,0.2-0.1,0.4-0.2,0.5c-0.2,0.1-0.3,0.2-0.6,0.2h-1.6c-0.2,0-0.4-0.1-0.5-0.2
		c-0.1-0.1-0.2-0.3-0.2-0.5v-19.2h-11.3v19.2c0,0.2-0.1,0.4-0.2,0.5c-0.2,0.1-0.3,0.2-0.6,0.2h-1.6
		C577.6,405.5,577.4,405.4,577.3,405.2z"/>
</g>
</svg>
