<?xml version="1.0" encoding="utf-8"?>
<!-- Generator: Adobe Illustrator 22.1.0, SVG Export Plug-In . SVG Version: 6.00 Build 0)  -->
<svg version="1.1" id="Layer_1" xmlns="http://www.w3.org/2000/svg" xmlns:xlink="http://www.w3.org/1999/xlink" x="0px" y="0px"
	 viewBox="0 0 1366 768" style="enable-background:new 0 0 1366 768;" xml:space="preserve">
<style type="text/css">
	.st0{fill:#E94F35;}
</style>
<g>
	<path class="st0" d="M749.6,323.6c-0.3,0.4-0.5,0.8-0.8,1c-0.3,0.2-0.7,0.3-1.1,0.3c-0.5,0-1-0.2-1.6-0.6c-0.6-0.4-1.3-0.9-2.2-1.4
		c-0.9-0.5-2-1-3.2-1.4c-1.2-0.4-2.7-0.6-4.5-0.6c-1.6,0-3.1,0.2-4.3,0.6c-1.2,0.4-2.3,1-3.1,1.8c-0.8,0.7-1.5,1.6-1.9,2.6
		c-0.4,1-0.6,2.1-0.6,3.3c0,1.5,0.4,2.8,1.2,3.7c0.8,1,1.8,1.8,3,2.5c1.2,0.7,2.7,1.3,4.3,1.8c1.6,0.5,3.2,1.1,4.9,1.6
		c1.7,0.6,3.3,1.2,4.9,1.9c1.6,0.7,3,1.6,4.3,2.8c1.2,1.1,2.3,2.5,3,4.1c0.8,1.6,1.2,3.6,1.2,5.9c0,2.5-0.4,4.8-1.3,6.9
		c-0.8,2.2-2.1,4-3.7,5.7c-1.6,1.6-3.6,2.9-6,3.8c-2.4,0.9-5,1.4-8,1.4c-1.8,0-3.5-0.2-5.2-0.5c-1.7-0.4-3.3-0.8-4.8-1.5
		c-1.5-0.6-2.9-1.4-4.2-2.3c-1.3-0.9-2.5-1.9-3.5-3l2.4-4c0.2-0.3,0.5-0.6,0.8-0.8c0.3-0.2,0.7-0.3,1.1-0.3c0.5,0,1.2,0.3,1.9,0.9
		c0.7,0.6,1.6,1.2,2.7,1.9c1.1,0.7,2.3,1.3,3.8,1.9c1.5,0.6,3.3,0.9,5.4,0.9c1.7,0,3.3-0.2,4.6-0.7c1.4-0.5,2.5-1.1,3.4-2
		c0.9-0.8,1.6-1.9,2.1-3.1c0.5-1.2,0.7-2.5,0.7-4c0-1.6-0.4-3-1.1-4c-0.8-1-1.8-1.9-3-2.6c-1.2-0.7-2.7-1.3-4.3-1.8
		c-1.6-0.5-3.2-1-4.9-1.5c-1.7-0.5-3.3-1.2-4.9-1.9c-1.6-0.7-3-1.6-4.3-2.8c-1.2-1.1-2.2-2.5-3-4.3c-0.8-1.7-1.1-3.8-1.1-6.3
		c0-2,0.4-3.9,1.2-5.8c0.8-1.9,1.9-3.5,3.4-5c1.5-1.4,3.3-2.6,5.5-3.5c2.2-0.9,4.7-1.3,7.5-1.3c3.1,0,6,0.5,8.7,1.5
		c2.6,1,4.9,2.4,6.9,4.3L749.6,323.6z"/>
	<path class="st0" d="M778.2,365.1c3.7,0,6.5-1.3,8.4-3.8c1.8-2.5,2.8-6.1,2.8-10.7c0-4.6-0.9-8.1-2.8-10.7
		c-1.9-2.5-4.6-3.8-8.4-3.8c-3.8,0-6.6,1.3-8.5,3.8c-1.9,2.5-2.8,6.1-2.8,10.7c0,4.6,0.9,8.1,2.8,10.7
		C771.6,363.8,774.4,365.1,778.2,365.1 M778.2,330.2c2.9,0,5.5,0.5,7.9,1.4c2.4,1,4.4,2.3,6,4.1s2.9,3.9,3.8,6.4
		c0.9,2.5,1.3,5.3,1.3,8.5c0,3.1-0.4,5.9-1.3,8.5c-0.9,2.5-2.2,4.7-3.8,6.4s-3.7,3.1-6,4.1c-2.4,1-5,1.4-7.9,1.4
		c-2.9,0-5.6-0.5-7.9-1.4c-2.4-0.9-4.4-2.3-6-4.1c-1.7-1.8-2.9-3.9-3.8-6.4c-0.9-2.5-1.3-5.4-1.3-8.5c0-3.1,0.4-5.9,1.3-8.5
		c0.9-2.5,2.2-4.7,3.8-6.4c1.7-1.8,3.7-3.1,6-4.1C772.6,330.7,775.2,330.2,778.2,330.2"/>
	<path class="st0" d="M840.5,337v23.2c0,1.6,0.4,2.7,1.1,3.5c0.8,0.8,1.7,1.2,3,1.2c0.7,0,1.3-0.1,1.8-0.3c0.5-0.2,0.9-0.4,1.3-0.6
		c0.4-0.2,0.7-0.4,0.9-0.6s0.5-0.3,0.7-0.3c0.2,0,0.4,0.1,0.6,0.2c0.2,0.1,0.3,0.3,0.5,0.6l2.3,3.7c-1.2,1.1-2.7,2-4.5,2.7
		c-1.7,0.6-3.5,0.9-5.4,0.9c-3.2,0-5.7-0.9-7.4-2.7c-1.7-1.8-2.6-4.4-2.6-7.7V337h-17.8v33.5h-7.7v-33.4l-4.1-0.5
		c-0.6-0.1-1.1-0.3-1.5-0.6c-0.4-0.3-0.6-0.7-0.6-1.3v-3.2h6.2v-3.6c0-2.3,0.3-4.3,1-6.1c0.7-1.8,1.6-3.3,2.8-4.5
		c1.2-1.2,2.7-2.2,4.4-2.8c1.7-0.6,3.6-1,5.8-1c1.8,0,3.4,0.3,5,0.8l-0.2,3.8c0,0.3-0.1,0.6-0.3,0.8c-0.2,0.2-0.4,0.3-0.7,0.4
		c-0.3,0.1-0.7,0.1-1.1,0.1c-0.4,0-0.9,0-1.4,0c-1.2,0-2.2,0.1-3.2,0.4c-1,0.3-1.8,0.8-2.5,1.4c-0.7,0.7-1.2,1.6-1.6,2.7
		c-0.4,1.1-0.5,2.5-0.5,4.1v3.4h18.3l1.8-11.9c0.1-0.4,0.3-0.8,0.6-1c0.3-0.2,0.7-0.4,1.2-0.4h3.9v13.3h11.2v5.5H840.5z"/>
	<path class="st0" d="M909,323.6c-0.3,0.4-0.5,0.8-0.8,1c-0.3,0.2-0.7,0.3-1.1,0.3c-0.5,0-1-0.2-1.6-0.6c-0.6-0.4-1.3-0.9-2.2-1.4
		c-0.9-0.5-2-1-3.2-1.4c-1.2-0.4-2.7-0.6-4.5-0.6c-1.6,0-3.1,0.2-4.3,0.6c-1.2,0.4-2.3,1-3.1,1.8c-0.8,0.7-1.5,1.6-1.9,2.6
		c-0.4,1-0.6,2.1-0.6,3.3c0,1.5,0.4,2.8,1.1,3.7c0.8,1,1.8,1.8,3,2.5c1.2,0.7,2.7,1.3,4.3,1.8c1.6,0.5,3.2,1.1,4.9,1.6
		c1.7,0.6,3.3,1.2,4.9,1.9c1.6,0.7,3,1.6,4.3,2.8c1.2,1.1,2.3,2.5,3,4.1c0.8,1.6,1.2,3.6,1.2,5.9c0,2.5-0.4,4.8-1.3,6.9
		c-0.8,2.2-2.1,4-3.7,5.7c-1.6,1.6-3.6,2.9-6,3.8c-2.4,0.9-5,1.4-8,1.4c-1.8,0-3.5-0.2-5.2-0.5c-1.7-0.4-3.3-0.8-4.8-1.5
		c-1.5-0.6-2.9-1.4-4.2-2.3c-1.3-0.9-2.5-1.9-3.5-3l2.4-4c0.2-0.3,0.5-0.6,0.8-0.8c0.3-0.2,0.7-0.3,1.1-0.3c0.5,0,1.2,0.3,1.9,0.9
		c0.7,0.6,1.6,1.2,2.7,1.9c1.1,0.7,2.3,1.3,3.8,1.9c1.5,0.6,3.3,0.9,5.4,0.9c1.7,0,3.3-0.2,4.6-0.7c1.4-0.5,2.5-1.1,3.4-2
		c0.9-0.8,1.6-1.9,2.1-3.1c0.5-1.2,0.7-2.5,0.7-4c0-1.6-0.4-3-1.1-4c-0.8-1-1.8-1.9-3-2.6c-1.2-0.7-2.7-1.3-4.3-1.8
		c-1.6-0.5-3.2-1-4.9-1.5c-1.7-0.5-3.3-1.2-4.9-1.9c-1.6-0.7-3-1.6-4.3-2.8c-1.2-1.1-2.2-2.5-3-4.3c-0.8-1.7-1.1-3.8-1.1-6.3
		c0-2,0.4-3.9,1.2-5.8c0.8-1.9,1.9-3.5,3.4-5c1.5-1.4,3.3-2.6,5.5-3.5c2.2-0.9,4.7-1.3,7.5-1.3c3.1,0,6,0.5,8.7,1.5
		c2.6,1,4.9,2.4,6.9,4.3L909,323.6z"/>
	<path class="st0" d="M927.8,312.9v33.7h1.8c0.5,0,1-0.1,1.4-0.2c0.4-0.2,0.7-0.5,1.1-0.9l11.9-13.1c0.4-0.5,0.8-0.9,1.2-1.1
		c0.4-0.2,1-0.4,1.7-0.4h6.9l-14,15.3c-0.8,1-1.6,1.7-2.4,2.2c0.5,0.3,0.9,0.7,1.3,1.2c0.4,0.4,0.7,0.9,1.1,1.4l14.9,19.5h-6.8
		c-0.6,0-1.2-0.1-1.6-0.3c-0.5-0.2-0.9-0.6-1.2-1.1l-12.3-15.9c-0.4-0.6-0.8-1-1.2-1.1c-0.4-0.2-1-0.3-1.8-0.3h-2v18.8h-7.6v-57.6
		H927.8z"/>
	<path class="st0" d="M968.3,370.5h-7.6v-39.7h7.6V370.5z M969.8,318.6c0,0.7-0.1,1.4-0.4,2c-0.3,0.6-0.7,1.2-1.1,1.7
		c-0.5,0.5-1,0.9-1.7,1.1c-0.7,0.3-1.3,0.4-2,0.4c-0.7,0-1.4-0.1-2-0.4c-0.6-0.3-1.2-0.7-1.7-1.1c-0.5-0.5-0.9-1-1.1-1.7
		c-0.3-0.6-0.4-1.3-0.4-2c0-0.7,0.1-1.4,0.4-2c0.3-0.6,0.6-1.2,1.1-1.7c0.5-0.5,1-0.9,1.7-1.1c0.6-0.3,1.3-0.4,2-0.4
		c0.7,0,1.4,0.1,2,0.4c0.7,0.3,1.2,0.7,1.7,1.1c0.5,0.5,0.9,1,1.1,1.7C969.6,317.2,969.8,317.8,969.8,318.6"/>
	<rect x="979.5" y="312.9" class="st0" width="7.6" height="57.6"/>
	<rect x="998.2" y="312.9" class="st0" width="7.7" height="57.6"/>
	<path class="st0" d="M1040.1,337.7c-0.2,0.3-0.4,0.6-0.7,0.7c-0.2,0.1-0.5,0.2-0.9,0.2c-0.4,0-0.9-0.1-1.4-0.4
		c-0.5-0.3-1.1-0.6-1.8-0.9c-0.7-0.3-1.6-0.7-2.5-0.9c-1-0.3-2.1-0.4-3.4-0.4c-1.1,0-2.1,0.1-3,0.4c-0.9,0.3-1.7,0.7-2.3,1.1
		c-0.6,0.5-1.1,1.1-1.4,1.7c-0.3,0.7-0.5,1.4-0.5,2.1c0,1,0.3,1.8,0.9,2.5c0.6,0.7,1.4,1.2,2.3,1.7c0.9,0.5,2,0.9,3.2,1.3
		c1.2,0.4,2.4,0.8,3.7,1.2c1.3,0.4,2.5,0.9,3.7,1.4c1.2,0.5,2.3,1.2,3.2,2c1,0.8,1.7,1.8,2.3,2.9c0.6,1.1,0.9,2.5,0.9,4.1
		c0,1.8-0.3,3.6-1,5.1c-0.7,1.6-1.6,2.9-2.9,4.1c-1.3,1.1-2.9,2-4.8,2.7c-1.9,0.7-4.1,1-6.5,1c-2.7,0-5.3-0.5-7.6-1.4
		c-2.3-0.9-4.3-2.1-5.8-3.5l1.8-2.9c0.2-0.4,0.5-0.6,0.8-0.8c0.3-0.2,0.7-0.3,1.2-0.3c0.5,0,1,0.2,1.5,0.5c0.5,0.4,1.1,0.8,1.9,1.2
		c0.7,0.4,1.6,0.8,2.7,1.2c1,0.4,2.3,0.5,3.9,0.5c1.3,0,2.4-0.2,3.4-0.5c1-0.3,1.8-0.8,2.4-1.3c0.6-0.6,1.1-1.2,1.4-1.9
		c0.3-0.7,0.5-1.5,0.5-2.3c0-1-0.3-1.9-0.9-2.6c-0.6-0.7-1.4-1.3-2.3-1.8c-1-0.5-2-0.9-3.3-1.3s-2.5-0.8-3.7-1.2
		c-1.3-0.4-2.5-0.9-3.7-1.4c-1.2-0.5-2.3-1.2-3.3-2.1c-0.9-0.8-1.7-1.8-2.3-3c-0.6-1.2-0.9-2.7-0.9-4.4c0-1.5,0.3-3,1-4.4
		c0.6-1.4,1.6-2.6,2.8-3.7c1.2-1.1,2.7-1.9,4.5-2.6c1.8-0.6,3.8-1,6.1-1c2.6,0,5,0.4,7.1,1.2c2.1,0.8,3.9,2,5.4,3.4L1040.1,337.7z"
		/>
	<polygon class="st0" points="752.7,457.2 752.7,464.2 720.6,464.2 720.6,408.1 728.9,408.1 728.9,457.2 	"/>
	<path class="st0" d="M780.5,446.6c-3.1,0.1-5.7,0.3-7.9,0.7c-2.2,0.4-3.9,0.9-5.3,1.5c-1.4,0.6-2.3,1.4-2.9,2.2
		c-0.6,0.8-0.9,1.8-0.9,2.8c0,1,0.2,1.8,0.5,2.6c0.3,0.7,0.8,1.3,1.3,1.8c0.6,0.5,1.2,0.8,2,1c0.8,0.2,1.6,0.3,2.5,0.3
		c1.2,0,2.2-0.1,3.2-0.4c1-0.2,1.9-0.6,2.8-1c0.9-0.4,1.7-1,2.5-1.6c0.8-0.6,1.5-1.3,2.3-2.1V446.6z M758.2,430
		c2.2-2.1,4.6-3.7,7.2-4.7c2.6-1,5.4-1.6,8.5-1.6c2.3,0,4.3,0.4,6,1.1c1.7,0.7,3.2,1.8,4.4,3.1c1.2,1.3,2.1,2.9,2.7,4.8
		c0.6,1.9,0.9,3.9,0.9,6.1v25.3h-3.4c-0.8,0-1.3-0.1-1.7-0.4c-0.4-0.2-0.7-0.7-0.9-1.4l-0.8-3.5c-1,0.9-2,1.8-3,2.5
		c-1,0.7-2,1.3-3.1,1.8c-1.1,0.5-2.2,0.9-3.5,1.1c-1.2,0.3-2.6,0.4-4.1,0.4c-1.6,0-3-0.2-4.4-0.6c-1.4-0.4-2.6-1.1-3.6-2
		c-1-0.9-1.8-2-2.4-3.3c-0.6-1.3-0.9-2.9-0.9-4.6c0-1.6,0.4-3.1,1.3-4.5c0.8-1.4,2.2-2.7,4.1-3.9c1.9-1.1,4.4-2.1,7.5-2.8
		c3.1-0.7,6.9-1.1,11.4-1.3v-2.9c0-3-0.6-5.2-1.9-6.7c-1.3-1.5-3.1-2.2-5.6-2.2c-1.7,0-3.1,0.2-4.2,0.6c-1.1,0.4-2.1,0.9-2.9,1.4
		c-0.8,0.5-1.5,1-2.1,1.4c-0.6,0.4-1.2,0.6-1.9,0.6c-0.5,0-1-0.1-1.3-0.4c-0.4-0.3-0.7-0.6-0.9-1L758.2,430z"/>
	<path class="st0" d="M853.1,424.5l-12.8,39.7h-6.1c-0.7,0-1.2-0.5-1.5-1.4l-8.4-25.8c-0.2-0.6-0.4-1.3-0.5-1.9
		c-0.2-0.6-0.3-1.3-0.4-1.9c-0.2,1.4-0.6,2.7-1,3.9l-8.5,25.8c-0.3,1-0.8,1.4-1.7,1.4h-5.8l-12.8-39.7h6c0.6,0,1.1,0.1,1.5,0.4
		c0.4,0.3,0.7,0.6,0.8,1.1l7.1,24.4c0.2,1,0.4,1.9,0.6,2.9c0.2,0.9,0.4,1.9,0.5,2.8c0.2-0.9,0.5-1.9,0.8-2.8s0.6-1.9,0.8-2.9
		l7.9-24.5c0.1-0.4,0.4-0.8,0.7-1.1c0.4-0.3,0.8-0.4,1.3-0.4h3.3c0.6,0,1,0.1,1.4,0.4c0.4,0.3,0.6,0.6,0.8,1.1l7.7,24.5
		c0.3,1,0.6,2,0.8,2.9c0.3,0.9,0.5,1.9,0.7,2.9c0.2-0.9,0.3-1.9,0.5-2.8c0.2-1,0.4-1.9,0.7-2.9l7.3-24.4c0.1-0.4,0.4-0.8,0.8-1.1
		c0.4-0.3,0.9-0.4,1.4-0.4H853.1z"/>
	<path class="st0" d="M906.4,443.3l-8.3-21.7c-0.6-1.5-1.2-3.4-1.8-5.6c-0.3,1.1-0.6,2.2-0.9,3.1c-0.3,1-0.6,1.8-0.9,2.6l-8.3,21.7
		H906.4z M922.9,464.2h-6.4c-0.7,0-1.3-0.2-1.8-0.5c-0.5-0.4-0.8-0.8-1-1.4l-5-13H884l-5,13c-0.2,0.5-0.5,0.9-1,1.3
		c-0.5,0.4-1.1,0.6-1.8,0.6h-6.4l22.3-56.1h8.4L922.9,464.2z"/>
	<path class="st0" d="M955,431.9c-0.2,0.3-0.5,0.5-0.7,0.7c-0.2,0.2-0.5,0.3-1,0.3c-0.4,0-0.9-0.2-1.3-0.5c-0.5-0.3-1-0.7-1.7-1.1
		c-0.7-0.4-1.5-0.7-2.5-1.1c-1-0.3-2.2-0.5-3.6-0.5c-1.9,0-3.5,0.3-5,1c-1.4,0.7-2.6,1.6-3.6,2.9c-0.9,1.2-1.7,2.8-2.2,4.6
		c-0.5,1.8-0.7,3.8-0.7,6.1c0,2.3,0.3,4.4,0.8,6.2c0.5,1.8,1.3,3.3,2.2,4.6c1,1.2,2.1,2.2,3.5,2.8c1.4,0.6,2.9,1,4.6,1
		c1.6,0,3-0.2,4.1-0.6c1.1-0.4,2-0.8,2.7-1.3c0.7-0.5,1.3-0.9,1.8-1.3c0.5-0.4,1-0.6,1.4-0.6c0.6,0,1.1,0.2,1.4,0.7l2.2,2.8
		c-0.9,1.1-1.9,2.1-3.1,2.8c-1.1,0.8-2.3,1.4-3.6,1.9c-1.3,0.5-2.6,0.9-4,1.1c-1.4,0.2-2.8,0.4-4.2,0.4c-2.5,0-4.8-0.5-6.9-1.4
		c-2.2-0.9-4-2.2-5.6-4c-1.6-1.7-2.8-3.9-3.7-6.4c-0.9-2.5-1.4-5.4-1.4-8.6c0-2.9,0.4-5.7,1.2-8.2c0.8-2.5,2-4.7,3.6-6.5
		c1.6-1.8,3.6-3.2,5.9-4.3c2.3-1,5-1.5,8-1.5c2.8,0,5.3,0.5,7.5,1.4c2.2,0.9,4.1,2.2,5.8,3.9L955,431.9z"/>
	<path class="st0" d="M985.9,446.6c-3.1,0.1-5.7,0.3-7.9,0.7c-2.2,0.4-3.9,0.9-5.3,1.5c-1.4,0.6-2.3,1.4-2.9,2.2
		c-0.6,0.8-0.9,1.8-0.9,2.8c0,1,0.2,1.8,0.5,2.6c0.3,0.7,0.8,1.3,1.3,1.8c0.6,0.5,1.2,0.8,2,1c0.8,0.2,1.6,0.3,2.5,0.3
		c1.2,0,2.2-0.1,3.2-0.4c1-0.2,1.9-0.6,2.8-1c0.9-0.4,1.7-1,2.5-1.6c0.8-0.6,1.5-1.3,2.3-2.1V446.6z M963.6,430
		c2.2-2.1,4.6-3.7,7.2-4.7c2.6-1,5.4-1.6,8.5-1.6c2.3,0,4.3,0.4,6,1.1c1.7,0.7,3.2,1.8,4.4,3.1c1.2,1.3,2.1,2.9,2.7,4.8
		c0.6,1.9,0.9,3.9,0.9,6.1v25.3h-3.4c-0.8,0-1.3-0.1-1.7-0.4c-0.4-0.2-0.7-0.7-0.9-1.4l-0.8-3.5c-1,0.9-2,1.8-3,2.5
		c-1,0.7-2,1.3-3.1,1.8c-1.1,0.5-2.2,0.9-3.5,1.1c-1.2,0.3-2.6,0.4-4.1,0.4c-1.6,0-3-0.2-4.4-0.6c-1.4-0.4-2.6-1.1-3.6-2
		c-1-0.9-1.8-2-2.4-3.3c-0.6-1.3-0.9-2.9-0.9-4.6c0-1.6,0.4-3.1,1.3-4.5c0.8-1.4,2.2-2.7,4.1-3.9c1.9-1.1,4.4-2.1,7.5-2.8
		c3.1-0.7,6.9-1.1,11.4-1.3v-2.9c0-3-0.6-5.2-1.9-6.7c-1.3-1.5-3.1-2.2-5.6-2.2c-1.7,0-3.1,0.2-4.2,0.6c-1.1,0.4-2.1,0.9-2.9,1.4
		c-0.8,0.5-1.5,1-2.1,1.4c-0.6,0.4-1.2,0.6-1.9,0.6c-0.5,0-1-0.1-1.3-0.4c-0.4-0.3-0.7-0.6-0.9-1L963.6,430z"/>
	<path class="st0" d="M1029.1,434.1c-1.3-1.6-2.6-2.8-4-3.4c-1.4-0.7-3.1-1-4.9-1c-3.5,0-6.2,1.3-8.1,3.8c-1.9,2.5-2.9,6.2-2.9,11
		c0,2.5,0.2,4.7,0.6,6.5c0.4,1.8,1.1,3.2,1.9,4.4c0.8,1.1,1.8,2,3,2.5c1.2,0.5,2.5,0.8,4.1,0.8c2.2,0,4.1-0.5,5.7-1.5
		c1.6-1,3.1-2.4,4.5-4.2V434.1z M1036.8,406.6v57.6h-4.6c-1.1,0-1.7-0.5-2-1.5l-0.7-4.6c-1.7,2-3.6,3.6-5.8,4.8
		c-2.1,1.2-4.6,1.8-7.4,1.8c-2.3,0-4.3-0.4-6.2-1.3c-1.8-0.9-3.4-2.2-4.7-3.9c-1.3-1.7-2.3-3.8-3-6.3c-0.7-2.5-1.1-5.4-1.1-8.7
		c0-2.9,0.4-5.7,1.2-8.2c0.8-2.5,1.9-4.7,3.4-6.6c1.5-1.8,3.3-3.3,5.4-4.4c2.1-1.1,4.5-1.6,7.1-1.6c2.4,0,4.4,0.4,6.1,1.2
		c1.7,0.8,3.2,1.9,4.5,3.3v-21.7H1036.8z"/>
	<path class="st0" d="M1073.7,439.9c0-1.5-0.2-2.9-0.6-4.2c-0.4-1.3-1.1-2.4-1.9-3.3c-0.8-0.9-1.8-1.7-3-2.2
		c-1.2-0.5-2.6-0.8-4.1-0.8c-3.2,0-5.7,0.9-7.6,2.8c-1.8,1.8-3,4.4-3.5,7.7H1073.7z M1080,458.5c-0.9,1.1-2,2-3.2,2.8
		c-1.2,0.8-2.5,1.4-3.9,1.9c-1.4,0.5-2.8,0.9-4.3,1.1c-1.5,0.2-2.9,0.4-4.4,0.4c-2.7,0-5.3-0.5-7.6-1.4s-4.3-2.3-6.1-4.1
		c-1.7-1.8-3-4-4-6.6c-1-2.6-1.4-5.7-1.4-9.1c0-2.8,0.4-5.3,1.3-7.7c0.9-2.4,2.1-4.5,3.7-6.2c1.6-1.8,3.6-3.2,5.9-4.2
		c2.3-1,4.9-1.5,7.8-1.5c2.4,0,4.7,0.4,6.7,1.2c2,0.8,3.8,1.9,5.3,3.5c1.5,1.5,2.6,3.4,3.5,5.6c0.8,2.2,1.3,4.7,1.3,7.6
		c0,1.2-0.1,2-0.4,2.4c-0.3,0.4-0.7,0.6-1.4,0.6h-26c0.1,2.4,0.4,4.4,1,6.2c0.6,1.8,1.4,3.2,2.5,4.4c1.1,1.2,2.3,2,3.8,2.6
		c1.5,0.6,3.1,0.9,4.9,0.9c1.7,0,3.2-0.2,4.4-0.6c1.2-0.4,2.3-0.8,3.2-1.3s1.7-0.9,2.3-1.3c0.6-0.4,1.2-0.6,1.6-0.6
		c0.6,0,1.1,0.2,1.4,0.7L1080,458.5z"/>
	<path class="st0" d="M1088.8,464.2v-39.7h4.6c1.1,0,1.7,0.5,2,1.5l0.5,3.8c1.5-1.7,3.1-3.2,4.9-4.3c1.8-1.1,3.9-1.7,6.3-1.7
		c2.6,0,4.8,0.7,6.4,2.2c1.6,1.4,2.8,3.4,3.6,5.9c0.6-1.4,1.3-2.6,2.2-3.6c0.9-1,1.9-1.8,3-2.5c1.1-0.7,2.3-1.1,3.6-1.4
		c1.3-0.3,2.5-0.5,3.8-0.5c2.1,0,4,0.3,5.6,1c1.7,0.7,3,1.6,4.2,2.9c1.1,1.3,2,2.9,2.6,4.7c0.6,1.9,0.9,4,0.9,6.4v25.3h-7.6v-25.3
		c0-3-0.6-5.2-1.9-6.7c-1.3-1.5-3.2-2.3-5.6-2.3c-1.1,0-2.1,0.2-3.1,0.6c-1,0.4-1.9,0.9-2.6,1.7c-0.7,0.8-1.3,1.7-1.8,2.8
		c-0.4,1.1-0.6,2.4-0.6,3.9v25.3h-7.7v-25.3c0-3.1-0.6-5.3-1.8-6.8c-1.2-1.5-3-2.2-5.4-2.2c-1.6,0-3.2,0.4-4.6,1.3
		c-1.4,0.9-2.7,2-3.9,3.5v29.4H1088.8z"/>
	<path class="st0" d="M1187,424.5l-22,51.2c-0.2,0.6-0.5,1-0.9,1.3c-0.4,0.3-1,0.5-1.7,0.5h-5.7l7.3-15.8l-16.3-37.2h6.6
		c0.7,0,1.2,0.2,1.5,0.5c0.4,0.3,0.6,0.7,0.8,1.1l10.1,23.8c0.2,0.6,0.4,1.2,0.6,1.8c0.2,0.6,0.4,1.2,0.5,1.8
		c0.2-0.6,0.4-1.2,0.6-1.9c0.2-0.6,0.4-1.2,0.7-1.8l9.7-23.8c0.2-0.4,0.5-0.8,0.9-1.1c0.4-0.3,0.8-0.4,1.3-0.4H1187z"/>
	<polygon class="st0" points="210.6,167.9 210.6,621 663.7,621 663.7,491.3 650.3,491.3 650.3,607.5 224.1,607.5 224.1,181.3 
		650.3,181.3 650.3,287.8 663.7,287.8 663.7,167.9 	"/>
	<path class="st0" d="M316.3,438.6c-13.5,0-22.4-5.9-26.8-15.3l9.2-5.4c3.4,5.9,8.7,10.6,17.7,10.6c10.6,0,14.9-6.1,14.9-14.4
		c0-9.2-5.9-12.6-15.3-15.6c-17.3-5.4-23.9-11.1-23.9-24.4c0-14,9.7-23.8,25-23.8c12.8,0,20.3,5.1,24.2,12.1l-8.8,6.1
		c-3.4-5.9-8-8.2-15.8-8.2c-9.6,0-14,6-14,13.8c0,9,8.5,12.1,19.3,15.3c14.9,4.6,20.1,11.7,20.1,24.7
		C342.1,429.1,332.7,438.6,316.3,438.6"/>
	<polygon class="st0" points="552.9,351.9 563.2,351.9 563.2,428.5 597.8,428.5 597.8,438.6 552.9,438.6 	"/>
	<path class="st0" d="M444.2,309.9c-13.5,0-22.4-5.9-26.8-15.3l9.2-5.4c3.4,5.9,8.7,10.6,17.7,10.6c10.6,0,14.9-6.1,14.9-14.4
		c0-9.2-5.9-12.6-15.3-15.6c-17.3-5.4-23.9-11.1-23.9-24.4c0-14,9.7-23.8,25-23.8c12.8,0,20.3,5.1,24.2,12.1l-8.8,6.1
		c-3.4-5.9-8-8.2-15.8-8.2c-9.6,0-14,6-14,13.8c0,9,8.5,12.1,19.3,15.3c14.9,4.6,20.1,11.7,20.1,24.7
		C470,300.5,460.5,309.9,444.2,309.9"/>
	<path class="st0" d="M443.8,496.6h-0.5l-4.9,19.1l-6.4,22.5H455l-6.4-22.4L443.8,496.6z M457.4,547.5h-27.7l-5.4,19.7h-10.6
		l25.2-86.7h9.3l25.3,86.7h-10.7L457.4,547.5z"/>
	<polygon class="st0" points="449.2,398.9 449.2,429.5 438.2,429.5 438.2,398.9 410.9,398.9 410.9,388.9 438.2,388.9 438.2,359.3 
		449.2,359.3 449.2,388.9 476.5,388.9 476.5,398.9 	"/>
</g>
</svg>
