<?xml version="1.0" encoding="utf-8"?>
<!-- Generator: Adobe Illustrator 23.0.6, SVG Export Plug-In . SVG Version: 6.00 Build 0)  -->
<svg version="1.1" id="Capa_1" xmlns="http://www.w3.org/2000/svg" xmlns:xlink="http://www.w3.org/1999/xlink" x="0px" y="0px"
	 viewBox="0 0 189.1 255.9" style="enable-background:new 0 0 189.1 255.9;" xml:space="preserve">
<style type="text/css">
	.st0{fill:#FFFFFF;}
</style>
<g>
	<path class="st0" d="M94.6,38.8c-30.8,0-55.8,25-55.8,55.8s25,55.8,55.8,55.8s55.8-25,55.8-55.8S125.3,38.8,94.6,38.8z M94.6,135.3
		c-22.5,0-40.8-18.3-40.8-40.8s18.3-40.8,40.8-40.8s40.8,18.3,40.8,40.8S117,135.3,94.6,135.3z"/>
	<path class="st0" d="M94.6,0C42.4,0,0,42.4,0,94.6c0,30.1,25.2,74.9,40.3,98.9c9.9,15.8,20.5,30.9,29.9,42.4
		c15.1,18.5,20.5,20,24.4,20c3.9,0,9-1.5,24.1-20c9.4-11.6,20.1-26.6,29.9-42.3c15.1-24.1,40.5-69,40.5-98.9
		C189.1,42.4,146.7,0,94.6,0z M138.2,181.8c-19.4,31.5-37.2,52.8-43.7,58.2c-6.6-5.3-24.1-26-43.7-58.1C28,144.9,15,113.1,15,94.6
		C15,50.7,50.7,15,94.6,15s79.6,35.7,79.6,79.6C174.1,112.9,161,144.7,138.2,181.8z"/>
</g>
</svg>
