<?xml version="1.0" encoding="iso-8859-1"?>
<!-- Generator: Adobe Illustrator 22.1.0, SVG Export Plug-In . SVG Version: 6.00 Build 0)  -->
<svg version="1.1" id="Layer_1" xmlns="http://www.w3.org/2000/svg" xmlns:xlink="http://www.w3.org/1999/xlink" x="0px" y="0px"
	 viewBox="0 0 600 600" style="enable-background:new 0 0 600 600;" xml:space="preserve">
<g>
	<path style="fill:#E94F35;" d="M516.969,338.881l-28.832-8.237c-1.244-0.356-2.114-1.507-2.114-2.803v-9.624
		c2.346-1.624,4.584-3.444,6.675-5.474c10.137-9.836,15.718-23.031,15.718-37.153v-13.28l2.788-5.574
		c3.06-6.122,4.677-12.972,4.677-19.815v-35.975c0-3.855-3.126-6.981-6.981-6.981h-67.18c-24.429,0-44.304,19.874-44.304,44.302
		v0.417c0,5.689,1.346,11.387,3.89,16.475l3.575,7.15v11.402c0,18.071,8.904,34.286,22.393,44.042l0.002,10.086
		c0,1.556,0,2.199-5.765,3.847l-14.068,4.02l-40.696-14.799c0.147-1.919-0.501-3.873-1.902-5.344L351.84,301.9v-22.935
		c1.375-1.132,2.731-2.296,4.044-3.527c16.406-15.378,25.815-37.087,25.815-59.564v-18.316c4.954-10.781,7.464-22.187,7.464-33.935
		V88.981c0-3.855-3.126-6.981-6.981-6.981H277.679c-36.777,0-66.696,29.92-66.696,66.696v14.93c0,11.748,2.51,23.154,7.464,33.935
		v15.76c0,26.096,11.604,49.606,29.857,65.107v23.475l-13.004,13.662c-1.401,1.473-2.049,3.425-1.903,5.345l-42.952,15.617
		c-3.113,1.132-6.004,2.666-8.63,4.522l-6.745-3.372c20.078-8.739,26.438-21.03,26.744-21.642c0.983-1.964,0.983-4.279,0-6.243
		c-5.034-10.065-5.643-28.517-6.133-43.34c-0.162-4.935-0.317-9.596-0.612-13.749c-2.381-33.485-27.836-58.737-59.215-58.737
		c-31.378,0-56.835,25.25-59.214,58.737c-0.294,4.152-0.449,8.815-0.612,13.75c-0.49,14.824-1.101,33.272-6.132,43.337
		c-0.983,1.966-0.983,4.279,0,6.245c0.305,0.611,6.652,12.877,26.77,21.626l-18.734,9.367
		c-10.016,5.012-16.237,15.079-16.237,26.275v109.54c0,3.598,2.761,6.457,6.26,6.835v0.115h0.575
		c0.051,0.002,0.094,0.031,0.146,0.031c0.052,0,0.095-0.03,0.146-0.031h97.375v21.506c0,3.715,2.924,6.684,6.585,6.901v0.064h0.323
		c0.026,0,0.047,0.016,0.073,0.016s0.047-0.016,0.073-0.016h126.744c0.028,0,0.05,0.016,0.077,0.016s0.049-0.016,0.077-0.016
		h126.735c0.03,0,0.052,0.016,0.082,0.016c0.03,0,0.052-0.016,0.082-0.016h0.208v-0.042c3.713-0.161,6.691-3.169,6.691-6.924
		v-21.506h22.538c0.057,0.002,0.106,0.035,0.163,0.035s0.106-0.033,0.163-0.035h74.318c0.057,0.002,0.106,0.035,0.163,0.035
		s0.106-0.033,0.163-0.035h0.301v-0.059c3.627-0.254,6.517-3.197,6.517-6.887V367.131
		C538.273,354.084,529.512,342.467,516.969,338.881z M513.133,352.312c6.582,1.879,11.178,7.973,11.178,14.818v108.435h-60.682
		V360.594l17.701-17.699c0.94,0.478,1.929,0.882,2.97,1.179L513.133,352.312z M441.237,324.891
		c4.396,1.443,9.029,2.299,13.824,2.443c0.538,0.016,1.072,0.024,1.608,0.024c5.298,0,10.47-0.801,15.391-2.329v2.812
		c0,1.393,0.175,2.758,0.505,4.069l-15.918,15.916l-15.842-15.841c0.276-1.256,0.432-2.631,0.432-4.147L441.237,324.891z
		 M418.843,273.714v-13.051c0-1.085-0.253-2.153-0.737-3.122l-4.312-8.626c-1.58-3.159-2.416-6.696-2.416-10.229v-0.417
		c0-16.73,13.611-30.342,30.342-30.342h60.198v28.996c0,4.685-1.107,9.378-3.203,13.568l-3.524,7.049
		c-0.485,0.971-0.738,2.037-0.738,3.122v14.928c0,10.314-4.077,19.95-11.479,27.134c-7.4,7.179-17.174,10.972-27.494,10.654
		C435.278,312.773,418.843,294.978,418.843,273.714z M359.641,333.185l45.285,16.466c9.006,3.275,15.058,11.917,15.058,21.499
		v132.886H307.053V352.163l11.501,11.5c2.73,2.732,6.384,4.234,10.199,4.234c0.478,0,0.959-0.024,1.44-0.071
		c4.324-0.429,8.186-2.747,10.596-6.361L359.641,333.185z M262.267,301.008v-13.031c9.782,5.288,20.735,8.594,32.384,9.348
		c1.841,0.12,3.669,0.179,5.493,0.179c13.349,0,26.197-3.192,37.734-9.247v12.752l-37.805,25.841L262.267,301.008z M289.186,336.32
		l-17.468,17.468c-0.049,0.049-0.162,0.163-0.389,0.139c-0.228-0.021-0.317-0.155-0.355-0.212l-21.712-32.568l6.987-7.341
		L289.186,336.32z M343.896,313.808l6.988,7.341l-21.713,32.568c-0.037,0.057-0.127,0.191-0.354,0.214
		c-0.227,0.028-0.34-0.092-0.389-0.139l-17.468-17.47L343.896,313.808z M232.409,213.318v-17.321c0-1.051-0.238-2.087-0.695-3.036
		c-4.492-9.301-6.769-19.172-6.769-29.336v-14.93c0-29.078,23.656-52.734,52.734-52.734H375.2v67.665
		c0,10.163-2.278,20.033-6.769,29.336c-0.458,0.946-0.695,1.985-0.695,3.036v19.877c0,18.906-7.6,36.443-21.4,49.377
		c-1.724,1.615-3.511,3.128-5.361,4.539c-0.04,0.028-0.08,0.057-0.12,0.087c-12.927,9.815-28.763,14.586-45.299,13.514
		C260.146,281.101,232.409,250.32,232.409,213.318z M195.217,349.65l45.286-16.466l18.852,28.279
		c2.41,3.616,6.273,5.934,10.596,6.361c0.482,0.049,0.961,0.071,1.44,0.071c3.814,0,7.468-1.502,10.199-4.232l11.501-11.5v151.874
		H180.159V371.149C180.159,361.565,186.209,352.925,195.217,349.65z M187.635,312.169c-2.78,3.39-9.36,9.709-22.406,14.407v-8.327
		c8.122-5.592,14.579-13.457,18.431-22.758C184.498,301.503,185.733,307.197,187.635,312.169z M89.987,266.917
		c0.155-4.8,0.305-9.334,0.582-13.222c0.891-12.543,5.904-24.102,14.113-32.549c8.284-8.523,19.354-13.216,31.174-13.216
		c11.82,0,22.89,4.692,31.175,13.216c8.21,8.447,13.222,20.006,14.114,32.549c0.275,3.888,0.425,8.421,0.584,13.221
		c0.014,0.412,0.028,0.83,0.042,1.245c-7.595-11.703-19.326-20.327-34.482-25.196c-14.003-4.5-26.046-4.222-26.553-4.208
		c-1.829,0.052-3.564,0.816-4.832,2.133l-12.596,13.063c-2.676,2.777-2.596,7.196,0.18,9.871c2.775,2.678,7.195,2.596,9.871-0.179
		l10.481-10.869c9.026,0.441,38.065,3.819,49.359,28.687c-2.842,18.326-18.593,31.938-37.34,31.938
		c-20.846,0-37.804-16.96-37.804-37.806c0-3.855-3.126-6.981-6.981-6.981c-0.392,0-0.773,0.04-1.146,0.102
		C89.947,268.113,89.967,267.512,89.987,266.917z M152.965,339.277l-6.491,6.168c-5.955,5.658-15.282,5.656-21.235-0.002
		l-6.492-6.168c1.096-2.053,1.698-4.38,1.698-6.818v-7.441c4.87,1.523,10.048,2.344,15.412,2.344c5.359,0,10.534-0.827,15.412-2.339
		l-0.002,7.434C151.267,334.896,151.869,337.225,152.965,339.277z M84.076,312.167c1.907-4.982,3.143-10.691,3.979-16.717
		c3.85,9.232,10.297,17.112,18.426,22.734v8.367C93.422,321.852,86.872,315.588,84.076,312.167z M166.196,371.149v104.417H75.657
		V373.303c0-5.875,3.265-11.158,8.519-13.785l23.329-11.665l8.115,7.712c5.674,5.392,12.953,8.087,20.235,8.087
		c7.28,0,14.563-2.697,20.235-8.087l8.114-7.711l7.607,3.803C168.228,357.388,166.196,364.109,166.196,371.149z M423.621,345.609
		l1.725-0.493c1.739-0.497,4.113-1.177,6.496-2.344l17.824,17.823v114.972h-15.72V371.151
		C433.947,361.445,430.091,352.34,423.621,345.609z"/>
	<path style="fill:#E94F35;" d="M300.521,159.784c21.77,1.448,37.538,6.913,46.866,16.242c2.726,2.726,7.148,2.726,9.873,0
		c2.726-2.726,2.726-7.148,0-9.873c-26.403-26.403-81.646-21.355-104.173-17.96c-7.096,1.07-12.246,7.075-12.246,14.278v16.083
		c0,3.855,3.126,6.981,6.981,6.981c3.856,0,6.981-3.126,6.981-6.981v-16.084c0-0.236,0.156-0.439,0.366-0.472
		C264.165,160.644,282.021,158.549,300.521,159.784z"/>
</g>
<g>
</g>
<g>
</g>
<g>
</g>
<g>
</g>
<g>
</g>
<g>
</g>
<g>
</g>
<g>
</g>
<g>
</g>
<g>
</g>
<g>
</g>
<g>
</g>
<g>
</g>
<g>
</g>
<g>
</g>
</svg>
