<svg xmlns="http://www.w3.org/2000/svg" viewBox="0 0 153 33.06"><defs><style>.cls-1{fill:#fff;}</style></defs><g id="Слой_2" data-name="Слой 2"><g id="logo_1_color"><path class="cls-1" d="M44.81.32V9.58h0L51.2.32h1.36l-9,12.9H42.24l1.5-2.16V.32Z"/><path class="cls-1" d="M53.45.32h1.07V5.05h5.62V.32h1.07V11.06H60.14V6H54.52v5H53.45Z"/><path class="cls-1" d="M64.43.32V9.54L70.82.32H72V11.06H70.88V1.85l-6.39,9.21H63.36V.32Z"/><path class="cls-1" d="M74.1.32h2.69c1.11,0,3.55.13,3.55,2.83A2.46,2.46,0,0,1,79.05,5.3,2.69,2.69,0,0,1,80.92,8c0,.84-.36,3-3.87,3h-3Zm2.69,4.6c.9,0,2.48-.16,2.48-1.81S77.57,1.3,76.79,1.3H75.18V4.92Zm.26,5.17c1,0,2.78-.17,2.78-2.05S78.11,5.9,77.05,5.9H75.18v4.19Z"/><path class="cls-1" d="M82.43.32h5.89v1H83.51V5.17h4.65v1H83.51v4h4.81v1H82.43Z"/><path class="cls-1" d="M90.21.32h3.4c3.15,0,3.7,2,3.7,3.23,0,1.59-1,3.2-3.7,3.2H91.29v4.31H90.21Zm1.08,5.46h2.33c1.92,0,2.61-1.12,2.61-2.23S95.54,1.3,93.62,1.3H91.29Z"/><path class="cls-1" d="M111.38.32V11.06H110.3V6.9h-3.55l-2.34,3.34a4.52,4.52,0,0,0,3.42-2.59h1.22a5.67,5.67,0,0,1-5.13,3.6,5.52,5.52,0,0,1-5.66-5.59,5.67,5.67,0,0,1,9.62-3.91l-.65.87a4.53,4.53,0,0,0-7.9,3,4.55,4.55,0,0,0,3.82,4.58L110,.32ZM110.3,5.93V1.72h0l-2.86,4.21Z"/><path class="cls-1" d="M113.61.32H117c3.15,0,3.7,2,3.7,3.23,0,1.59-1,3.2-3.7,3.2h-2.32v4.31h-1.07Zm1.07,5.46H117c1.91,0,2.61-1.12,2.61-2.23S118.93,1.3,117,1.3h-2.34Z"/><path class="cls-1" d="M123.27.32V9.54L129.66.32h1.13V11.06h-1.07V1.85l-6.39,9.21H122.2V.32Z"/><path class="cls-1" d="M133.93.32V9.58h0L140.32.32h1.36l-9,12.9h-1.37l1.5-2.16V.32Z"/><path class="cls-1" d="M144.12.32h1.36V9.18h0L151.64.32H153V11.06h-1.07V1.72h0l-6.42,9.34h-1.07V1.72h0l-6.44,9.34h-1.28Z"/><path class="cls-1" d="M0,27.84v5.22H11.22V22.14H22.14V11.23H33.06V0H0ZM32.75.53V10.7L27.67,5.61Zm-.22,10.39H22.36l5.09-5.09ZM22.24.73l.89.89-.89.88Zm0,2.13,1.07-1.07L24.48,3,22.24,5.21Zm0,2.7,2.42-2.42,1.18,1.18-3.6,3.59Zm0,2.7L26,4.5l1.17,1.16L22.24,10.6ZM11.44,21.83l5.09-5.08,5.09,5.08Zm10.39-.21-5.08-5.09,5.08-5.09Zm.11-10.82L20.82,9.69l1.12-1.12Zm0-2.58L20.65,9.51,19.47,8.33l.43-.43,2-2Zm0-2.7-2,2-.61.61L18.12,7,19.9,5.2l2-2Zm0-2.71-2,2-2,2L16.77,5.63,19.9,2.49l2-2ZM21.62.31,16.53,5.39,11.44.31ZM11.23,11.44l1,1-1,1Zm0,2.43,1.21-1.21,1.18,1.18-2.39,2.39Zm0,2.71L13.79,14,15,15.19l-3.74,3.74Zm0,2.7,3.91-3.92,1.17,1.17-5.08,5.09ZM.53,32.75l5.08-5.08,5.09,5.08ZM3,22.14H5.31L2.92,24.53,1.74,23.36Zm-1.39,1-1-1H2.61Zm4.09-1H8L4.27,25.89,3.09,24.71Zm4.07-1.71L8.55,19.25l2.37-2.36v2.35Zm1.19-.84v2l-1-1Zm-2.54-.51L7.2,17.9l3.72-3.72v2.35ZM7,17.72,5.83,16.53l5.09-5.09v2.39ZM9.78,9.56,8.6,8.39l2.32-2.32V8.42Zm1.14-.78V10.7l-1-1ZM8.43,8.21,7.25,7l3.67-3.66V5.72Zm2.27,2.71H.53L5.61,5.83Zm0,.31L5.61,16.31.53,11.23ZM8.36,22.14H10.7L5.61,27.23,4.45,26.06Zm2.56,10.39L5.83,27.45l5.09-5.09ZM10.92,3,7.08,6.86,5.81,5.59,10.92.49ZM10.66.31,5.58,5.39l-1-1,4-4ZM8.22.31,4.35,4.17,3.18,3,5.87.31ZM5.51.31,3,2.82,1.83,1.64,3.16.31Zm-2.7,0L1.65,1.47.49.31ZM.31.56,5.38,5.63.31,10.7Zm0,10.88,5.08,5.09L.31,21.62Zm5.08,16L.31,32.53V22.36Z"/></g></g></svg>