<?xml version="1.0" encoding="utf-8"?>
<!-- Generator: Adobe Illustrator 23.0.6, SVG Export Plug-In . SVG Version: 6.00 Build 0)  -->
<svg version="1.1" id="_x30_3" xmlns="http://www.w3.org/2000/svg" xmlns:xlink="http://www.w3.org/1999/xlink" x="0px" y="0px"
	 viewBox="0 0 88 88" style="enable-background:new 0 0 88 88;" xml:space="preserve">
<style type="text/css">
	.st0{fill:#E94F35;}
</style>
<g>
	<g>
		<g>
			<path class="st0" d="M87.1,0.2c-0.5-0.3-1.2-0.3-1.7,0L53.9,18.9c-0.8,0.5-1.1,1.5-0.6,2.4c0.5,0.8,1.5,1.1,2.4,0.6L78.3,8.5
				L36.2,52.1l-20.9-6.4l44.3-26.2c0.8-0.5,1.1-1.5,0.6-2.4c-0.5-0.8-1.5-1.1-2.4-0.6L10.1,44.8c-0.6,0.3-0.9,1-0.8,1.7
				c0.1,0.7,0.6,1.2,1.2,1.4l25,7.6l11,20.1c0,0,0,0,0,0.1c0.2,0.3,0.5,0.6,0.8,0.7c0.2,0.1,0.4,0.1,0.7,0.1c0.4,0,0.9-0.2,1.2-0.5
				l12.7-12.4l23.9,7.3c0.2,0.1,0.3,0.1,0.5,0.1c0.4,0,0.7-0.1,1-0.3c0.4-0.3,0.7-0.8,0.7-1.4V1.7C88,1.1,87.7,0.5,87.1,0.2z
				 M46.6,56.6c-0.2,0.3-0.3,0.6-0.3,1v10.5l-7.5-13.7l33.3-34.6L46.6,56.6z M49.8,70.7V59.9l8.4,2.6L49.8,70.7z M84.6,66.9
				L50.8,56.6L84.6,7.9V66.9z"/>
		</g>
	</g>
	<g>
		<g>
			<path class="st0" d="M28.3,59.7c-0.7-0.7-1.8-0.7-2.4,0l-16,16c-0.7,0.7-0.7,1.8,0,2.4c0.3,0.3,0.8,0.5,1.2,0.5
				c0.4,0,0.9-0.2,1.2-0.5l16-16C28.9,61.5,28.9,60.4,28.3,59.7z"/>
		</g>
	</g>
	<g>
		<g>
			<path class="st0" d="M6.9,81.1c-0.7-0.7-1.8-0.7-2.4,0l-4,4c-0.7,0.7-0.7,1.8,0,2.4C0.8,87.8,1.3,88,1.7,88s0.9-0.2,1.2-0.5l4-4
				C7.6,82.9,7.6,81.8,6.9,81.1z"/>
		</g>
	</g>
	<g>
		<g>
			<path class="st0" d="M24.5,85c-0.3-0.3-0.8-0.5-1.2-0.5c-0.5,0-0.9,0.2-1.2,0.5s-0.5,0.8-0.5,1.2c0,0.5,0.2,0.9,0.5,1.2
				c0.3,0.3,0.8,0.5,1.2,0.5s0.9-0.2,1.2-0.5c0.3-0.3,0.5-0.8,0.5-1.2C25,85.7,24.8,85.3,24.5,85z"/>
		</g>
	</g>
	<g>
		<g>
			<path class="st0" d="M37.3,72.2c-0.7-0.7-1.8-0.7-2.4,0l-8.5,8.5c-0.7,0.7-0.7,1.8,0,2.4c0.3,0.3,0.8,0.5,1.2,0.5
				s0.9-0.2,1.2-0.5l8.5-8.5C38,73.9,38,72.8,37.3,72.2z"/>
		</g>
	</g>
	<g>
		<g>
			<path class="st0" d="M66.6,71.5c-0.7-0.7-1.8-0.7-2.4,0L55.7,80c-0.7,0.7-0.7,1.8,0,2.4c0.3,0.3,0.8,0.5,1.2,0.5
				c0.4,0,0.9-0.2,1.2-0.5l8.5-8.5C67.3,73.3,67.3,72.2,66.6,71.5z"/>
		</g>
	</g>
</g>
</svg>
