<?xml version="1.0" encoding="utf-8"?>
<!-- Generator: Adobe Illustrator 23.0.6, SVG Export Plug-In . SVG Version: 6.00 Build 0)  -->
<svg version="1.1" id="_x30_3" xmlns="http://www.w3.org/2000/svg" xmlns:xlink="http://www.w3.org/1999/xlink" x="0px" y="0px"
	 viewBox="0 0 82 93.3" style="enable-background:new 0 0 82 93.3;" xml:space="preserve">
<style type="text/css">
	.st0{fill:#E94F35;}
</style>
<g>
	<g>
		<path class="st0" d="M79.9,57.8c1.3-1.5,2.1-3.4,2.1-5.5c0-4.5-3.7-8.2-8.2-8.2H57.9c1.6-4.8,2.2-11.1,2.2-13.9v-2.7
			c0-6-4.9-10.9-10.9-10.9h-2.7c-1.3,0-2.3,0.9-2.7,2.1l-1.5,6c-2.1,8.3-8.7,17.5-15.6,19.2c-1.2-3-4.2-5.2-7.6-5.2H2.7
			c-1.5,0-2.7,1.2-2.7,2.7v49.2c0,1.5,1.2,2.7,2.7,2.7h16.4c3.3,0,6.1-1.9,7.4-4.7l9.4,3.1c3.1,1,6.3,1.5,9.5,1.5h22.9
			c4.5,0,8.2-3.7,8.2-8.2c0-1.1-0.2-2.1-0.6-3c3.5-0.9,6-4.1,6-7.9c0-2.1-0.8-4-2.1-5.5c1.3-1.5,2.1-3.4,2.1-5.5
			C82,61.1,81.2,59.2,79.9,57.8z M21.9,85.1c0,1.5-1.2,2.7-2.7,2.7H5.5V44.1h13.7c1.5,0,2.7,1.2,2.7,2.7V85.1z M68.3,60.5h5.5
			c1.5,0,2.7,1.2,2.7,2.7c0,1.5-1.2,2.7-2.7,2.7h-5.5c-1.5,0-2.7,1.2-2.7,2.7c0,1.5,1.2,2.7,2.7,2.7h5.5c1.5,0,2.7,1.2,2.7,2.7
			s-1.2,2.7-2.7,2.7h-5.5c-1.5,0-2.7,1.2-2.7,2.7s1.2,2.7,2.7,2.7c1.5,0,2.7,1.2,2.7,2.7s-1.2,2.7-2.7,2.7H45.4
			c-2.6,0-5.3-0.4-7.8-1.3l-10.3-3.4V49.3c4.3-0.8,8.5-3.5,12.3-8c3.7-4.3,6.7-10.1,8-15.4l1-3.9h0.6c3,0,5.5,2.5,5.5,5.5v2.7
			c0,3.7-1.1,10.7-2.6,13.9h-5.6c-1.5,0-2.7,1.2-2.7,2.7s1.2,2.7,2.7,2.7h27.3c1.5,0,2.7,1.2,2.7,2.7c0,1.5-1.2,2.7-2.7,2.7h-5.5
			c-1.5,0-2.7,1.2-2.7,2.7C65.6,59.3,66.8,60.5,68.3,60.5z"/>
	</g>
</g>
<g>
	<g>
		<circle class="st0" cx="13.7" cy="79.6" r="2.7"/>
	</g>
</g>
<g>
	<g>
		<path class="st0" d="M51.9,0c-1.5,0-2.7,1.2-2.7,2.7v5.6c0,1.5,1.2,2.7,2.7,2.7s2.7-1.2,2.7-2.7V2.7C54.7,1.2,53.4,0,51.9,0z"/>
	</g>
</g>
<g>
	<g>
		<path class="st0" d="M40.3,12.1l-3.9-3.9c-1.1-1.1-2.8-1.1-3.9,0c-1.1,1.1-1.1,2.8,0,3.9l3.9,3.9c1.1,1.1,2.8,1.1,3.9,0
			C41.4,14.9,41.4,13.1,40.3,12.1z"/>
	</g>
</g>
<g>
	<g>
		<path class="st0" d="M71.3,8.2c-1.1-1.1-2.8-1.1-3.9,0l-3.9,3.9c-1.1,1.1-1.1,2.8,0,3.9c1.1,1.1,2.8,1.1,3.9,0l3.9-3.9
			C72.3,11,72.3,9.3,71.3,8.2z"/>
	</g>
</g>
</svg>
