<?xml version="1.0" encoding="utf-8"?>
<!-- Generator: Adobe Illustrator 23.0.6, SVG Export Plug-In . SVG Version: 6.00 Build 0)  -->
<svg version="1.1" id="_x30_3" xmlns="http://www.w3.org/2000/svg" xmlns:xlink="http://www.w3.org/1999/xlink" x="0px" y="0px"
	 viewBox="0 0 96 103.4" style="enable-background:new 0 0 96 103.4;" xml:space="preserve">
<style type="text/css">
	.st0{fill:#E94F35;}
</style>
<g id="XMLID_3821_">
	<g id="XMLID_1375_">
		<g id="XMLID_1376_">
			<g id="XMLID_746_">
				<path id="XMLID_747_" class="st0" d="M70.8,95.7c-4.4,2.4-9.3,3.7-14.3,3.7H2c-1.1,0-2,0.9-2,2c0,1.1,0.9,2,2,2h54.4
					c5.7,0,11.3-1.4,16.2-4.2c1-0.5,1.3-1.8,0.8-2.7C73,95.6,71.7,95.2,70.8,95.7L70.8,95.7z"/>
				<path id="XMLID_1538_" class="st0" d="M93.6,68.8c-3.1-3.1-8.3-3.1-11.4,0L70.4,80.7c-2,2-4.4,3.5-7,4.5
					c0.3-0.9,0.5-1.9,0.5-2.9c0-4.4-3.6-8.1-8-8.1l-16,0l-3-3.1c-4.1-4.1-9.7-6.5-15.6-6.5c-4.8,0-9.5,1.6-13.2,4.5l-7.2,5.5
					c-0.9,0.7-1.1,1.9-0.4,2.8c0.7,0.9,1.9,1.1,2.8,0.4l7.2-5.5c3.1-2.4,6.9-3.7,10.8-3.7c4.7,0,9.4,1.9,12.7,5.3l3.6,3.7
					c0.4,0.4,0.9,0.6,1.4,0.6l16.8,0c2.2,0,4,1.8,4,4c0,2.2-1.8,4-4,4l-26.5,0c-1.1,0-2,0.9-2,2c0,1.1,0.9,2,2,2h27.5
					c6.2,0,12-2.4,16.4-6.8l11.8-11.8c1.6-1.6,4.1-1.6,5.7,0c0.8,0.8,1.2,1.8,1.2,2.9c0,1.1-0.4,2.1-1.2,2.9L70,96.2
					c-0.8,0.8-0.8,2.1,0,2.9c0.8,0.8,2.1,0.8,2.9,0l20.8-18.8c1.5-1.5,2.4-3.6,2.4-5.7C96,72.4,95.1,70.4,93.6,68.8L93.6,68.8z"/>
				<path id="XMLID_1546_" class="st0" d="M23.8,57.4H46V65c0,1.1,0.9,2,2,2c1.1,0,2-0.9,2-2v-7.7h22.2c3.3,0,6.1-2.7,6.1-6.1v-9.7
					c0-1.6-0.6-3-1.5-4c1-1.1,1.5-2.5,1.5-4v-9.7c0-1.6-0.6-3-1.5-4c1-1.1,1.5-2.5,1.5-4V6.1c0-3.3-2.7-6.1-6.1-6.1H23.8
					c-3.3,0-6.1,2.7-6.1,6.1v9.7c0,1.6,0.6,3,1.5,4c-1,1.1-1.5,2.5-1.5,4v9.7c0,1.6,0.6,3,1.5,4c-1,1.1-1.5,2.5-1.5,4v9.7
					C17.7,54.6,20.4,57.4,23.8,57.4L23.8,57.4z M74.3,51.3c0,1.1-0.9,2-2,2H23.8c-1.1,0-2-0.9-2-2v-9.7c0-1.1,0.9-2,2-2h48.5
					c1.1,0,2,0.9,2,2V51.3z M21.7,33.5v-9.7c0-1.1,0.9-2,2-2c0,0,0,0,0,0h48.5c0,0,0,0,0,0c1.1,0,2,0.9,2,2v9.7c0,1.1-0.9,2-2,2
					H23.8C22.6,35.6,21.7,34.6,21.7,33.5z M21.7,6.1c0-1.1,0.9-2,2-2h48.5c1.1,0,2,0.9,2,2v9.7c0,1.1-0.9,2-2,2c0,0,0,0,0,0H23.8
					c0,0,0,0,0,0c-1.1,0-2-0.9-2-2L21.7,6.1z"/>
				<path id="XMLID_1552_" class="st0" d="M45.9,44.4H29c-1.1,0-2,0.9-2,2s0.9,2,2,2h16.9c1.1,0,2-0.9,2-2S47,44.4,45.9,44.4
					L45.9,44.4z"/>
				<path id="XMLID_1553_" class="st0" d="M56.4,44.4c-0.5,0-1.1,0.2-1.4,0.6s-0.6,0.9-0.6,1.4c0,0.5,0.2,1.1,0.6,1.4
					c0.4,0.4,0.9,0.6,1.4,0.6c0.5,0,1.1-0.2,1.4-0.6c0.4-0.4,0.6-0.9,0.6-1.4c0-0.5-0.2-1.1-0.6-1.4C57.5,44.7,57,44.4,56.4,44.4z"
					/>
				<path id="XMLID_1554_" class="st0" d="M67,44.4c-0.5,0-1.1,0.2-1.4,0.6S65,45.9,65,46.5c0,0.5,0.2,1.1,0.6,1.4
					c0.4,0.4,0.9,0.6,1.4,0.6c0.5,0,1.1-0.2,1.4-0.6c0.4-0.4,0.6-0.9,0.6-1.4c0-0.5-0.2-1.1-0.6-1.4C68.1,44.7,67.5,44.4,67,44.4z"
					/>
				<path id="XMLID_1555_" class="st0" d="M29,12.9h16.9c1.1,0,2-0.9,2-2s-0.9-2-2-2H29c-1.1,0-2,0.9-2,2S27.9,12.9,29,12.9z"/>
				<path id="XMLID_1556_" class="st0" d="M56.4,12.9c0.5,0,1.1-0.2,1.4-0.6c0.4-0.4,0.6-0.9,0.6-1.4c0-0.5-0.2-1.1-0.6-1.4
					c-0.4-0.4-0.9-0.6-1.4-0.6c-0.5,0-1.1,0.2-1.4,0.6c-0.4,0.4-0.6,0.9-0.6,1.4c0,0.5,0.2,1.1,0.6,1.4
					C55.4,12.7,55.9,12.9,56.4,12.9z"/>
				<path id="XMLID_1557_" class="st0" d="M67,12.9c0.5,0,1.1-0.2,1.4-0.6c0.4-0.4,0.6-0.9,0.6-1.4c0-0.5-0.2-1.1-0.6-1.4
					c-0.4-0.4-0.9-0.6-1.4-0.6c-0.5,0-1.1,0.2-1.4,0.6c-0.4,0.4-0.6,0.9-0.6,1.4s0.2,1.1,0.6,1.4C66,12.7,66.5,12.9,67,12.9z"/>
				<path id="XMLID_1691_" class="st0" d="M45.9,26.7H29c-1.1,0-2,0.9-2,2s0.9,2,2,2h16.9c1.1,0,2-0.9,2-2S47,26.7,45.9,26.7
					L45.9,26.7z"/>
				<path id="XMLID_1692_" class="st0" d="M56.4,26.7c-0.5,0-1.1,0.2-1.4,0.6s-0.6,0.9-0.6,1.4c0,0.5,0.2,1.1,0.6,1.4
					c0.4,0.4,0.9,0.6,1.4,0.6c0.5,0,1.1-0.2,1.4-0.6c0.4-0.4,0.6-0.9,0.6-1.4c0-0.5-0.2-1.1-0.6-1.4C57.5,26.9,57,26.7,56.4,26.7z"
					/>
				<path id="XMLID_1704_" class="st0" d="M67,26.7c-0.5,0-1.1,0.2-1.4,0.6S65,28.2,65,28.7c0,0.5,0.2,1.1,0.6,1.4
					c0.4,0.4,0.9,0.6,1.4,0.6c0.5,0,1.1-0.2,1.4-0.6c0.4-0.4,0.6-0.9,0.6-1.4c0-0.5-0.2-1.1-0.6-1.4C68.1,26.9,67.5,26.7,67,26.7z"
					/>
			</g>
		</g>
	</g>
</g>
</svg>
