<?xml version="1.0" encoding="utf-8"?>
<!-- Generator: Adobe Illustrator 23.0.6, SVG Export Plug-In . SVG Version: 6.00 Build 0)  -->
<svg version="1.1" id="Layer_1" xmlns="http://www.w3.org/2000/svg" xmlns:xlink="http://www.w3.org/1999/xlink" x="0px" y="0px"
	 viewBox="0 0 512 512" style="enable-background:new 0 0 512 512;" xml:space="preserve">
<style type="text/css">
	.st0{fill:#E94F35;}
</style>
<g>
	<g>
		<path class="st0" d="M398.5,212.4v-20.8c4.7-1.5,9.3-3.4,13.6-5.7l14.7,14.7c3.3,3.3,8.6,3.3,11.9,0l23.8-23.8
			c3.3-3.3,3.3-8.6,0-11.9l-14.7-14.7c2.3-4.4,4.2-8.9,5.7-13.6h20.8c4.7,0,8.4-3.8,8.4-8.4V94.4c0-4.7-3.8-8.4-8.4-8.4h-20.8
			c-1.5-4.7-3.4-9.3-5.7-13.6l14.7-14.7c3.3-3.3,3.3-8.6,0-11.9l-23.8-23.8c-3.3-3.3-8.6-3.3-11.9,0l-14.7,14.7
			c-4.4-2.3-8.9-4.2-13.6-5.7V10.1c0-4.7-3.8-8.4-8.4-8.4h-33.7c-4.7,0-8.4,3.8-8.4,8.4v20.8c-4.7,1.5-9.3,3.4-13.6,5.7l-14.7-14.7
			c-3.3-3.3-8.6-3.3-11.9,0l-23.8,23.8c-3.3,3.3-3.3,8.6,0,11.9l14.7,14.7c-2.3,4.4-4.2,9-5.7,13.6H272c-4.7,0-8.4,3.8-8.4,8.4v33.7
			c0,4.7,3.8,8.4,8.4,8.4h20.8c1.5,4.7,3.4,9.3,5.7,13.6l-14.7,14.7c-3.3,3.3-3.3,8.6,0,11.9l23.8,23.8c3.3,3.3,8.6,3.3,11.9,0
			l14.7-14.7c4.4,2.3,8.9,4.2,13.6,5.7v20.8c0,4.7,3.8,8.4,8.4,8.4h33.7C394.7,220.8,398.5,217.1,398.5,212.4z M364.8,204v-18.8
			c0-3.9-2.7-7.3-6.6-8.2c-7.4-1.7-14.4-4.6-20.9-8.7c-3.3-2.1-7.7-1.6-10.5,1.2l-13.3,13.3l-11.9-11.9l13.3-13.3
			c2.8-2.8,3.3-7.1,1.2-10.5c-4.1-6.5-7-13.5-8.7-20.9c-0.9-3.8-4.3-6.6-8.2-6.6h-18.8v-16.9h18.8c3.9,0,7.4-2.7,8.2-6.6
			c1.7-7.4,4.6-14.4,8.7-20.9c2.1-3.3,1.6-7.7-1.2-10.5l-13.3-13.3l11.9-11.9L326.9,53c2.8,2.8,7.1,3.3,10.5,1.2
			c6.4-4.1,13.5-7,20.9-8.7c3.8-0.9,6.6-4.3,6.6-8.2V18.5h16.9v18.8c0,3.9,2.7,7.3,6.6,8.2c7.4,1.7,14.4,4.6,20.9,8.7
			c3.3,2.1,7.7,1.6,10.5-1.2l13.3-13.3l11.9,11.9l-13.3,13.3c-2.8,2.8-3.3,7.1-1.2,10.5c4.1,6.5,7,13.5,8.7,20.9
			c0.9,3.8,4.3,6.6,8.2,6.6h18.8v16.9h-18.8c-3.9,0-7.4,2.7-8.2,6.6c-1.7,7.4-4.6,14.4-8.7,20.9c-2.1,3.3-1.6,7.7,1.2,10.5
			l13.3,13.3l-11.9,11.9l-13.3-13.3c-2.8-2.8-7.1-3.3-10.5-1.2c-6.4,4.1-13.5,7-20.9,8.7c-3.8,0.9-6.6,4.3-6.6,8.2V204H364.8z"/>
	</g>
</g>
<g>
	<g>
		<path class="st0" d="M415.3,111.2c0-23.2-18.9-42.2-42.2-42.2S331,88,331,111.2s18.9,42.2,42.2,42.2S415.3,134.5,415.3,111.2z
			 M347.9,111.2c0-13.9,11.3-25.3,25.3-25.3c13.9,0,25.3,11.3,25.3,25.3s-11.3,25.3-25.3,25.3C359.2,136.5,347.9,125.2,347.9,111.2z
			"/>
	</g>
</g>
<g>
	<g>
		<path class="st0" d="M255.2,338.9c0-46.5-37.8-84.3-84.3-84.3s-84.3,37.8-84.3,84.3s37.8,84.3,84.3,84.3S255.2,385.3,255.2,338.9z
			 M103.4,338.9c0-37.2,30.3-67.4,67.4-67.4s67.4,30.3,67.4,67.4s-30.3,67.4-67.4,67.4S103.4,376,103.4,338.9z"/>
	</g>
</g>
<g>
	<g>
		<path class="st0" d="M204.6,499v-29.6c9.3-2.4,18.3-5.8,27-10.3l22.7,22.7c1.6,1.6,3.7,2.5,6,2.5s4.4-0.9,6-2.5l41.7-41.7
			c3.3-3.3,3.3-8.6,0-11.9L287,407.3c4.9-8.3,8.8-17.1,11.9-26.3H331c4.7,0,8.4-3.8,8.4-8.4v-59c0-4.7-3.8-8.4-8.4-8.4h-29.6
			c-2.4-9.2-5.8-18.2-10.1-26.8l22.9-26.6c1.5-1.7,2.2-4,2-6.1c-0.2-2.2-1.2-4.3-2.9-5.8l-44.8-38.5c-3.5-3-8.9-2.6-11.9,0.9
			l-17.4,20.3c-8.2-4.8-17-8.8-26.3-11.8v-32.1c0-4.7-3.8-8.4-8.4-8.4h-59c-4.7,0-8.4,3.8-8.4,8.4v29.6c-9.3,2.4-18.3,5.8-27,10.3
			l-22.7-22.7c-1.6-1.6-3.7-2.5-6-2.5s-4.4,0.9-6,2.5l-41.7,41.7c-3.3,3.3-3.3,8.6,0,11.9l20.9,20.9c-4.9,8.3-8.8,17.1-11.9,26.3
			H10.7c-4.7,0-8.4,3.8-8.4,8.4v59c0,4.7,3.8,8.4,8.4,8.4h29.6c2.4,9.3,5.8,18.3,10.3,27l-22.7,22.7c-3.3,3.3-3.3,8.6,0,11.9
			L69.5,476c3.3,3.3,8.6,3.3,11.9,0l20.9-20.9c8.3,4.9,17.1,8.8,26.3,11.9V499c0,4.7,3.8,8.4,8.4,8.4h59
			C200.8,507.5,204.6,503.7,204.6,499z M145.6,490.6v-30c0-3.8-2.5-7.1-6.2-8.1c-12.1-3.3-23.4-8.5-33.6-15.2
			c-3.3-2.2-7.8-1.8-10.6,1.1l-19.7,19.7l-29.8-29.8l21.2-21.2c2.7-2.7,3.3-6.8,1.4-10.1c-6.2-10.9-10.6-22.5-13-34.5
			c-0.8-3.9-4.3-6.7-8.3-6.7H19.1v-42.2h30c3.8,0,7.1-2.5,8.1-6.2c3.3-12.1,8.5-23.4,15.2-33.6c2.2-3.3,1.8-7.8-1.1-10.6l-19.7-19.7
			l29.8-29.8l21.2,21.2c2.7,2.7,6.8,3.2,10.1,1.4c10.9-6.2,22.5-10.6,34.5-13c3.9-0.8,6.7-4.3,6.7-8.3v-27.8h42.2v30
			c0,3.8,2.5,7.1,6.2,8.1c12.3,3.4,23.7,8.6,33.9,15.4c3.5,2.4,8.3,1.7,11.1-1.5l16.7-19.4l32,27.5l-21.1,24.6
			c-2.3,2.7-2.7,6.5-1,9.6c6,10.7,10.2,22.1,12.6,33.9c0.8,3.9,4.3,6.7,8.3,6.7h27.8v42.2h-30c-3.8,0-7.1,2.5-8.1,6.2
			c-3.3,12.1-8.5,23.4-15.2,33.6c-2.2,3.3-1.8,7.8,1.1,10.6l19.7,19.7L260.3,464l-21.2-21.2c-2.7-2.7-6.8-3.2-10.1-1.4
			c-10.9,6.2-22.5,10.6-34.5,13c-3.9,0.8-6.7,4.3-6.7,8.3v27.8H145.6z"/>
	</g>
</g>
<g>
	<g>
		<path class="st0" d="M432.2,364.1h16.9v-17.6c7.7-1.3,14.7-4.3,20.8-8.6l12.5,12.5l11.9-11.9L481.8,326c4.3-6.1,7.3-13.2,8.6-20.8
			h17.6v-16.9h-17.6c-1.3-7.7-4.3-14.7-8.6-20.8l12.5-12.5l-11.9-11.9l-12.5,12.5c-6.1-4.3-13.2-7.3-20.8-8.6v-17.6h-16.9v17.6
			c-7.7,1.3-14.7,4.3-20.8,8.6l-12.5-12.5L387,255l12.5,12.5c-4.3,6.1-7.3,13.2-8.6,20.8h-17.6v16.9h17.6c1.3,7.7,4.3,14.7,8.6,20.8
			L387,338.4l11.9,11.9l12.5-12.5c6.1,4.3,13.2,7.3,20.8,8.6V364.1z M406.9,296.7c0-18.6,15.1-33.7,33.7-33.7s33.7,15.1,33.7,33.7
			s-15.1,33.7-33.7,33.7S406.9,315.3,406.9,296.7z"/>
	</g>
</g>
<g>
	<g>
		<rect x="432.2" y="288.3" class="st0" width="16.9" height="16.9"/>
	</g>
</g>
</svg>
