<?xml version="1.0" encoding="utf-8"?>
<!-- Generator: Adobe Illustrator 22.1.0, SVG Export Plug-In . SVG Version: 6.00 Build 0)  -->
<svg version="1.1" id="Layer_1" xmlns="http://www.w3.org/2000/svg" xmlns:xlink="http://www.w3.org/1999/xlink" x="0px" y="0px"
	 viewBox="0 0 512 512" style="enable-background:new 0 0 512 512;" xml:space="preserve">
<style type="text/css">
	.st0{fill:#FFFFFF;}
</style>
<g>
	<g>
		<g>
			<path class="st0" d="M377.8,271.1L377.8,271.1c0.5-0.5,1-1,1.4-1.6c0.2-0.2,0.4-0.5,0.6-0.8c0.2-0.3,0.5-0.6,0.7-0.9
				c0.2-0.3,0.4-0.6,0.6-0.9c0.2-0.3,0.3-0.6,0.5-0.9c0.2-0.3,0.3-0.6,0.5-1c0.1-0.3,0.3-0.6,0.4-0.9c0.1-0.3,0.2-0.6,0.4-1
				c0.1-0.3,0.2-0.7,0.4-1c0.1-0.3,0.2-0.6,0.2-1c0.1-0.4,0.2-0.7,0.3-1.1c0.1-0.4,0.1-0.8,0.2-1.1c0-0.3,0.1-0.6,0.1-0.9
				c0.1-1.4,0.1-2.8,0-4.2c0-0.3-0.1-0.6-0.1-0.9c-0.1-0.4-0.1-0.8-0.2-1.1c-0.1-0.4-0.2-0.7-0.3-1.1c-0.1-0.3-0.2-0.6-0.2-1
				c-0.1-0.3-0.2-0.7-0.4-1c-0.1-0.3-0.2-0.6-0.4-1c-0.1-0.3-0.3-0.6-0.4-0.9c-0.2-0.3-0.3-0.7-0.5-1s-0.3-0.6-0.5-0.9
				s-0.4-0.6-0.6-0.9s-0.4-0.6-0.7-0.9c-0.2-0.3-0.4-0.5-0.6-0.8c-0.4-0.5-0.9-1-1.4-1.5l0,0L271.1,134.1c-8.3-8.3-21.8-8.3-30.2,0
				s-8.3,21.8,0,30.2l70.2,70.2H21.3C9.6,234.7,0,244.2,0,256s9.6,21.3,21.3,21.3h289.8l-70.2,70.2c-8.3,8.3-8.3,21.8,0,30.2
				s21.8,8.3,30.2,0L377.8,271.1z"/>
			<path class="st0" d="M362.7,21.3c0,11.8,9.6,21.3,21.3,21.3h85.3v426.7H384c-11.8,0-21.3,9.6-21.3,21.3
				c0,11.8,9.5,21.4,21.3,21.4h106.7c11.7,0,21.3-9.6,21.3-21.3V21.4c0-11.8-9.6-21.3-21.3-21.3H384C372.2,0,362.7,9.6,362.7,21.3z"
				/>
		</g>
	</g>
</g>
</svg>
